<svg xmlns="http://www.w3.org/2000/svg" xmlns:xlink="http://www.w3.org/1999/xlink" version="1.1" data-diagram-type="STATE" style="width:864px;height:1172px;background:#FFFFFF;" width="864px" height="1172px" viewBox="0 0 864 1172" zoomAndPan="magnify" preserveAspectRatio="none" contentStyleType="text/css"><?plantuml 1.2026.7beta3?><defs/><g><g class="title" data-source-line="1"><text x="304.936" y="32.9951" fill="#000000" font-size="14" lengthAdjust="spacing" textLength="247.8848" font-weight="700" font-family="sans-serif">Consultar solicitud de dispensa</text></g><rect x="3" y="60.2969" width="848.7567" height="16.6406" fill="#FFFFCC" style="stroke:#FFDD88;stroke-width:3;" rx="2.5" ry="2.5"/><text x="10" y="70.9375" fill="#000000" font-size="10" lengthAdjust="spacing" textLength="295.0049" font-family="monospace">Please use CSS style instead of skinparam padding</text><g class="entity" data-qualified-name="DISPENSAS_ABIERTO_INICIAL" id="ent0001" data-source-line="8"><rect x="474.32" y="204.9375" width="187.3623" height="76.2969" fill="#F1F1F1" style="stroke:#181818;stroke-width:0.5;" rx="12.5" ry="12.5"/><line x1="474.32" y1="251.2344" x2="661.6823" y2="251.2344" style="stroke:#181818;stroke-width:0.5;"/><text x="494.32" y="232.9326" fill="#000000" font-size="14" lengthAdjust="spacing" textLength="147.3623" font-family="sans-serif">DISPENSAS_ABIERTO</text></g><g class="entity" data-qualified-name="SOLICITUD_DISPENSA_ABIERTA_COMP" id="ent0002" data-source-line="9"><path d="M298.74,381.2375 L837.2567,381.2375 A12.5,12.5 0 0 1 849.7567,393.7375 L849.7567,427.5344 L286.24,427.5344 L286.24,393.7375 A12.5,12.5 0 0 1 298.74,381.2375" fill="#F1F1F1"/><rect x="286.24" y="381.2375" width="563.5167" height="276.8869" fill="none" style="stroke:#181818;stroke-width:0.5;" rx="12.5" ry="12.5"/><line x1="286.24" y1="427.5344" x2="849.7567" y2="427.5344" style="stroke:#181818;stroke-width:0.5;"/><text x="458.3226" y="409.2326" fill="#000000" font-size="14" lengthAdjust="spacing" textLength="219.3516" font-family="sans-serif">SOLICITUD_DISPENSA_ABIERTA</text><g class="entity" data-qualified-name="SOLICITUD_DISPENSA_ABIERTA_COMP.SolicitarEditarSolicitud" id="ent0004" data-source-line="22"><rect x="298.24" y="494.5344" width="169.1719" height="92.5938" fill="#F1F1F1" style="stroke:#181818;stroke-width:0.5;" rx="12.5" ry="12.5"/><line x1="298.24" y1="540.8313" x2="467.4119" y2="540.8313" style="stroke:#181818;stroke-width:0.5;"/><text x="318.24" y="522.5295" fill="#000000" font-size="14" lengthAdjust="spacing" textLength="129.1719" font-family="sans-serif">Consulta y Edición</text><text x="313.24" y="568.8264" fill="#000000" font-size="14" lengthAdjust="spacing" textLength="4.4502" font-family="sans-serif"> </text></g><g class="start_entity" data-qualified-name="SOLICITUD_DISPENSA_ABIERTA_COMP..start.SOLICITUD_DISPENSA_ABIERTA_COMP" id="ent0008" data-source-line="27"><ellipse cx="382.83" cy="448.5344" rx="10" ry="10" fill="#222222" style="stroke:#222222;stroke-width:1;"/></g><g class="end_entity" data-qualified-name="SOLICITUD_DISPENSA_ABIERTA_COMP..end.SOLICITUD_DISPENSA_ABIERTA_COMP" id="ent0010" data-source-line="35"><ellipse cx="382.83" cy="634.1244" rx="11" ry="11" fill="none" style="stroke:#222222;stroke-width:1;"/><ellipse cx="382.83" cy="634.1244" rx="6" ry="6" fill="#222222" style="stroke:#222222;stroke-width:1;"/></g><g class="entity" data-qualified-name="SOLICITUD_DISPENSA_ABIERTA_COMP.GMN16" id="ent0017" data-source-line="30"><path d="M485.89,503.1244 L485.89,537.1244 L467.71,541.1244 L485.89,545.1244 L485.89,578.5228 A0,0 0 0 0 485.89,578.5228 L825.7567,578.5228 A0,0 0 0 0 825.7567,578.5228 L825.7567,513.1244 L815.7567,503.1244 L485.89,503.1244 A0,0 0 0 0 485.89,503.1244" style="stroke:#181818;stroke-width:0.5;" fill="#FEFFDD"/><path d="M815.7567,503.1244 L815.7567,513.1244 L825.7567,513.1244 L815.7567,503.1244" style="stroke:#181818;stroke-width:0.5;" fill="#FEFFDD"/><text x="501.89" y="530.1913" fill="#000000" font-size="13" lengthAdjust="spacing" textLength="120.999" font-weight="700" font-family="sans-serif">Sistema permite</text><text x="627.0213" y="530.1913" fill="#000000" font-size="13" lengthAdjust="spacing" textLength="120.0659" font-family="sans-serif">retornar los datos.</text><text x="501.89" y="545.3241" fill="#000000" font-size="13" lengthAdjust="spacing" textLength="112.7598" font-weight="700" font-family="sans-serif">Alumno solicita</text><text x="618.7821" y="545.3241" fill="#000000" font-size="13" lengthAdjust="spacing" textLength="181.9746" font-family="sans-serif">modificar campos mediante</text><text x="501.89" y="560.4569" fill="#000000" font-size="13" lengthAdjust="spacing" textLength="186.875" font-weight="700" font-family="sans-serif">editarSolicitudDispensa()</text><text x="688.765" y="560.4569" fill="#000000" font-size="13" lengthAdjust="spacing" textLength="4.1323" font-family="sans-serif">.</text></g><!--link *start*SOLICITUD_DISPENSA_ABIERTA_COMP to SolicitarEditarSolicitud--><g class="link" data-entity-1="ent0008" data-entity-2="ent0004" id="lnk9" data-source-line="27" data-link-type="dependency"><path d="M382.83,458.7644 C382.83,467.5844 382.83,475.9944 382.83,489.4344" style="stroke:#008000;stroke-width:1;" fill="none" id="*start*SOLICITUD_DISPENSA_ABIERTA_COMP-to-SolicitarEditarSolicitud"/><polygon points="382.83,494.4344,386.83,485.4344,382.83,489.4344,378.83,485.4344,382.83,494.4344" fill="#008000" style="stroke:#008000;stroke-width:1;stroke-linejoin:miter;stroke-miterlimit:10;"/></g><!--link SolicitarEditarSolicitud to *end*SOLICITUD_DISPENSA_ABIERTA_COMP--><g class="link" data-entity-1="ent0004" data-entity-2="ent0010" id="lnk11" data-source-line="35" data-link-type="dependency"><path d="M382.83,587.4744 C382.83,600.5944 382.83,608.7144 382.83,617.6844" style="stroke:#008000;stroke-width:1;" fill="none" id="SolicitarEditarSolicitud-to-*end*SOLICITUD_DISPENSA_ABIERTA_COMP"/><polygon points="382.83,622.6844,386.83,613.6844,382.83,617.6844,378.83,613.6844,382.83,622.6844" fill="#008000" style="stroke:#008000;stroke-width:1;stroke-linejoin:miter;stroke-miterlimit:10;"/></g></g><g class="entity" data-qualified-name="DISPENSAS_ABIERTO_FINAL" id="ent0003" data-source-line="10"><rect x="474.32" y="960.1175" width="187.3623" height="76.2969" fill="#F1F1F1" style="stroke:#181818;stroke-width:0.5;" rx="12.5" ry="12.5"/><line x1="474.32" y1="1006.4144" x2="661.6823" y2="1006.4144" style="stroke:#181818;stroke-width:0.5;"/><text x="494.32" y="988.1126" fill="#000000" font-size="14" lengthAdjust="spacing" textLength="147.3623" font-family="sans-serif">DISPENSAS_ABIERTO</text></g><g class="start_entity" data-qualified-name=".start." id="ent0005" data-source-line="12"><ellipse cx="568" cy="94.9375" rx="10" ry="10" fill="#222222" style="stroke:#222222;stroke-width:1;"/></g><g class="end_entity" data-qualified-name=".end." id="ent0014" data-source-line="53"><ellipse cx="568" cy="1147.4175" rx="11" ry="11" fill="none" style="stroke:#222222;stroke-width:1;"/><ellipse cx="568" cy="1147.4175" rx="6" ry="6" fill="#222222" style="stroke:#222222;stroke-width:1;"/></g><!--link *start* to DISPENSAS_ABIERTO_INICIAL--><g class="link" data-entity-1="ent0005" data-entity-2="ent0001" id="lnk6" data-source-line="12" data-link-type="dependency"><path d="M568,105.1175 C568,125.3175 568,166.3875 568,199.7475" style="stroke:#008000;stroke-width:1;" fill="none" id="*start*-to-DISPENSAS_ABIERTO_INICIAL"/><polygon points="568,204.7475,572,195.7475,568,199.7475,564,195.7475,568,204.7475" fill="#008000" style="stroke:#008000;stroke-width:1;stroke-linejoin:miter;stroke-miterlimit:10;"/></g><!--link DISPENSAS_ABIERTO_INICIAL to SOLICITUD_DISPENSA_ABIERTA_COMP--><g class="link" data-entity-1="ent0001" data-entity-2="ent0002" id="lnk7" data-source-line="15" data-link-type="dependency"><path d="M568,281.5475 C568,307.8175 568,339.3875 568,375.9875" style="stroke:#008000;stroke-width:1;" fill="none" id="DISPENSAS_ABIERTO_INICIAL-to-SOLICITUD_DISPENSA_ABIERTA_COMP"/><polygon points="568,380.9875,572,371.9875,568,375.9875,564,371.9875,568,380.9875" fill="#008000" style="stroke:#008000;stroke-width:1;stroke-linejoin:miter;stroke-miterlimit:10;"/><path d="M6,266.2675 L6,326.2675 L355,326.2675 L355,276.2675 L345,266.2675 L6,266.2675" style="stroke:#181818;stroke-width:0.5;" fill="#FEFFDD"/><path d="M345,266.2675 L345,276.2675 L355,276.2675 L345,266.2675" style="stroke:#181818;stroke-width:0.5;" fill="#FEFFDD"/><text x="22" y="293.3344" fill="#000000" font-size="13" lengthAdjust="spacing" textLength="112.7598" font-weight="700" font-family="sans-serif">Alumno solicita</text><text x="138.8921" y="293.3344" fill="#000000" font-size="13" lengthAdjust="spacing" textLength="164.9312" font-family="sans-serif">seleccionar una solicitud.</text><text x="22" y="308.4672" fill="#000000" font-size="13" lengthAdjust="spacing" textLength="120.999" font-weight="700" font-family="sans-serif">Sistema permite</text><text x="147.1313" y="308.4672" fill="#000000" font-size="13" lengthAdjust="spacing" textLength="182.9648" font-family="sans-serif">abrir el detalle de la misma.</text><text x="371.0962" y="300.9008" fill="#000000" font-size="13" lengthAdjust="spacing" textLength="185.9165" font-family="sans-serif">consultarSolicitudDispensa()</text></g><!--link SOLICITUD_DISPENSA_ABIERTA_COMP to DISPENSAS_ABIERTO_FINAL--><g class="link" data-entity-1="ent0002" data-entity-2="ent0003" id="lnk12" data-source-line="39" data-link-type="dependency"><path d="M536.77,658.4275 C536.77,761.5275 536.77,890.0575 536.77,954.7475" style="stroke:#008000;stroke-width:1;" fill="none" id="SOLICITUD_DISPENSA_ABIERTA_COMP-to-DISPENSAS_ABIERTO_FINAL"/><polygon points="536.77,959.7475,540.77,950.7475,536.77,954.7475,532.77,950.7475,536.77,959.7475" fill="#008000" style="stroke:#008000;stroke-width:1;stroke-linejoin:miter;stroke-miterlimit:10;"/><path d="M12.77,729.0875 L12.77,804.0875 L332.77,804.0875 L332.77,739.0875 L322.77,729.0875 L12.77,729.0875" style="stroke:#181818;stroke-width:0.5;" fill="#FEFFDD"/><path d="M322.77,729.0875 L322.77,739.0875 L332.77,739.0875 L322.77,729.0875" style="stroke:#181818;stroke-width:0.5;" fill="#FEFFDD"/><text x="28.77" y="756.1544" fill="#000000" font-size="13" lengthAdjust="spacing" textLength="77.3589" font-weight="700" font-family="sans-serif">GUARDAR:</text><text x="28.77" y="771.2872" fill="#000000" font-size="13" lengthAdjust="spacing" textLength="112.7598" font-weight="700" font-family="sans-serif">Alumno solicita</text><text x="145.6621" y="771.2872" fill="#000000" font-size="13" lengthAdjust="spacing" textLength="118.3647" font-family="sans-serif">registrar cambios.</text><text x="28.77" y="786.42" fill="#000000" font-size="13" lengthAdjust="spacing" textLength="120.999" font-weight="700" font-family="sans-serif">Sistema permite</text><text x="153.9013" y="786.42" fill="#000000" font-size="13" lengthAdjust="spacing" textLength="154.0894" font-family="sans-serif">persistir la información.</text><text x="348.9907" y="771.2872" fill="#000000" font-size="13" lengthAdjust="spacing" textLength="176.9092" font-family="sans-serif">guardarSolicitudDispensa()</text></g><!--link SOLICITUD_DISPENSA_ABIERTA_COMP to DISPENSAS_ABIERTO_FINAL--><g class="link" data-entity-1="ent0002" data-entity-2="ent0003" id="lnk13" data-source-line="46" data-link-type="dependency"><path d="M599.23,658.4275 C599.23,761.5275 599.23,890.0575 599.23,954.7475" style="stroke:#FF0000;stroke-width:1;" fill="none" id="SOLICITUD_DISPENSA_ABIERTA_COMP-to-DISPENSAS_ABIERTO_FINAL-1"/><polygon points="599.23,959.7475,603.23,950.7475,599.23,954.7475,595.23,950.7475,599.23,959.7475" fill="#FF0000" style="stroke:#FF0000;stroke-width:1;stroke-linejoin:miter;stroke-miterlimit:10;"/><text x="123.23" y="856.2872" fill="#000000" font-size="13" lengthAdjust="spacing" textLength="164.6899" font-family="sans-serif">cerrarSolicitudDispensa()</text><path d="M303.9199,814.0875 L303.9199,889.0875 L593.9199,889.0875 L593.9199,824.0875 L583.9199,814.0875 L303.9199,814.0875" style="stroke:#181818;stroke-width:0.5;" fill="#FEFFDD"/><path d="M583.9199,814.0875 L583.9199,824.0875 L593.9199,824.0875 L583.9199,814.0875" style="stroke:#181818;stroke-width:0.5;" fill="#FEFFDD"/><text x="319.9199" y="841.1544" fill="#000000" font-size="13" lengthAdjust="spacing" textLength="63.7114" font-weight="700" font-family="sans-serif">CERRAR:</text><text x="319.9199" y="856.2872" fill="#000000" font-size="13" lengthAdjust="spacing" textLength="112.7598" font-weight="700" font-family="sans-serif">Alumno solicita</text><text x="436.812" y="856.2872" fill="#000000" font-size="13" lengthAdjust="spacing" textLength="104.1016" font-family="sans-serif">salir del detalle.</text><text x="319.9199" y="871.42" fill="#000000" font-size="13" lengthAdjust="spacing" textLength="120.999" font-weight="700" font-family="sans-serif">Sistema permite</text><text x="445.0513" y="871.42" fill="#000000" font-size="13" lengthAdjust="spacing" textLength="124.522" font-family="sans-serif">descartar cambios.</text></g><!--link DISPENSAS_ABIERTO_FINAL to *end*--><g class="link" data-entity-1="ent0003" data-entity-2="ent0014" id="lnk15" data-source-line="53" data-link-type="dependency"><path d="M568,1036.6775 C568,1069.6475 568,1110.0675 568,1130.9975" style="stroke:#0000FF;stroke-width:1;" fill="none" id="DISPENSAS_ABIERTO_FINAL-to-*end*"/><polygon points="568,1135.9975,572,1126.9975,568,1130.9975,564,1126.9975,568,1135.9975" fill="#0000FF" style="stroke:#0000FF;stroke-width:1;stroke-linejoin:miter;stroke-miterlimit:10;"/></g><?plantuml-src bLNDRjf04BxxAKRqa1O9cbvH5Ca59xAK0BBX54Ley0vaoteNxIw7jEfJz2bwxYFmOXaxDZXjJ58E2EtEpCxt9xpqYc1ejDifZnQSKJAJVYT040ZfjgGT1cVGw_LWE1bVnTVp91p6-rzZ64KGfRFuPb9S1cuZzHOjvg2D84TR-79-3erZYtfJ7JTEbTJa7xS4nle7qxYOeX1Ihxay29n7Jp2AqsaqJiDq4NwDesGsMSJZU1Y7Dt3ue8FEFsMTgZ-Tt73vR3vQr2LLHRWOJcwdTNzxMQTraQjut5oZTP7WhdiFlRiFQqkaxtkNxPW2vZpItg90G0N4BmiJj5FG7FeMq05ajTvfBVUealhZfq0RngXevS7eGfzDK22wM5w6QfThKri4BpulBy6HeYoJHhDtTXgF_kdNNQbqddA4BTbSUYgxS6cb1L9iCe-A3SXcKmYvT3ds0z82YYM2TmhtetogggsMiv6GJNob8hNDuH7uEfFxFxfJzfPVPt1BtWW3Kdko3BGmOabLWK1d4i7lVsTQPbZMjpurECxyM--sdcD7oRwLwmUcVtMw_WJ1bf7OGXDb70ZqnlMRBQyfcHiXLupDGeRvbjjo4XAPYaDZjqiljpYQfjjzdd-Gxe2dbQKcBKnJyBEmV8fA2fOgAwn7Uht3RmJ9VCg0LiP-BpBmbXkEStkl1kmvgmFWsLRyPmAkvs4o2fD1GTYfL5XQioZscSkbhDbl4Oj_5nRZH706f6QWEPRcR4RX7R0jYRT0PsJj2SoLxrw27aP9yWxCZgMp7EH3g4zYvhy8jfflCdJ4shO_Orog7LMEUG80?></g></svg>