<svg xmlns="http://www.w3.org/2000/svg" xmlns:xlink="http://www.w3.org/1999/xlink" contentStyleType="text/css" data-diagram-type="STATE" height="835px" preserveAspectRatio="none" style="width:384px;height:835px;background:#FFFFFF;" version="1.1" viewBox="0 0 384 835" width="384px" zoomAndPan="magnify"><title>Consultar Lista Alumnos</title><defs/><g><g class="title" data-source-line="1"><text fill="#000000" font-family="sans-serif" font-size="14" font-weight="bold" lengthAdjust="spacing" textLength="177.4678" x="93.2661" y="23.5352">Consultar Lista Alumnos</text></g><g id="LISTAS_ABIERTO_INICIAL"><rect fill="#F1F1F1" height="50" rx="12.5" ry="12.5" style="stroke:#181818;stroke-width:0.5;" width="130.0039" x="124" y="44.4883"/><line style="stroke:#181818;stroke-width:0.5;" x1="124" x2="254.0039" y1="70.9766" y2="70.9766"/><text fill="#000000" font-family="sans-serif" font-size="14" lengthAdjust="spacing" textLength="110.0039" x="134" y="63.0234">LISTAS_ABIERTO</text></g><g id="LISTA_ABIERTA_FINAL"><rect fill="#F1F1F1" height="50" rx="12.5" ry="12.5" style="stroke:#181818;stroke-width:0.5;" width="121.2471" x="128.38" y="779.9783"/><line style="stroke:#181818;stroke-width:0.5;" x1="128.38" x2="249.6271" y1="806.4666" y2="806.4666"/><text fill="#000000" font-family="sans-serif" font-size="14" lengthAdjust="spacing" textLength="101.2471" x="138.38" y="798.5134">LISTA_ABIERTA</text></g><path d="M19.5,154.4883 L358.5,154.4883 A12.5,12.5 0 0 1 371,166.9883 L371,180.9766 L7,180.9766 L7,166.9883 A12.5,12.5 0 0 1 19.5,154.4883" fill="#F1F1F1"/><rect fill="none" height="565.4883" rx="12.5" ry="12.5" style="stroke:#181818;stroke-width:0.5;" width="364" x="7" y="154.4883"/><line style="stroke:#181818;stroke-width:0.5;" x1="7" x2="371" y1="180.9766" y2="180.9766"/><text fill="#000000" font-family="sans-serif" font-size="14" lengthAdjust="spacing" textLength="163.6387" x="107.1807" y="173.0234">consultarListaAlumnos()</text><g id="consultarListaAlumnos.SeleccionCurso"><rect fill="#F1F1F1" height="50" rx="12.5" ry="12.5" style="stroke:#181818;stroke-width:0.5;" width="50" x="19" y="297.9766"/><line style="stroke:#181818;stroke-width:0.5;" x1="19" x2="69" y1="324.4648" y2="324.4648"/><text fill="#000000" font-family="sans-serif" font-size="14" lengthAdjust="spacing" textLength="4.4297" x="41.7852" y="316.5117">&#160;</text></g><g id="consultarListaAlumnos.RecuperandoDatos"><rect fill="#F1F1F1" height="50" rx="12.5" ry="12.5" style="stroke:#181818;stroke-width:0.5;" width="50" x="19" y="464.9766"/><line style="stroke:#181818;stroke-width:0.5;" x1="19" x2="69" y1="491.4648" y2="491.4648"/><text fill="#000000" font-family="sans-serif" font-size="14" lengthAdjust="spacing" textLength="4.4297" x="41.7852" y="483.5117">&#160;</text></g><g id="consultarListaAlumnos.VistaDetallada"><rect fill="#F1F1F1" height="50" rx="12.5" ry="12.5" style="stroke:#181818;stroke-width:0.5;" width="50" x="19" y="600.9766"/><line style="stroke:#181818;stroke-width:0.5;" x1="19" x2="69" y1="627.4648" y2="627.4648"/><text fill="#000000" font-family="sans-serif" font-size="14" lengthAdjust="spacing" textLength="4.4297" x="41.7852" y="619.5117">&#160;</text></g><ellipse cx="44" cy="201.9766" fill="#222222" rx="10" ry="10" style="stroke:#222222;stroke-width:1;"/><ellipse cx="44" cy="698.9766" fill="none" rx="11" ry="11" style="stroke:#222222;stroke-width:1;"/><ellipse cx="44" cy="698.9766" fill="#222222" rx="6" ry="6" style="stroke:#222222;stroke-width:1;"/><!--link *start*consultarListaAlumnos to SeleccionCurso--><g class="link" data-entity-1=".start.consultarListaAlumnos" data-entity-2="SeleccionCurso" data-source-line="16" data-uid="lnk4" id="link_.start.consultarListaAlumnos_SeleccionCurso"><path d="M44,212.3166 C44,230.5066 44,265.2166 44,291.5866" fill="none" id="*start*consultarListaAlumnos-to-SeleccionCurso" style="stroke:#008000;stroke-width:1;"/><polygon fill="#008000" points="44,297.5866,48,288.5866,44,292.5866,40,288.5866,44,297.5866" style="stroke:#008000;stroke-width:1;"/><path d="M49,234.9766 L49,274.9766 L308,274.9766 L308,244.9766 L298,234.9766 L49,234.9766" fill="#FEFFDD" style="stroke:#181818;stroke-width:0.5;"/><path d="M298,234.9766 L298,244.9766 L308,244.9766 L298,234.9766" fill="#FEFFDD" style="stroke:#181818;stroke-width:0.5;"/><text fill="#000000" font-family="sans-serif" font-size="13" font-weight="bold" lengthAdjust="spacing" textLength="56.7544" x="55" y="252.5449">Profesor</text><text fill="#000000" font-family="sans-serif" font-size="13" lengthAdjust="spacing" textLength="177.1821" x="115.8677" y="252.5449">selecciona un curso o grado</text><text fill="#000000" font-family="sans-serif" font-size="13" lengthAdjust="spacing" textLength="212.6719" x="55" y="267.8555">para ver el detalle de los alumnos</text></g><!--link SeleccionCurso to RecuperandoDatos--><g class="link" data-entity-1="SeleccionCurso" data-entity-2="RecuperandoDatos" data-source-line="22" data-uid="lnk5" id="link_SeleccionCurso_RecuperandoDatos"><path d="M44,348.3266 C44,379.5166 44,427.2866 44,458.5266" fill="none" id="SeleccionCurso-to-RecuperandoDatos" style="stroke:#008000;stroke-width:1;"/><polygon fill="#008000" points="44,464.5266,48,455.5266,44,459.5266,40,455.5266,44,464.5266" style="stroke:#008000;stroke-width:1;"/><path d="M49,370.9766 L49,441.9766 L349,441.9766 L349,380.9766 L339,370.9766 L49,370.9766" fill="#FEFFDD" style="stroke:#181818;stroke-width:0.5;"/><path d="M339,370.9766 L339,380.9766 L349,380.9766 L339,370.9766" fill="#FEFFDD" style="stroke:#181818;stroke-width:0.5;"/><text fill="#000000" font-family="sans-serif" font-size="13" font-weight="bold" lengthAdjust="spacing" textLength="52.1396" x="55" y="388.5449">Sistema</text><text fill="#000000" font-family="sans-serif" font-size="13" lengthAdjust="spacing" textLength="187.916" x="111.2529" y="388.5449">recibe el criterio de b&#250;squeda</text><text fill="#000000" font-family="sans-serif" font-size="13" lengthAdjust="spacing" textLength="4.1133" x="55" y="403.8555">&#160;</text><text fill="#000000" font-family="sans-serif" font-size="13" font-weight="bold" lengthAdjust="spacing" textLength="52.1396" x="55" y="419.166">Sistema</text><text fill="#000000" font-family="sans-serif" font-size="13" lengthAdjust="spacing" textLength="192.061" x="111.2529" y="419.166">consulta la base de datos para</text><text fill="#000000" font-family="sans-serif" font-size="13" lengthAdjust="spacing" textLength="279.8618" x="55" y="434.4766">obtener los alumnos de ese curso espec&#237;fico</text></g><!--link RecuperandoDatos to VistaDetallada--><g class="link" data-entity-1="RecuperandoDatos" data-entity-2="VistaDetallada" data-source-line="30" data-uid="lnk6" id="link_RecuperandoDatos_VistaDetallada"><path d="M44,515.2466 C44,539.5266 44,570.6666 44,594.8866" fill="none" id="RecuperandoDatos-to-VistaDetallada" style="stroke:#008000;stroke-width:1;"/><polygon fill="#008000" points="44,600.8866,48,591.8866,44,595.8866,40,591.8866,44,600.8866" style="stroke:#008000;stroke-width:1;"/><path d="M49,537.9766 L49,577.9766 L362,577.9766 L362,547.9766 L352,537.9766 L49,537.9766" fill="#FEFFDD" style="stroke:#181818;stroke-width:0.5;"/><path d="M352,537.9766 L352,547.9766 L362,547.9766 L352,537.9766" fill="#FEFFDD" style="stroke:#181818;stroke-width:0.5;"/><text fill="#000000" font-family="sans-serif" font-size="13" lengthAdjust="spacing" textLength="8.2266" x="55" y="555.5449">&#160;&#160;</text><text fill="#000000" font-family="sans-serif" font-size="13" font-weight="bold" lengthAdjust="spacing" textLength="52.1396" x="63.2266" y="555.5449">Sistema</text><text fill="#000000" font-family="sans-serif" font-size="13" lengthAdjust="spacing" textLength="227.8999" x="119.4795" y="555.5449">muestra la tabla con los estudiantes</text><text fill="#000000" font-family="sans-serif" font-size="13" lengthAdjust="spacing" textLength="169.6284" x="55" y="570.8555">listos para ser gestionados</text></g><!--link VistaDetallada to *end*consultarListaAlumnos--><g class="link" data-entity-1="VistaDetallada" data-entity-2=".end.consultarListaAlumnos" data-source-line="36" data-uid="lnk8" id="link_VistaDetallada_.end.consultarListaAlumnos"><path d="M44,651.4066 C44,663.7666 44,672.1066 44,681.5766" fill="none" id="VistaDetallada-to-*end*consultarListaAlumnos" style="stroke:#008000;stroke-width:1;"/><polygon fill="#008000" points="44,687.5766,48,678.5766,44,682.5766,40,678.5766,44,687.5766" style="stroke:#008000;stroke-width:1;"/></g><!--link LISTAS_ABIERTO_INICIAL to consultarListaAlumnos--><g class="link" data-entity-1="LISTAS_ABIERTO_INICIAL" data-entity-2="consultarListaAlumnos" data-source-line="8" data-uid="lnk2" id="link_LISTAS_ABIERTO_INICIAL_consultarListaAlumnos"><path d="M189,94.7683 C189,109.6083 189,124.3183 189,148.2883" fill="none" id="LISTAS_ABIERTO_INICIAL-to-consultarListaAlumnos" style="stroke:#008000;stroke-width:1;"/><polygon fill="#008000" points="189,154.2883,193,145.2883,189,149.2883,185,145.2883,189,154.2883" style="stroke:#008000;stroke-width:1;"/></g><!--link consultarListaAlumnos to LISTA_ABIERTA_FINAL--><g class="link" data-entity-1="consultarListaAlumnos" data-entity-2="LISTA_ABIERTA_FINAL" data-source-line="40" data-uid="lnk9" id="link_consultarListaAlumnos_LISTA_ABIERTA_FINAL"><path d="M189,720.0683 C189,744.0083 189,758.7083 189,773.5583" fill="none" id="consultarListaAlumnos-to-LISTA_ABIERTA_FINAL" style="stroke:#008000;stroke-width:1;"/><polygon fill="#008000" points="189,779.5583,193,770.5583,189,774.5583,185,770.5583,189,779.5583" style="stroke:#008000;stroke-width:1;"/></g><!--SRC=[TLDHIiD04FtVKmpnHuNY1QGGgqAWgDZYZqYPRAPbSRiRTpT24O_a1VprOivkMcpQDO64pBoPzzxC9gYW2IRM-4u7T31LFY2KkbiRwuNmhygqw70DMXaAcvQWjNeJFpWPC11Cgzcyd2tAg-hcSNw_gEwgILLE0JqKmrInNx0DbelRwcuVlOiNGlpJUFHyid94vcKq1hdJdMJ_gKuysMHYocPEpmhu40BuwkiBlXaz8qrIAcicdVFsEFz8icl9eMdiDGQcFq8yHPPh2gWrDjXJF9-_39naM8pb5jR4oR-cm6KzVd1sITwwoujw37vNWz0PaB4GBAmSDds3k3Xu9mUaeKdqn6_GSGhRKKKOcIPnzSA6GWOQiqvpAcTicDQOH3gIggOeGJeLo2aRDTG_t_wj8vv6BCdLxNO46g56dvGtaJNPIXMs3cJOtfwXY286zyCWtvBy-LegQJDE3-qCl1xiBElqIFEw8nzSaXomvgUCSExCuQvHQ0BrGzDSj7N2MtImOa3SOvDToL3BG2OV8o4-XSYVzNravgyJlm00]--></g></svg>