<svg xmlns="http://www.w3.org/2000/svg" xmlns:xlink="http://www.w3.org/1999/xlink" contentStyleType="text/css" data-diagram-type="STATE" height="723px" preserveAspectRatio="none" style="width:341px;height:723px;background:#FFFFFF;" version="1.1" viewBox="0 0 341 723" width="341px" zoomAndPan="magnify"><title>Consultar Lista Alumnos</title><defs/><g><text fill="#000000" font-family="sans-serif" font-size="14" font-weight="bold" lengthAdjust="spacing" textLength="165.6826" x="77.6587" y="24.5332">Consultar Lista Alumnos</text><rect fill="#F1F1F1" height="40" rx="12.5" ry="12.5" style="stroke:#181818;stroke-width:0.5;" width="127.4824" x="104" y="45.6094"/><text fill="#000000" font-family="sans-serif" font-size="14" lengthAdjust="spacing" textLength="117.4824" x="109" y="71.3379">LISTAS_ABIERTO</text><rect fill="#F1F1F1" height="40" rx="12.5" ry="12.5" style="stroke:#181818;stroke-width:0.5;" width="127.4824" x="104" y="677.6094"/><text fill="#000000" font-family="sans-serif" font-size="14" lengthAdjust="spacing" textLength="117.4824" x="109" y="703.3379">LISTAS_ABIERTO</text><path d="M19.5,197.6094 L315.5,197.6094 A12.5,12.5 0 0 1 328,210.1094 L328,225.2188 L7,225.2188 L7,210.1094 A12.5,12.5 0 0 1 19.5,197.6094" fill="#F1F1F1" style="stroke:#F1F1F1;stroke-width:1;"/><rect fill="none" height="418.6094" rx="12.5" ry="12.5" style="stroke:#181818;stroke-width:0.5;" width="321" x="7" y="197.6094"/><line style="stroke:#181818;stroke-width:0.5;" x1="7" x2="328" y1="225.2188" y2="225.2188"/><text fill="#000000" font-family="sans-serif" font-size="14" lengthAdjust="spacing" textLength="140.8477" x="97.0762" y="217.1426">consultarListaAlumnos</text><rect fill="#F1F1F1" height="40" rx="12.5" ry="12.5" style="stroke:#181818;stroke-width:0.5;" width="50" x="78" y="344.2188"/><text fill="#000000" font-family="sans-serif" font-size="14" lengthAdjust="spacing" textLength="3.8896" x="101.0552" y="369.9473">&#160;</text><g class="entity" data-entity="ValidarExistencia" data-uid="ent0006" id="entity_ValidarExistencia"><polygon fill="#F1F1F1" points="103,472.2188,115,484.2188,103,496.2188,91,484.2188,103,472.2188" style="stroke:#181818;stroke-width:0.5;"/></g><ellipse cx="103" cy="246.2188" fill="#222222" rx="10" ry="10" style="stroke:#222222;stroke-width:1;"/><ellipse cx="103" cy="595.2188" fill="none" rx="11" ry="11" style="stroke:#222222;stroke-width:1;"/><ellipse cx="103" cy="595.2188" fill="#222222" rx="6" ry="6" style="stroke:#222222;stroke-width:1;"/><!--link *start*consultarListaAlumnos to SeleccionGrupo--><g class="link" data-entity-1="*start*consultarListaAlumnos" data-entity-2="SeleccionGrupo" data-source-line="25" data-uid="lnk4" id="link_*start*consultarListaAlumnos_SeleccionGrupo"><path d="M103,256.3188 C103,275.1188 103,312.5988 103,337.9288" fill="none" id="*start*consultarListaAlumnos-to-SeleccionGrupo" style="stroke:#008000;stroke-width:1;"/><polygon fill="#008000" points="103,343.9288,107,334.9288,103,338.9288,99,334.9288,103,343.9288" style="stroke:#008000;stroke-width:1;"/><path d="M108,279.2188 L108,321.2188 L281,321.2188 L281,289.2188 L271,279.2188 L108,279.2188" fill="#F5F5F5" style="stroke:#008000;stroke-width:0.5;"/><path d="M271,279.2188 L271,289.2188 L281,289.2188 L271,279.2188" fill="#F5F5F5" style="stroke:#008000;stroke-width:0.5;"/><text fill="#000000" font-family="sans-serif" font-size="13" font-weight="bold" lengthAdjust="spacing" textLength="98.2681" x="114" y="297.7139">Sistema solicita</text><text fill="#000000" font-family="sans-serif" font-size="13" lengthAdjust="spacing" textLength="152.4707" x="114" y="314.0654">Selecci&#243;n de Curso/Grupo</text></g><!--link SeleccionGrupo to ValidarExistencia--><g class="link" data-entity-1="SeleccionGrupo" data-entity-2="ValidarExistencia" data-source-line="31" data-uid="lnk5" id="link_SeleccionGrupo_ValidarExistencia"><path d="M77.96,376.1188 C52.88,387.0388 18,402.2188 18,402.2188 C18,402.2188 18,454.2188 18,454.2188 C18,454.2188 67.361,471.0626 88.861,478.3926" fill="none" id="SeleccionGrupo-to-ValidarExistencia" style="stroke:#008000;stroke-width:1;"/><polygon fill="#008000" points="94.54,480.3288,87.3122,473.6385,89.8075,478.7153,84.7307,481.2105,94.54,480.3288" style="stroke:#008000;stroke-width:1;"/><path d="M23,407.2188 L23,449.2188 L162,449.2188 L162,417.2188 L152,407.2188 L23,407.2188" fill="#F5F5F5" style="stroke:#008000;stroke-width:0.5;"/><path d="M152,407.2188 L152,417.2188 L162,417.2188 L152,407.2188" fill="#F5F5F5" style="stroke:#008000;stroke-width:0.5;"/><text fill="#000000" font-family="sans-serif" font-size="13" font-weight="bold" lengthAdjust="spacing" textLength="118.498" x="29" y="425.7139">Usuario selecciona</text><ellipse cx="34.5" cy="437.4219" fill="#000000" rx="2.5" ry="2.5"/><text fill="#000000" font-family="sans-serif" font-size="13" lengthAdjust="spacing" textLength="70.0972" x="41" y="442.0654">Grado / A&#241;o</text></g><!--link ValidarExistencia to SeleccionGrupo--><g class="link" data-entity-1="ValidarExistencia" data-entity-2="SeleccionGrupo" data-source-line="37" data-uid="lnk6" id="link_ValidarExistencia_SeleccionGrupo"><path d="M110.85,479.6588 C127.94,471.9188 167,454.2188 167,454.2188 C167,454.2188 167,402.2188 167,402.2188 C167,402.2188 151.3735,393.1934 133.4835,382.8434" fill="none" id="ValidarExistencia-to-SeleccionGrupo" style="stroke:#FF0000;stroke-width:1;"/><polygon fill="#FF0000" points="128.29,379.8388,134.0772,387.808,132.6179,382.3426,138.0833,380.8833,128.29,379.8388" style="stroke:#FF0000;stroke-width:1;"/><path d="M172,407.2188 L172,449.2188 L294,449.2188 L294,417.2188 L284,407.2188 L172,407.2188" fill="#F5F5F5" style="stroke:#008000;stroke-width:0.5;"/><path d="M284,407.2188 L284,417.2188 L294,417.2188 L284,407.2188" fill="#F5F5F5" style="stroke:#008000;stroke-width:0.5;"/><text fill="#000000" font-family="sans-serif" font-size="13" font-weight="bold" lengthAdjust="spacing" textLength="101.1436" x="178" y="425.7139">Sistema informa</text><text fill="#000000" font-family="sans-serif" font-size="13" lengthAdjust="spacing" textLength="28.8882" x="178" y="442.0654">Error</text></g><!--link ValidarExistencia to *end*consultarListaAlumnos--><g class="link" data-entity-1="ValidarExistencia" data-entity-2="*end*consultarListaAlumnos" data-source-line="43" data-uid="lnk8" id="link_ValidarExistencia_*end*consultarListaAlumnos"><path d="M103,496.4688 C103,517.7987 103,557.7688 103,578.1388" fill="none" id="ValidarExistencia-to-*end*consultarListaAlumnos" style="stroke:#008000;stroke-width:1;"/><polygon fill="#008000" points="103,584.1388,107,575.1388,103,579.1388,99,575.1388,103,584.1388" style="stroke:#008000;stroke-width:1;"/><path d="M108,519.2188 L108,561.2188 L319,561.2188 L319,529.2188 L309,519.2188 L108,519.2188" fill="#F5F5F5" style="stroke:#008000;stroke-width:0.5;"/><path d="M309,519.2188 L309,529.2188 L319,529.2188 L309,519.2188" fill="#F5F5F5" style="stroke:#008000;stroke-width:0.5;"/><text fill="#000000" font-family="sans-serif" font-size="13" font-weight="bold" lengthAdjust="spacing" textLength="104.0508" x="114" y="537.7139">Sistema muestra</text><text fill="#000000" font-family="sans-serif" font-size="13" lengthAdjust="spacing" textLength="190.0488" x="114" y="554.0654">Listado de alumnos matriculados</text></g><!--link startState to consultarListaAlumnos--><g class="link" data-entity-1="startState" data-entity-2="consultarListaAlumnos" data-source-line="15" data-uid="lnk2" id="link_startState_consultarListaAlumnos"><path d="M167.5,85.8394 C167.5,109.1894 167.5,145.2294 167.5,191.3194" fill="none" id="startState-to-consultarListaAlumnos" style="stroke:#008000;stroke-width:1;"/><polygon fill="#008000" points="167.5,197.3194,171.5,188.3194,167.5,192.3194,163.5,188.3194,167.5,197.3194" style="stroke:#008000;stroke-width:1;"/><path d="M172.5,120.6094 L172.5,162.6094 L311.5,162.6094 L311.5,130.6094 L301.5,120.6094 L172.5,120.6094" fill="#F5F5F5" style="stroke:#008000;stroke-width:0.5;"/><path d="M301.5,120.6094 L301.5,130.6094 L311.5,130.6094 L301.5,120.6094" fill="#F5F5F5" style="stroke:#008000;stroke-width:0.5;"/><text fill="#000000" font-family="sans-serif" font-size="13" font-weight="bold" lengthAdjust="spacing" textLength="118.498" x="178.5" y="139.1045">Usuario selecciona</text><text fill="#000000" font-family="sans-serif" font-size="13" lengthAdjust="spacing" textLength="86.709" x="178.5" y="155.4561">Consultar Lista</text></g><!--link consultarListaAlumnos to endState--><g class="link" data-entity-1="consultarListaAlumnos" data-entity-2="endState" data-source-line="50" data-uid="lnk9" id="link_consultarListaAlumnos_endState"><path d="M167.5,616.6294 C167.5,641.4094 167.5,656.9994 167.5,671.4894" fill="none" id="consultarListaAlumnos-to-endState" style="stroke:#008000;stroke-width:1;"/><polygon fill="#008000" points="167.5,677.4894,171.5,668.4894,167.5,672.4894,163.5,668.4894,167.5,677.4894" style="stroke:#008000;stroke-width:1;"/></g><!--SRC=[dPFXIiCm4CU_vocExPimzWAZq8qnXA5Wfrz494jF5vRcoYLb3l6Xn4VmnKnZIrStPPWFfUrT_lUxVovUUuCm8-iguoN3KZil8JLLOSa9uRRQbf9b0Qy2mheYZrEfjizCbSrdP8XXkDjeZrb1MumvAJFjcj0p8zfk9t6EV1GosgBVbmWbcNtz8Tw4sEWS0OlIxo57frYNNfCDH5vwXF1adyLNwM2mlCnMQVQOJY_dDwlhGPE4DlyzHHn8Z4O9gDQ2w41hW0tKGBP6t4RMoJgvTPLaJU3Ge581Iax6woH6V_We0W7K4YtsoIADjTyPMIkwuAgaI0w3W_YTD3gNF7y90cYLbZ2Pg0rfXKaYOjxznKDigAyKGqVTD1rbjLWXmP7HIlkkdterEfyVDXm4p2fsDEuakmuFSblw6kC8-4-IFxojrmKiMEO4OqW_tqy17DipkXyovW__CqJR9-AYpp0FuytdbGv5mscSLQceq7dkLuf34heDjijcL0hfMQlAXD-kpn2kpEdfgYdQco2-0000]--></g></svg>