<svg xmlns="http://www.w3.org/2000/svg" xmlns:xlink="http://www.w3.org/1999/xlink" contentStyleType="text/css" data-diagram-type="STATE" height="915px" preserveAspectRatio="none" style="width:330px;height:915px;background:#FFFFFF;" version="1.1" viewBox="0 0 330 915" width="330px" zoomAndPan="magnify"><title>Exportar Historial Asistencias</title><defs/><g><g class="title" data-source-line="1"><text fill="#000000" font-family="sans-serif" font-size="14" font-weight="bold" lengthAdjust="spacing" textLength="214.3818" x="47.8091" y="23.5352">Exportar Historial Asistencias</text></g><g id="ASISTENCIAS_ABIERTO_INICIAL"><rect fill="#F1F1F1" height="50" rx="12.5" ry="12.5" style="stroke:#181818;stroke-width:0.5;" width="171.3887" x="76.31" y="44.4883"/><line style="stroke:#181818;stroke-width:0.5;" x1="76.31" x2="247.6987" y1="70.9766" y2="70.9766"/><text fill="#000000" font-family="sans-serif" font-size="14" lengthAdjust="spacing" textLength="151.3887" x="86.31" y="63.0234">ASISTENCIAS_ABIERTO</text></g><g id="ASISTENCIAS_ABIERTO_FINAL"><rect fill="#F1F1F1" height="50" rx="12.5" ry="12.5" style="stroke:#181818;stroke-width:0.5;" width="171.3887" x="76.31" y="859.9783"/><line style="stroke:#181818;stroke-width:0.5;" x1="76.31" x2="247.6987" y1="886.4666" y2="886.4666"/><text fill="#000000" font-family="sans-serif" font-size="14" lengthAdjust="spacing" textLength="151.3887" x="86.31" y="878.5134">ASISTENCIAS_ABIERTO</text></g><path d="M19.5,154.4883 L304.5,154.4883 A12.5,12.5 0 0 1 317,166.9883 L317,180.9766 L7,180.9766 L7,166.9883 A12.5,12.5 0 0 1 19.5,154.4883" fill="#F1F1F1"/><rect fill="none" height="645.4883" rx="12.5" ry="12.5" style="stroke:#181818;stroke-width:0.5;" width="310" x="7" y="154.4883"/><line style="stroke:#181818;stroke-width:0.5;" x1="7" x2="317" y1="180.9766" y2="180.9766"/><text fill="#000000" font-family="sans-serif" font-size="14" lengthAdjust="spacing" textLength="199.9785" x="62.0107" y="173.0234">exportarHistorialAsistencias()</text><g id="exportarHistorialAsistencias.ConfiguracionExportacion"><rect fill="#F1F1F1" height="50" rx="12.5" ry="12.5" style="stroke:#181818;stroke-width:0.5;" width="50" x="19" y="297.9766"/><line style="stroke:#181818;stroke-width:0.5;" x1="19" x2="69" y1="324.4648" y2="324.4648"/><text fill="#000000" font-family="sans-serif" font-size="14" lengthAdjust="spacing" textLength="4.4297" x="41.7852" y="316.5117">&#160;</text></g><g id="exportarHistorialAsistencias.GenerandoArchivo"><rect fill="#F1F1F1" height="50" rx="12.5" ry="12.5" style="stroke:#181818;stroke-width:0.5;" width="50" x="19" y="479.9766"/><line style="stroke:#181818;stroke-width:0.5;" x1="19" x2="69" y1="506.4648" y2="506.4648"/><text fill="#000000" font-family="sans-serif" font-size="14" lengthAdjust="spacing" textLength="4.4297" x="41.7852" y="498.5117">&#160;</text></g><g id="exportarHistorialAsistencias.DescargaLista"><rect fill="#F1F1F1" height="50" rx="12.5" ry="12.5" style="stroke:#181818;stroke-width:0.5;" width="50" x="19" y="646.9766"/><line style="stroke:#181818;stroke-width:0.5;" x1="19" x2="69" y1="673.4648" y2="673.4648"/><text fill="#000000" font-family="sans-serif" font-size="14" lengthAdjust="spacing" textLength="4.4297" x="41.7852" y="665.5117">&#160;</text></g><ellipse cx="44" cy="201.9766" fill="#222222" rx="10" ry="10" style="stroke:#222222;stroke-width:1;"/><ellipse cx="44" cy="778.9766" fill="none" rx="11" ry="11" style="stroke:#222222;stroke-width:1;"/><ellipse cx="44" cy="778.9766" fill="#222222" rx="6" ry="6" style="stroke:#222222;stroke-width:1;"/><!--link *start*exportarHistorialAsistencias to ConfiguracionExportacion--><g class="link" data-entity-1=".start.exportarHistorialAsistencias" data-entity-2="ConfiguracionExportacion" data-source-line="16" data-uid="lnk4" id="link_.start.exportarHistorialAsistencias_ConfiguracionExportacion"><path d="M44,212.3166 C44,230.5066 44,265.2166 44,291.5866" fill="none" id="*start*exportarHistorialAsistencias-to-ConfiguracionExportacion" style="stroke:#008000;stroke-width:1;"/><polygon fill="#008000" points="44,297.5866,48,288.5866,44,292.5866,40,288.5866,44,297.5866" style="stroke:#008000;stroke-width:1;"/><path d="M49,234.9766 L49,274.9766 L277,274.9766 L277,244.9766 L267,234.9766 L49,234.9766" fill="#FEFFDD" style="stroke:#181818;stroke-width:0.5;"/><path d="M267,234.9766 L267,244.9766 L277,244.9766 L267,234.9766" fill="#FEFFDD" style="stroke:#181818;stroke-width:0.5;"/><text fill="#000000" font-family="sans-serif" font-size="13" font-weight="bold" lengthAdjust="spacing" textLength="56.7544" x="55" y="252.5449">Profesor</text><text fill="#000000" font-family="sans-serif" font-size="13" lengthAdjust="spacing" textLength="146.5166" x="115.8677" y="252.5449">selecciona la opci&#243;n de</text><text fill="#000000" font-family="sans-serif" font-size="13" lengthAdjust="spacing" textLength="109.4907" x="55" y="267.8555">exportar historial</text></g><!--link ConfiguracionExportacion to GenerandoArchivo--><g class="link" data-entity-1="ConfiguracionExportacion" data-entity-2="GenerandoArchivo" data-source-line="22" data-uid="lnk5" id="link_ConfiguracionExportacion_GenerandoArchivo"><path d="M44,348.2566 C44,382.6066 44,439.0566 44,473.5066" fill="none" id="ConfiguracionExportacion-to-GenerandoArchivo" style="stroke:#008000;stroke-width:1;"/><polygon fill="#008000" points="44,479.5066,48,470.5066,44,474.5066,40,470.5066,44,479.5066" style="stroke:#008000;stroke-width:1;"/><path d="M49,370.9766 L49,456.9766 L281,456.9766 L281,380.9766 L271,370.9766 L49,370.9766" fill="#FEFFDD" style="stroke:#181818;stroke-width:0.5;"/><path d="M271,370.9766 L271,380.9766 L281,380.9766 L271,370.9766" fill="#FEFFDD" style="stroke:#181818;stroke-width:0.5;"/><text fill="#000000" font-family="sans-serif" font-size="13" font-weight="bold" lengthAdjust="spacing" textLength="52.1396" x="55" y="388.5449">Sistema</text><text fill="#000000" font-family="sans-serif" font-size="13" lengthAdjust="spacing" textLength="124.8457" x="111.2529" y="388.5449">solicita par&#225;metros:</text><text fill="#000000" font-family="sans-serif" font-size="13" lengthAdjust="spacing" textLength="115.1655" x="55" y="403.8555">&#8226; Rango de fechas</text><text fill="#000000" font-family="sans-serif" font-size="13" lengthAdjust="spacing" textLength="148.021" x="55" y="419.166">&#8226; Formato (PDF / Excel)</text><text fill="#000000" font-family="sans-serif" font-size="13" lengthAdjust="spacing" textLength="4.1133" x="55" y="434.4766">&#160;</text><text fill="#000000" font-family="sans-serif" font-size="13" font-weight="bold" lengthAdjust="spacing" textLength="56.7544" x="55" y="449.7871">Profesor</text><text fill="#000000" font-family="sans-serif" font-size="13" lengthAdjust="spacing" textLength="150.2617" x="115.8677" y="449.7871">confirma la exportaci&#243;n</text></g><!--link GenerandoArchivo to DescargaLista--><g class="link" data-entity-1="GenerandoArchivo" data-entity-2="DescargaLista" data-source-line="31" data-uid="lnk6" id="link_GenerandoArchivo_DescargaLista"><path d="M44,530.3266 C44,561.5166 44,609.2866 44,640.5266" fill="none" id="GenerandoArchivo-to-DescargaLista" style="stroke:#008000;stroke-width:1;"/><polygon fill="#008000" points="44,646.5266,48,637.5266,44,641.5266,40,637.5266,44,646.5266" style="stroke:#008000;stroke-width:1;"/><path d="M49,552.9766 L49,623.9766 L290,623.9766 L290,562.9766 L280,552.9766 L49,552.9766" fill="#FEFFDD" style="stroke:#181818;stroke-width:0.5;"/><path d="M280,552.9766 L280,562.9766 L290,562.9766 L280,552.9766" fill="#FEFFDD" style="stroke:#181818;stroke-width:0.5;"/><text fill="#000000" font-family="sans-serif" font-size="13" font-weight="bold" lengthAdjust="spacing" textLength="52.1396" x="55" y="570.5449">Sistema</text><text fill="#000000" font-family="sans-serif" font-size="13" lengthAdjust="spacing" textLength="126.1279" x="111.2529" y="570.5449">procesa la solicitud:</text><text fill="#000000" font-family="sans-serif" font-size="13" lengthAdjust="spacing" textLength="209.9551" x="55" y="585.8555">&#8226; Recopila registros de asistencia</text><text fill="#000000" font-family="sans-serif" font-size="13" lengthAdjust="spacing" textLength="220.0415" x="55" y="601.166">&#8226; Calcula porcentajes de asistencia</text><text fill="#000000" font-family="sans-serif" font-size="13" lengthAdjust="spacing" textLength="183.9424" x="55" y="616.4766">&#8226; Genera el documento f&#237;sico</text></g><!--link DescargaLista to *end*exportarHistorialAsistencias--><g class="link" data-entity-1="DescargaLista" data-entity-2=".end.exportarHistorialAsistencias" data-source-line="39" data-uid="lnk8" id="link_DescargaLista_.end.exportarHistorialAsistencias"><path d="M44,697.3266 C44,719.6266 44,745.5366 44,761.7166" fill="none" id="DescargaLista-to-*end*exportarHistorialAsistencias" style="stroke:#008000;stroke-width:1;"/><polygon fill="#008000" points="44,767.7166,48,758.7166,44,762.7166,40,758.7166,44,767.7166" style="stroke:#008000;stroke-width:1;"/><path d="M49,719.9766 L49,744.9766 L308,744.9766 L308,729.9766 L298,719.9766 L49,719.9766" fill="#FEFFDD" style="stroke:#181818;stroke-width:0.5;"/><path d="M298,719.9766 L298,729.9766 L308,729.9766 L298,719.9766" fill="#FEFFDD" style="stroke:#181818;stroke-width:0.5;"/><text fill="#000000" font-family="sans-serif" font-size="13" font-weight="bold" lengthAdjust="spacing" textLength="52.1396" x="55" y="737.5449">Sistema</text><text fill="#000000" font-family="sans-serif" font-size="13" lengthAdjust="spacing" textLength="181.9429" x="111.2529" y="737.5449">inicia la descarga del archivo</text></g><!--link ASISTENCIAS_ABIERTO_INICIAL to exportarHistorialAsistencias--><g class="link" data-entity-1="ASISTENCIAS_ABIERTO_INICIAL" data-entity-2="exportarHistorialAsistencias" data-source-line="8" data-uid="lnk2" id="link_ASISTENCIAS_ABIERTO_INICIAL_exportarHistorialAsistencias"><path d="M162,94.9583 C162,109.6883 162,124.2383 162,148.2183" fill="none" id="ASISTENCIAS_ABIERTO_INICIAL-to-exportarHistorialAsistencias" style="stroke:#008000;stroke-width:1;"/><polygon fill="#008000" points="162,154.2183,166,145.2183,162,149.2183,158,145.2183,162,154.2183" style="stroke:#008000;stroke-width:1;"/></g><!--link exportarHistorialAsistencias to ASISTENCIAS_ABIERTO_FINAL--><g class="link" data-entity-1="exportarHistorialAsistencias" data-entity-2="ASISTENCIAS_ABIERTO_FINAL" data-source-line="46" data-uid="lnk9" id="link_exportarHistorialAsistencias_ASISTENCIAS_ABIERTO_FINAL"><path d="M162,800.3983 C162,824.3183 162,838.8083 162,853.5083" fill="none" id="exportarHistorialAsistencias-to-ASISTENCIAS_ABIERTO_FINAL" style="stroke:#008000;stroke-width:1;"/><polygon fill="#008000" points="162,859.5083,166,850.5083,162,854.5083,158,850.5083,162,859.5083" style="stroke:#008000;stroke-width:1;"/></g><!--SRC=[ZPJFJjj04CRl-nIZS85AY7k58haXePPGYWWtXD2mdZXRrZlMxgOgGaXzbVRUKnyXRz8dOMmd8GR7mhxidszclj_Esj54Ip3-MRAFwE6h2P6zGGj9a24vRJ0e5HwCAz5Z0TOuYeybGSdsiPh8PiH8aCpIsVLuEagJsLto9HrVNN-xIwUfp2y00mmwzWSzePDqsXUe-ieTtnpadiZT7W-1rcHRi3PNNRzFKrle4nmU3U19AP2doJQGLu96xEOcNthKXjtwVAlXU-KvEVBeCawyNfWV_5vnHa6Zp_52gc9Jw-RJROkpjvnZoSMkQjv3lN1wFxpqFAV0_lJaVWY1BEbAZc0HkDHczSz1HhLuGm-B3NwpxB8wSUDdN_sMoKxIBdEpwdWBRBonDTf41Bc0gzy5HS_XSoty_-iFNA7BMPp2dFH2MhfPdx0lC38SNfvDu4Gkk2Pxf3hXTMLTr1KwRPmBVmVbMu0MNRjB7q4hFMiATU4rvJBRGIFDfP4zJxa42NR5YTkhjnMEqEgbwCIw9XVnE-rJDlw1B6IibuM86UQhly5exg1j0RLGvVPz2D0uWQhvidKk6LZ0dVQ_bdnMglTBt3MmzvUXNW00]--></g></svg>