<svg xmlns="http://www.w3.org/2000/svg" xmlns:xlink="http://www.w3.org/1999/xlink" contentStyleType="text/css" data-diagram-type="STATE" height="771px" preserveAspectRatio="none" style="width:1067px;height:771px;background:#FFFFFF;" version="1.1" viewBox="0 0 1067 771" width="1067px" zoomAndPan="magnify"><title>Diagrama de Estados: Matricula</title><defs/><g><g class="title" data-source-line="1"><text fill="#000000" font-family="sans-serif" font-size="14" font-weight="bold" lengthAdjust="spacing" textLength="252.3076" x="400.6607" y="22.9951">Diagrama de Estados: Matricula</text></g><ellipse cx="496.23" cy="53.2969" fill="#222222" rx="10" ry="10" style="stroke:#222222;stroke-width:1;"/><g id="Borrador"><rect fill="#F1F1F1" height="50" rx="12.5" ry="12.5" style="stroke:#181818;stroke-width:0.5;" width="81.4688" x="455.5" y="124.2969"/><line style="stroke:#181818;stroke-width:0.5;" x1="455.5" x2="536.9688" y1="150.5938" y2="150.5938"/><text fill="#000000" font-family="sans-serif" font-size="14" lengthAdjust="spacing" textLength="61.4688" x="465.5" y="142.292">Borrador</text></g><g id="Enviada"><rect fill="#F1F1F1" height="50" rx="12.5" ry="12.5" style="stroke:#181818;stroke-width:0.5;" width="75.9385" x="458.26" y="251.2969"/><line style="stroke:#181818;stroke-width:0.5;" x1="458.26" x2="534.1985" y1="277.5938" y2="277.5938"/><text fill="#000000" font-family="sans-serif" font-size="14" lengthAdjust="spacing" textLength="55.9385" x="468.26" y="269.292">Enviada</text></g><g id="EnRevision"><rect fill="#F1F1F1" height="50" rx="12.5" ry="12.5" style="stroke:#181818;stroke-width:0.5;" width="96.8564" x="447.8" y="378.2969"/><line style="stroke:#181818;stroke-width:0.5;" x1="447.8" x2="544.6564" y1="404.5938" y2="404.5938"/><text fill="#000000" font-family="sans-serif" font-size="14" lengthAdjust="spacing" textLength="76.8564" x="457.8" y="396.292">EnRevision</text></g><g id="Aprobada"><rect fill="#F1F1F1" height="50" rx="12.5" ry="12.5" style="stroke:#181818;stroke-width:0.5;" width="87.7168" x="144.37" y="505.2969"/><line style="stroke:#181818;stroke-width:0.5;" x1="144.37" x2="232.0868" y1="531.5938" y2="531.5938"/><text fill="#000000" font-family="sans-serif" font-size="14" lengthAdjust="spacing" textLength="67.7168" x="154.37" y="523.292">Aprobada</text></g><g id="Rechazada"><rect fill="#F1F1F1" height="50" rx="12.5" ry="12.5" style="stroke:#181818;stroke-width:0.5;" width="96.8838" x="598.79" y="505.2969"/><line style="stroke:#181818;stroke-width:0.5;" x1="598.79" x2="695.6738" y1="531.5938" y2="531.5938"/><text fill="#000000" font-family="sans-serif" font-size="14" lengthAdjust="spacing" textLength="76.8838" x="608.79" y="523.292">Rechazada</text></g><ellipse cx="413.23" cy="754.2969" fill="none" rx="11" ry="11" style="stroke:#222222;stroke-width:1;"/><ellipse cx="413.23" cy="754.2969" fill="#222222" rx="6" ry="6" style="stroke:#222222;stroke-width:1;"/><g id="Anulada"><rect fill="#F1F1F1" height="50" rx="12.5" ry="12.5" style="stroke:#181818;stroke-width:0.5;" width="77.2578" x="130.6" y="632.2969"/><line style="stroke:#181818;stroke-width:0.5;" x1="130.6" x2="207.8578" y1="658.5938" y2="658.5938"/><text fill="#000000" font-family="sans-serif" font-size="14" lengthAdjust="spacing" textLength="57.2578" x="140.6" y="650.292">Anulada</text></g><g id="Cerrada"><rect fill="#F1F1F1" height="50" rx="12.5" ry="12.5" style="stroke:#181818;stroke-width:0.5;" width="75.9453" x="375.26" y="632.2969"/><line style="stroke:#181818;stroke-width:0.5;" x1="375.26" x2="451.2053" y1="658.5938" y2="658.5938"/><text fill="#000000" font-family="sans-serif" font-size="14" lengthAdjust="spacing" textLength="55.9453" x="385.26" y="650.292">Cerrada</text></g><!--link *start* to Borrador--><g class="link" data-entity-1=".start." data-entity-2="Borrador" data-source-line="3" data-uid="lnk4" id="link_.start._Borrador"><path d="M496.23,63.6569 C496.23,77.5869 496.23,98.2469 496.23,117.9469" fill="none" id="*start*-to-Borrador" style="stroke:#181818;stroke-width:1;"/><polygon fill="#181818" points="496.23,123.9469,500.23,114.9469,496.23,118.9469,492.23,114.9469,496.23,123.9469" style="stroke:#181818;stroke-width:1;"/></g><!--link Borrador to Enviada--><g class="link" data-entity-1="Borrador" data-entity-2="Enviada" data-source-line="5" data-uid="lnk6" id="link_Borrador_Enviada"><path d="M496.23,174.6969 C496.23,196.7169 496.23,222.9569 496.23,244.9569" fill="none" id="Borrador-to-Enviada" style="stroke:#181818;stroke-width:1;"/><polygon fill="#181818" points="496.23,250.9569,500.23,241.9569,496.23,245.9569,492.23,241.9569,496.23,250.9569" style="stroke:#181818;stroke-width:1;"/><text fill="#000000" font-family="sans-serif" font-size="13" lengthAdjust="spacing" textLength="155.0225" x="497.23" y="217.3638">Alumno env&#237;a matr&#237;cula</text></g><!--link Enviada to EnRevision--><g class="link" data-entity-1="Enviada" data-entity-2="EnRevision" data-source-line="6" data-uid="lnk8" id="link_Enviada_EnRevision"><path d="M496.23,301.6969 C496.23,323.7169 496.23,349.9569 496.23,371.9569" fill="none" id="Enviada-to-EnRevision" style="stroke:#181818;stroke-width:1;"/><polygon fill="#181818" points="496.23,377.9569,500.23,368.9569,496.23,372.9569,492.23,368.9569,496.23,377.9569" style="stroke:#181818;stroke-width:1;"/><text fill="#000000" font-family="sans-serif" font-size="13" lengthAdjust="spacing" textLength="312.3555" x="497.23" y="344.3638">Secretar&#237;a Acad&#233;mica recibe y toma en revisi&#243;n</text></g><!--link EnRevision to Aprobada--><g class="link" data-entity-1="EnRevision" data-entity-2="Aprobada" data-source-line="8" data-uid="lnk10" id="link_EnRevision_Aprobada"><path d="M447.55,407.5069 C375.34,413.2269 244.64,427.5969 210.23,458.2969 C197.14,469.9769 192.5698,483.3445 190.3998,498.8845" fill="none" id="EnRevision-to-Aprobada" style="stroke:#181818;stroke-width:1;"/><polygon fill="#181818" points="189.57,504.8269,194.7762,496.4665,190.2615,499.8749,186.8531,495.3602,189.57,504.8269" style="stroke:#181818;stroke-width:1;"/><text fill="#000000" font-family="sans-serif" font-size="13" lengthAdjust="spacing" textLength="266.4365" x="211.23" y="471.3638">Secretar&#237;a Acad&#233;mica aprueba matr&#237;cula</text></g><!--link EnRevision to Rechazada--><g class="link" data-entity-1="EnRevision" data-entity-2="Rechazada" data-source-line="9" data-uid="lnk12" id="link_EnRevision_Rechazada"><path d="M488.17,428.7869 C484.9,443.5469 483.81,462.0169 493.23,475.2969 C516.91,508.6969 556.9761,520.7785 592.5661,525.6785" fill="none" id="EnRevision-to-Rechazada" style="stroke:#181818;stroke-width:1;"/><polygon fill="#181818" points="598.51,526.4969,590.1397,521.3067,593.5567,525.8149,589.0485,529.232,598.51,526.4969" style="stroke:#181818;stroke-width:1;"/><text fill="#000000" font-family="sans-serif" font-size="13" lengthAdjust="spacing" textLength="263.9038" x="494.23" y="471.3638">Secretar&#237;a Acad&#233;mica rechaza matr&#237;cula</text></g><!--link Rechazada to EnRevision--><g class="link" data-entity-1="Rechazada" data-entity-2="EnRevision" data-source-line="11" data-uid="lnk13" id="link_Rechazada_EnRevision"><path d="M695.98,518.4469 C737.01,507.0569 785.54,486.8169 762.23,458.2969 C735.32,425.3669 620.1044,412.4596 550.9544,407.4596" fill="none" id="Rechazada-to-EnRevision" style="stroke:#181818;stroke-width:1;"/><polygon fill="#181818" points="544.97,407.0269,553.6581,411.6655,549.957,407.3875,554.235,403.6864,544.97,407.0269" style="stroke:#181818;stroke-width:1;"/><text fill="#000000" font-family="sans-serif" font-size="13" lengthAdjust="spacing" textLength="290.3989" x="769.23" y="471.3638">Alumno corrige y Secretar&#237;a vuelve a revisar</text></g><!--link Rechazada to *end*--><g class="link" data-entity-1="Rechazada" data-entity-2=".end." data-source-line="12" data-uid="lnk15" id="link_Rechazada_.end."><path d="M636.59,555.5069 C629.52,569.9969 619.33,588.2569 607.23,602.2969 C547.61,671.4869 457.27,727.4719 427.54,744.9819" fill="none" id="Rechazada-to-*end*" style="stroke:#181818;stroke-width:1;"/><polygon fill="#181818" points="422.37,748.0269,432.1549,746.9061,426.6783,745.4894,428.095,740.0128,422.37,748.0269" style="stroke:#181818;stroke-width:1;"/><text fill="#000000" font-family="sans-serif" font-size="13" lengthAdjust="spacing" textLength="229.4868" x="577.23" y="661.8638">Alumno no corrige o vence el plazo</text></g><!--link Aprobada to Anulada--><g class="link" data-entity-1="Aprobada" data-entity-2="Anulada" data-source-line="14" data-uid="lnk17" id="link_Aprobada_Anulada"><path d="M143.97,533.3969 C107.6,537.7369 58.15,550.2169 33.23,585.2969 C6,623.6169 75.0527,641.8542 124.2327,650.1042" fill="none" id="Aprobada-to-Anulada" style="stroke:#181818;stroke-width:1;"/><polygon fill="#181818" points="130.15,651.0969,121.9358,645.663,125.2189,650.2697,120.6123,653.5528,130.15,651.0969" style="stroke:#181818;stroke-width:1;"/><text fill="#000000" font-family="sans-serif" font-size="13" lengthAdjust="spacing" textLength="335.7466" x="34.23" y="598.3638">Alumno solicita baja y Secretar&#237;a registra anulaci&#243;n</text></g><!--link Aprobada to Cerrada--><g class="link" data-entity-1="Aprobada" data-entity-2="Cerrada" data-source-line="15" data-uid="lnk19" id="link_Aprobada_Cerrada"><path d="M232.46,534.5669 C273.18,539.6169 333.3,552.4969 374.23,585.2969 C389.16,597.2569 397.006,610.9743 403.176,626.4343" fill="none" id="Aprobada-to-Cerrada" style="stroke:#181818;stroke-width:1;"/><polygon fill="#181818" points="405.4,632.0069,405.7791,622.1653,403.5467,627.363,398.3489,625.1306,405.4,632.0069" style="stroke:#181818;stroke-width:1;"/><text fill="#000000" font-family="sans-serif" font-size="13" lengthAdjust="spacing" textLength="209.6631" x="389.23" y="598.3638">Fin de curso, matr&#237;cula se cierra</text></g><!--link Anulada to *end*--><g class="link" data-entity-1="Anulada" data-entity-2=".end." data-source-line="17" data-uid="lnk20" id="link_Anulada_.end."><path d="M208.16,673.4569 C265.75,695.8769 364.7689,734.4298 397.5389,747.1898" fill="none" id="Anulada-to-*end*" style="stroke:#181818;stroke-width:1;"/><polygon fill="#181818" points="403.13,749.3669,396.1947,742.3739,398.4708,747.5527,393.292,749.8287,403.13,749.3669" style="stroke:#181818;stroke-width:1;"/></g><!--link Cerrada to *end*--><g class="link" data-entity-1="Cerrada" data-entity-2=".end." data-source-line="18" data-uid="lnk21" id="link_Cerrada_.end."><path d="M413.23,682.7569 C413.23,702.3369 413.23,722.7869 413.23,737.0969" fill="none" id="Cerrada-to-*end*" style="stroke:#181818;stroke-width:1;"/><polygon fill="#181818" points="413.23,743.0969,417.23,734.0969,413.23,738.0969,409.23,734.0969,413.23,743.0969" style="stroke:#181818;stroke-width:1;"/></g><!--SRC=[VP8zJiGm48Lxds9gn5vW2wG0IqUpb8XYuep28CUEneubzaOKMt64N0mxFvji4BYonlC-lNdZmC4GF3BMWWr2HN3m0Ildz_2CGLXt1fLwlNc3tUuExfr8UXIbvXiCzOEDZ1L2FdieJDTO1sHZVqPe4gO_3vobRHGTAR9dPxFeXRHGGCcIGcFLVpMi4OGqbmIV45ooHpOLigR_jagj09bNjEBA4Vyd3blfgDoOkg8SIR_ZQS3yPohth2YWr2ByFToKY4wXSPsdMODZHoOIu3WQoeQKiv_FXRI2EOXaDG4PQ0sUd59B44CiDldRxiOxmve3GeaVkF4ZLBCFaiBAIZraVOryeBpy6Vd4DlyRtObtj-jCV2foRasMBYQcaTJ2c2e_]--></g></svg>