<svg xmlns="http://www.w3.org/2000/svg" xmlns:xlink="http://www.w3.org/1999/xlink" contentStyleType="text/css" data-diagram-type="STATE" height="537px" preserveAspectRatio="none" style="width:220px;height:537px;background:#FFFFFF;" version="1.1" viewBox="0 0 220 537" width="220px" zoomAndPan="magnify"><title>Diagrama de Estados: Grado</title><defs/><g><text fill="#000000" font-family="sans-serif" font-size="14" font-weight="bold" lengthAdjust="spacing" textLength="192.165" x="10" y="24.5332">Diagrama de Estados: Grado</text><g id="Creado"><rect fill="#F1F1F1" height="50" rx="12.5" ry="12.5" style="stroke:#181818;stroke-width:0.5;" width="65.917" x="45.5308" y="142.6094"/><line style="stroke:#181818;stroke-width:0.5;" x1="45.5308" x2="111.4478" y1="170.2188" y2="170.2188"/><text fill="#000000" font-family="sans-serif" font-size="14" lengthAdjust="spacing" textLength="45.917" x="55.5308" y="162.1426">Creado</text></g><g id="EnCurso"><rect fill="#F1F1F1" height="50" rx="12.5" ry="12.5" style="stroke:#181818;stroke-width:0.5;" width="74.4688" x="41.5308" y="270.6094"/><line style="stroke:#181818;stroke-width:0.5;" x1="41.5308" x2="115.9995" y1="298.2188" y2="298.2188"/><text fill="#000000" font-family="sans-serif" font-size="14" lengthAdjust="spacing" textLength="54.4688" x="51.5308" y="290.1426">EnCurso</text></g><g id="Finalizado"><rect fill="#F1F1F1" height="50" rx="12.5" ry="12.5" style="stroke:#181818;stroke-width:0.5;" width="83.8135" x="36.5308" y="398.6094"/><line style="stroke:#181818;stroke-width:0.5;" x1="36.5308" x2="120.3442" y1="426.2188" y2="426.2188"/><text fill="#000000" font-family="sans-serif" font-size="14" lengthAdjust="spacing" textLength="63.8135" x="46.5308" y="418.1426">Finalizado</text></g><ellipse cx="78.5308" cy="54.6094" fill="#222222" rx="10" ry="10" style="stroke:#222222;stroke-width:1;"/><ellipse cx="78.5308" cy="520.6094" fill="none" rx="11" ry="11" style="stroke:#222222;stroke-width:1;"/><ellipse cx="78.5308" cy="520.6094" fill="#222222" rx="6" ry="6" style="stroke:#222222;stroke-width:1;"/><!--link *start* to Creado--><g class="link" data-entity-1="*start*" data-entity-2="Creado" data-source-line="7" data-uid="lnk3" id="link_*start*_Creado"><path d="M78.5308,64.6894 C78.5308,81.4694 78.5308,111.8294 78.5308,136.2594" fill="none" id="*start*-to-Creado" style="stroke:#181818;stroke-width:1;"/><polygon fill="#181818" points="78.5308,142.2594,82.5308,133.2594,78.5308,137.2594,74.5308,133.2594,78.5308,142.2594" style="stroke:#181818;stroke-width:1;"/><text fill="#000000" font-family="sans-serif" font-size="13" lengthAdjust="spacing" textLength="108.3799" x="79.5308" y="109.1045">Inicio del semestre</text></g><!--link Creado to EnCurso--><g class="link" data-entity-1="Creado" data-entity-2="EnCurso" data-source-line="8" data-uid="lnk4" id="link_Creado_EnCurso"><path d="M78.5308,192.8994 C78.5308,215.2194 78.5308,242.0994 78.5308,264.3894" fill="none" id="Creado-to-EnCurso" style="stroke:#181818;stroke-width:1;"/><polygon fill="#181818" points="78.5308,270.3894,82.5308,261.3894,78.5308,265.3894,74.5308,261.3894,78.5308,270.3894" style="stroke:#181818;stroke-width:1;"/><text fill="#000000" font-family="sans-serif" font-size="13" lengthAdjust="spacing" textLength="109.1035" x="79.5308" y="237.1045">Semestre en curso</text></g><!--link EnCurso to Finalizado--><g class="link" data-entity-1="EnCurso" data-entity-2="Finalizado" data-source-line="9" data-uid="lnk5" id="link_EnCurso_Finalizado"><path d="M78.5308,320.8994 C78.5308,343.2194 78.5308,370.0994 78.5308,392.3894" fill="none" id="EnCurso-to-Finalizado" style="stroke:#181818;stroke-width:1;"/><polygon fill="#181818" points="78.5308,398.3894,82.5308,389.3894,78.5308,393.3894,74.5308,389.3894,78.5308,398.3894" style="stroke:#181818;stroke-width:1;"/><text fill="#000000" font-family="sans-serif" font-size="13" lengthAdjust="spacing" textLength="96.0908" x="79.5308" y="365.1045">Fin del semestre</text></g><!--link Finalizado to *end*--><g class="link" data-entity-1="Finalizado" data-entity-2="*end*" data-source-line="10" data-uid="lnk7" id="link_Finalizado_*end*"><path d="M78.5308,449.0694 C78.5308,468.6494 78.5308,489.0994 78.5308,503.4094" fill="none" id="Finalizado-to-*end*" style="stroke:#181818;stroke-width:1;"/><polygon fill="#181818" points="78.5308,509.4094,82.5308,500.4094,78.5308,504.4094,74.5308,500.4094,78.5308,509.4094" style="stroke:#181818;stroke-width:1;"/></g><!--SRC=[LOun2iCm34Ltd-BFXLmWGvSqBPqxbWuc4KNWE22fIqzVEN5eCfd7VppPs1BXml4jSOeO2RrQ76TjSHD_Gt0qGYTKQ8K-Tn_HZQwSO-Bl8ZzFBpJDkUfeSSyyyEpT1AM9r8H27OjNIou-wWhA69RwjXNlVyDLXsDmjnRPFn5-]--></g></svg>