<svg xmlns="http://www.w3.org/2000/svg" xmlns:xlink="http://www.w3.org/1999/xlink" contentStyleType="text/css" data-diagram-type="STATE" height="742px" preserveAspectRatio="none" style="width:496px;height:742px;background:#FFFFFF;" version="1.1" viewBox="0 0 496 742" width="496px" zoomAndPan="magnify"><title>Consultar Lista Alumnos</title><defs/><g><g class="title" data-source-line="1"><text fill="#000000" font-family="sans-serif" font-size="14" font-weight="bold" lengthAdjust="spacing" textLength="192.0488" x="141.9756" y="22.9951">Consultar Lista Alumnos</text></g><rect fill="#F1F1F1" height="40" rx="12.5" ry="12.5" style="stroke:#181818;stroke-width:0.5;" width="126.2861" x="182" y="44.2969"/><text fill="#000000" font-family="sans-serif" font-size="14" lengthAdjust="spacing" textLength="116.2861" x="187" y="69.1436">LISTAS_ABIERTO</text><rect fill="#F1F1F1" height="40" rx="12.5" ry="12.5" style="stroke:#181818;stroke-width:0.5;" width="126.2861" x="182" y="696.2969"/><text fill="#000000" font-family="sans-serif" font-size="14" lengthAdjust="spacing" textLength="116.2861" x="187" y="721.1436">LISTAS_ABIERTO</text><path d="M19.5,194.2969 L470.5,194.2969 A12.5,12.5 0 0 1 483,206.7969 L483,220.5938 L7,220.5938 L7,206.7969 A12.5,12.5 0 0 1 19.5,194.2969" fill="#F1F1F1"/><rect fill="none" height="441.2969" rx="12.5" ry="12.5" style="stroke:#181818;stroke-width:0.5;" width="476" x="7" y="194.2969"/><line style="stroke:#181818;stroke-width:0.5;" x1="7" x2="483" y1="220.5938" y2="220.5938"/><text fill="#000000" font-family="sans-serif" font-size="14" lengthAdjust="spacing" textLength="151.4844" x="169.2578" y="212.292">consultarListaAlumno</text><rect fill="#F1F1F1" height="40" rx="12.5" ry="12.5" style="stroke:#181818;stroke-width:0.5;" width="50" x="84" y="337.5938"/><text fill="#000000" font-family="sans-serif" font-size="14" lengthAdjust="spacing" textLength="4.4502" x="106.7749" y="362.4404">&#160;</text><g class="entity" data-entity="ValidarConsulta" data-uid="ent0006" id="entity_ValidarConsulta"><polygon fill="#F1F1F1" points="109,493.5938,121,505.5938,109,517.5938,97,505.5938,109,493.5938" style="stroke:#181818;stroke-width:0.5;"/></g><ellipse cx="109" cy="241.5938" fill="#222222" rx="10" ry="10" style="stroke:#222222;stroke-width:1;"/><ellipse cx="109" cy="614.5938" fill="none" rx="11" ry="11" style="stroke:#222222;stroke-width:1;"/><ellipse cx="109" cy="614.5938" fill="#222222" rx="6" ry="6" style="stroke:#222222;stroke-width:1;"/><!--link *start*consultarListaAlumno to SolicitudFiltros--><g class="link" data-entity-1=".start.consultarListaAlumno" data-entity-2="SolicitudFiltros" data-source-line="26" data-uid="lnk4" id="link_.start.consultarListaAlumno_SolicitudFiltros"><path d="M109,251.9237 C109,270.5338 109,306.6138 109,331.3738" fill="none" id="*start*consultarListaAlumno-to-SolicitudFiltros" style="stroke:#008000;stroke-width:1;"/><polygon fill="#008000" points="109,337.3738,113,328.3738,109,332.3738,105,328.3738,109,337.3738" style="stroke:#008000;stroke-width:1;"/><path d="M114,274.5938 L114,314.5938 L367,314.5938 L367,284.5938 L357,274.5938 L114,274.5938" fill="#F5F5F5" style="stroke:#008000;stroke-width:0.5;"/><path d="M357,274.5938 L357,284.5938 L367,284.5938 L357,274.5938" fill="#F5F5F5" style="stroke:#008000;stroke-width:0.5;"/><text fill="#000000" font-family="sans-serif" font-size="13" font-weight="bold" lengthAdjust="spacing" textLength="181.8286" x="120" y="291.6606">Sistema solicita criterios</text><ellipse cx="125.5" cy="302.3594" fill="#000000" rx="2.5" ry="2.5"/><text fill="#000000" font-family="sans-serif" font-size="13" lengthAdjust="spacing" textLength="220.689" x="132" y="306.7935">Identificaci&#243;n: Profesor/Secretaria</text></g><!--link SolicitudFiltros to ValidarConsulta--><g class="link" data-entity-1="SolicitudFiltros" data-entity-2="ValidarConsulta" data-source-line="32" data-uid="lnk5" id="link_SolicitudFiltros_ValidarConsulta"><path d="M83.65,368.9038 C56.73,379.8438 18,395.5938 18,395.5938 C18,395.5938 18,475.5938 18,475.5938 C18,475.5938 72.3533,492.9119 94.8833,500.0919" fill="none" id="SolicitudFiltros-to-ValidarConsulta" style="stroke:#008000;stroke-width:1;"/><polygon fill="#008000" points="100.6,501.9138,93.2395,495.3698,95.8361,500.3955,90.8104,502.9921,100.6,501.9138" style="stroke:#008000;stroke-width:1;"/><path d="M23,408.0938 L23,463.0938 L174,463.0938 L174,418.0938 L164,408.0938 L23,408.0938" fill="#F5F5F5" style="stroke:#008000;stroke-width:0.5;"/><path d="M164,408.0938 L164,418.0938 L174,418.0938 L164,408.0938" fill="#F5F5F5" style="stroke:#008000;stroke-width:0.5;"/><text fill="#000000" font-family="sans-serif" font-size="13" font-weight="bold" lengthAdjust="spacing" textLength="130.9966" x="29" y="425.1606">Usuario introduce</text><ellipse cx="34.5" cy="435.8594" fill="#000000" rx="2.5" ry="2.5"/><text fill="#000000" font-family="sans-serif" font-size="13" lengthAdjust="spacing" textLength="70.3828" x="41" y="440.2935">Asignatura</text><ellipse cx="34.5" cy="450.9922" fill="#000000" rx="2.5" ry="2.5"/><text fill="#000000" font-family="sans-serif" font-size="13" lengthAdjust="spacing" textLength="85.0586" x="41" y="455.4263">A&#241;o de curso</text></g><!--link ValidarConsulta to SolicitudFiltros--><g class="link" data-entity-1="ValidarConsulta" data-entity-2="SolicitudFiltros" data-source-line="40" data-uid="lnk6" id="link_ValidarConsulta_SolicitudFiltros"><path d="M117.03,501.2638 C135.42,493.6538 179,475.5938 179,475.5938 C179,475.5938 179,395.5938 179,395.5938 C179,395.5938 159.6243,385.358 139.5743,374.758" fill="none" id="ValidarConsulta-to-SolicitudFiltros" style="stroke:#FF0000;stroke-width:1;"/><polygon fill="#FF0000" points="134.27,371.9538,140.357,379.6964,138.6903,374.2907,144.096,372.624,134.27,371.9538" style="stroke:#FF0000;stroke-width:1;"/><path d="M184,400.5938 L184,470.5938 L474,470.5938 L474,410.5938 L464,400.5938 L184,400.5938" fill="#F5F5F5" style="stroke:#008000;stroke-width:0.5;"/><path d="M464,400.5938 L464,410.5938 L474,410.5938 L464,400.5938" fill="#F5F5F5" style="stroke:#008000;stroke-width:0.5;"/><text fill="#000000" font-family="sans-serif" font-size="13" font-weight="bold" lengthAdjust="spacing" textLength="112.8677" x="190" y="417.6606">Sistema valida:</text><ellipse cx="195.5" cy="428.3594" fill="#000000" rx="2.5" ry="2.5"/><text fill="#000000" font-family="sans-serif" font-size="13" lengthAdjust="spacing" textLength="190.7153" x="202" y="432.7935">Existencia de Asignatura/A&#241;o</text><text fill="#000000" font-family="sans-serif" font-size="13" font-weight="bold" lengthAdjust="spacing" textLength="91.5522" x="190" y="447.9263">Si hay error:</text><text fill="#000000" font-family="sans-serif" font-size="13" lengthAdjust="spacing" textLength="269.5088" x="190" y="463.0591">Sistema informa error y vuelve a solicitar</text></g><!--link ValidarConsulta to *end*consultarListaAlumno--><g class="link" data-entity-1="ValidarConsulta" data-entity-2=".end.consultarListaAlumno" data-source-line="49" data-uid="lnk8" id="link_ValidarConsulta_.end.consultarListaAlumno"><path d="M109,517.6438 C109,538.4638 109,577.2338 109,597.3938" fill="none" id="ValidarConsulta-to-*end*consultarListaAlumno" style="stroke:#008000;stroke-width:1;"/><polygon fill="#008000" points="109,603.3938,113,594.3938,109,598.3938,105,594.3938,109,603.3938" style="stroke:#008000;stroke-width:1;"/><path d="M114,540.5938 L114,580.5938 L327,580.5938 L327,550.5938 L317,540.5938 L114,540.5938" fill="#F5F5F5" style="stroke:#008000;stroke-width:0.5;"/><path d="M317,540.5938 L317,550.5938 L327,550.5938 L317,540.5938" fill="#F5F5F5" style="stroke:#008000;stroke-width:0.5;"/><text fill="#000000" font-family="sans-serif" font-size="13" font-weight="bold" lengthAdjust="spacing" textLength="124.1855" x="120" y="557.6606">Sistema muestra</text><text fill="#000000" font-family="sans-serif" font-size="13" lengthAdjust="spacing" textLength="192.8037" x="120" y="572.7935">Listas de alumno consultadas</text></g><!--link startState to consultarListaAlumno--><g class="link" data-entity-1="startState" data-entity-2="consultarListaAlumno" data-source-line="16" data-uid="lnk2" id="link_startState_consultarListaAlumno"><path d="M245,84.5269 C245,107.5069 245,142.5869 245,188.1169" fill="none" id="startState-to-consultarListaAlumno" style="stroke:#008000;stroke-width:1;"/><polygon fill="#008000" points="245,194.1169,249,185.1169,245,189.1169,241,185.1169,245,194.1169" style="stroke:#008000;stroke-width:1;"/><path d="M250,119.2969 L250,159.2969 L449,159.2969 L449,129.2969 L439,119.2969 L250,119.2969" fill="#F5F5F5" style="stroke:#008000;stroke-width:0.5;"/><path d="M439,119.2969 L439,129.2969 L449,129.2969 L439,119.2969" fill="#F5F5F5" style="stroke:#008000;stroke-width:0.5;"/><text fill="#000000" font-family="sans-serif" font-size="13" font-weight="bold" lengthAdjust="spacing" textLength="113.3755" x="256" y="136.3638">Usuario solicita</text><text fill="#000000" font-family="sans-serif" font-size="13" lengthAdjust="spacing" textLength="178.0137" x="256" y="151.4966">Consultar Lista de Alumnos</text></g><!--link consultarListaAlumno to endState--><g class="link" data-entity-1="consultarListaAlumno" data-entity-2="endState" data-source-line="56" data-uid="lnk9" id="link_consultarListaAlumno_endState"><path d="M245,635.4269 C245,660.2969 245,675.8569 245,690.2769" fill="none" id="consultarListaAlumno-to-endState" style="stroke:#008000;stroke-width:1;"/><polygon fill="#008000" points="245,696.2769,249,687.2769,245,691.2769,241,687.2769,245,696.2769" style="stroke:#008000;stroke-width:1;"/></g><!--SRC=[dPJ1Rjf048RlVeeHERIDXBX72CaW8b6XKCKaboYADhi3ZB1tqUoQ15KzzDZ7gVe8l5XtrvY0eMbL7p3s_9xz_jyxTkHoX87HjioTO1YJTGBIl2oqiKcIs2NfbM1HmDS4_75Z7FQ5NCxPb5eDJ6uOBbuMv30hp1AZ9cKsBxlId17rsvE65V99AIUDRhD2M9by4owIRqco88M0nSfjGA6LJ2j7HdiY9no2_sMNnR_2GciyogPfzfJsHyFRwQIr4w5MVvOa1otQxHx8EeCOGPL0eZqq61q8bn6r-zoxiwLWCc1DJfASw7QUUx7MJD7prq5w4WYzQlnpY-qIhWHPrRnKrvGxDZPQWDQ1ubxaf0JNYqAtAnU69FPwILGzN3v6NyrEiNZYQ-SjypXOYBqtyBaxz6xjtcKuBc6aK3kQaHIIjh_q5NnXCqDhk9EXPFJEI4Jvc_DmTM8h43QSl0jOXq_QFwvAYGskrD9S2rUoEBov_Md2sv0bMtE6weF7QCFr-Exp1DBnT7Xxaqv7znFuEFGxcJ-5QjGr8sy_N32gn_yDUHtRNJKS35z3MKkgDj3UJoUuE6u32x4138p7JUe5ICyC-tEKm0RM9UPhFmtxryj_2QE__PwD1Zw8xOzNSkQT97m6ViFza-sYHEjO7177CR31iAXceHuG9Umne_yod1sUG53F-sy0]--></g></svg>