<svg xmlns="http://www.w3.org/2000/svg" xmlns:xlink="http://www.w3.org/1999/xlink" version="1.1" data-diagram-type="STATE" style="width:888px;height:1156px;background:#FFFFFF;" width="888px" height="1156px" viewBox="0 0 888 1156" zoomAndPan="magnify" preserveAspectRatio="none" contentStyleType="text/css"><?plantuml 1.2026.7beta3?><defs/><g><g class="title" data-source-line="1"><text x="320.6119" y="32.9951" fill="#000000" font-size="14" lengthAdjust="spacing" textLength="239.832" font-weight="700" font-family="sans-serif">Consultar detalle de matrícula</text></g><rect x="3" y="60.2969" width="872.0559" height="16.6406" fill="#FFFFCC" style="stroke:#FFDD88;stroke-width:3;" rx="2.5" ry="2.5"/><text x="10" y="70.9375" fill="#000000" font-size="10" lengthAdjust="spacing" textLength="295.0049" font-family="monospace">Please use CSS style instead of skinparam padding</text><g class="entity" data-qualified-name="MATRICULAS_ABIERTO_INICIAL" id="ent0001" data-source-line="10"><rect x="460.6" y="204.9375" width="198.8057" height="76.2969" fill="#F1F1F1" style="stroke:#181818;stroke-width:0.5;" rx="12.5" ry="12.5"/><line x1="460.6" y1="251.2344" x2="659.4057" y2="251.2344" style="stroke:#181818;stroke-width:0.5;"/><text x="480.6" y="232.9326" fill="#000000" font-size="14" lengthAdjust="spacing" textLength="158.8057" font-family="sans-serif">MATRICULAS_ABIERTO</text></g><g class="entity" data-qualified-name="MATRICULA_ABIERTA_COMP" id="ent0002" data-source-line="11"><path d="M259.44,381.2375 L860.5559,381.2375 A12.5,12.5 0 0 1 873.0559,393.7375 L873.0559,427.5344 L246.94,427.5344 L246.94,393.7375 A12.5,12.5 0 0 1 259.44,381.2375" fill="#F1F1F1"/><rect x="246.94" y="381.2375" width="626.1159" height="260.5969" fill="none" style="stroke:#181818;stroke-width:0.5;" rx="12.5" ry="12.5"/><line x1="246.94" y1="427.5344" x2="873.0559" y2="427.5344" style="stroke:#181818;stroke-width:0.5;"/><text x="485.7596" y="409.2326" fill="#000000" font-size="14" lengthAdjust="spacing" textLength="148.4766" font-family="sans-serif">MATRICULA_ABIERTA</text><g class="entity" data-qualified-name="MATRICULA_ABIERTA_COMP.ConsultaDetalle" id="ent0004" data-source-line="26"><rect x="258.94" y="494.5344" width="181.4834" height="76.2969" fill="#F1F1F1" style="stroke:#181818;stroke-width:0.5;" rx="12.5" ry="12.5"/><line x1="258.94" y1="540.8313" x2="440.4234" y2="540.8313" style="stroke:#181818;stroke-width:0.5;"/><text x="278.94" y="522.5295" fill="#000000" font-size="14" lengthAdjust="spacing" textLength="141.4834" font-family="sans-serif">Consulta del Detalle</text></g><g class="start_entity" data-qualified-name="MATRICULA_ABIERTA_COMP..start.MATRICULA_ABIERTA_COMP" id="ent0008" data-source-line="29"><ellipse cx="349.68" cy="448.5344" rx="10" ry="10" fill="#222222" style="stroke:#222222;stroke-width:1;"/></g><g class="end_entity" data-qualified-name="MATRICULA_ABIERTA_COMP..end.MATRICULA_ABIERTA_COMP" id="ent0010" data-source-line="38"><ellipse cx="349.68" cy="617.8344" rx="11" ry="11" fill="none" style="stroke:#222222;stroke-width:1;"/><ellipse cx="349.68" cy="617.8344" rx="6" ry="6" fill="#222222" style="stroke:#222222;stroke-width:1;"/></g><g class="entity" data-qualified-name="MATRICULA_ABIERTA_COMP.GMN15" id="ent0016" data-source-line="33"><path d="M458.3,502.5544 L458.3,528.8344 L440.89,532.8344 L458.3,536.8344 L458.3,562.82 A0,0 0 0 0 458.3,562.82 L849.0559,562.82 A0,0 0 0 0 849.0559,562.82 L849.0559,512.5544 L839.0559,502.5544 L458.3,502.5544 A0,0 0 0 0 458.3,502.5544" style="stroke:#181818;stroke-width:0.5;" fill="#FEFFDD"/><path d="M839.0559,502.5544 L839.0559,512.5544 L849.0559,512.5544 L839.0559,502.5544" style="stroke:#181818;stroke-width:0.5;" fill="#FEFFDD"/><text x="474.3" y="529.6213" fill="#000000" font-size="13" lengthAdjust="spacing" textLength="120.999" font-weight="700" font-family="sans-serif">Sistema permite</text><text x="599.4313" y="529.6213" fill="#000000" font-size="13" lengthAdjust="spacing" textLength="224.6245" font-family="sans-serif">retornar todos los datos asociados</text><text x="474.3" y="544.7541" fill="#000000" font-size="13" lengthAdjust="spacing" textLength="294.3535" font-family="sans-serif">a la matrícula seleccionada para su consulta.</text></g><!--link *start*MATRICULA_ABIERTA_COMP to ConsultaDetalle--><g class="link" data-entity-1="ent0008" data-entity-2="ent0004" id="lnk9" data-source-line="29" data-link-type="dependency"><path d="M349.68,458.8544 C349.68,467.8044 349.68,476.3444 349.68,489.3944" style="stroke:#008000;stroke-width:1;" fill="none" id="*start*MATRICULA_ABIERTA_COMP-to-ConsultaDetalle"/><polygon points="349.68,494.3944,353.68,485.3944,349.68,489.3944,345.68,485.3944,349.68,494.3944" fill="#008000" style="stroke:#008000;stroke-width:1;stroke-linejoin:miter;stroke-miterlimit:10;"/></g><!--link ConsultaDetalle to *end*MATRICULA_ABIERTA_COMP--><g class="link" data-entity-1="ent0004" data-entity-2="ent0010" id="lnk11" data-source-line="38" data-link-type="dependency"><path d="M349.68,571.2744 C349.68,584.1244 349.68,592.4644 349.68,601.5444" style="stroke:#008000;stroke-width:1;" fill="none" id="ConsultaDetalle-to-*end*MATRICULA_ABIERTA_COMP"/><polygon points="349.68,606.5444,353.68,597.5444,349.68,601.5444,345.68,597.5444,349.68,606.5444" fill="#008000" style="stroke:#008000;stroke-width:1;stroke-linejoin:miter;stroke-miterlimit:10;"/></g></g><g class="entity" data-qualified-name="MATRICULAS_ABIERTO_FINAL" id="ent0003" data-source-line="12"><rect x="460.6" y="943.8275" width="198.8057" height="76.2969" fill="#F1F1F1" style="stroke:#181818;stroke-width:0.5;" rx="12.5" ry="12.5"/><line x1="460.6" y1="990.1244" x2="659.4057" y2="990.1244" style="stroke:#181818;stroke-width:0.5;"/><text x="480.6" y="971.8226" fill="#000000" font-size="14" lengthAdjust="spacing" textLength="158.8057" font-family="sans-serif">MATRICULAS_ABIERTO</text></g><g class="start_entity" data-qualified-name=".start." id="ent0005" data-source-line="15"><ellipse cx="560" cy="94.9375" rx="10" ry="10" fill="#222222" style="stroke:#222222;stroke-width:1;"/></g><g class="end_entity" data-qualified-name=".end." id="ent0013" data-source-line="53"><ellipse cx="560" cy="1131.1275" rx="11" ry="11" fill="none" style="stroke:#222222;stroke-width:1;"/><ellipse cx="560" cy="1131.1275" rx="6" ry="6" fill="#222222" style="stroke:#222222;stroke-width:1;"/></g><!--link *start* to MATRICULAS_ABIERTO_INICIAL--><g class="link" data-entity-1="ent0005" data-entity-2="ent0001" id="lnk6" data-source-line="15" data-link-type="dependency"><path d="M560,105.1175 C560,125.3175 560,166.3875 560,199.7475" style="stroke:#008000;stroke-width:1;" fill="none" id="*start*-to-MATRICULAS_ABIERTO_INICIAL"/><polygon points="560,204.7475,564,195.7475,560,199.7475,556,195.7475,560,204.7475" fill="#008000" style="stroke:#008000;stroke-width:1;stroke-linejoin:miter;stroke-miterlimit:10;"/></g><!--link MATRICULAS_ABIERTO_INICIAL to MATRICULA_ABIERTA_COMP--><g class="link" data-entity-1="ent0001" data-entity-2="ent0002" id="lnk7" data-source-line="18" data-link-type="dependency"><path d="M560,281.5475 C560,307.9375 560,339.6175 560,375.9475" style="stroke:#008000;stroke-width:1;" fill="none" id="MATRICULAS_ABIERTO_INICIAL-to-MATRICULA_ABIERTA_COMP"/><polygon points="560,380.9475,564,371.9475,560,375.9475,556,371.9475,560,380.9475" fill="#008000" style="stroke:#008000;stroke-width:1;stroke-linejoin:miter;stroke-miterlimit:10;"/><path d="M6,266.2475 L6,326.2475 L356,326.2475 L356,276.2475 L346,266.2475 L6,266.2475" style="stroke:#181818;stroke-width:0.5;" fill="#FEFFDD"/><path d="M346,266.2475 L346,276.2475 L356,276.2475 L346,266.2475" style="stroke:#181818;stroke-width:0.5;" fill="#FEFFDD"/><text x="22" y="293.3144" fill="#000000" font-size="13" lengthAdjust="spacing" textLength="132.9961" font-weight="700" font-family="sans-serif">Secretaria solicita</text><text x="159.1284" y="293.3144" fill="#000000" font-size="13" lengthAdjust="spacing" textLength="172.2817" font-family="sans-serif">seleccionar una matrícula.</text><text x="22" y="308.4472" fill="#000000" font-size="13" lengthAdjust="spacing" textLength="120.999" font-weight="700" font-family="sans-serif">Sistema permite</text><text x="147.1313" y="308.4472" fill="#000000" font-size="13" lengthAdjust="spacing" textLength="182.9648" font-family="sans-serif">abrir el detalle de la misma.</text><text x="372.4102" y="300.8808" fill="#000000" font-size="13" lengthAdjust="spacing" textLength="177.0107" font-family="sans-serif">consultarDetalleMatricula()</text></g><!--link MATRICULA_ABIERTA_COMP to MATRICULAS_ABIERTO_FINAL--><g class="link" data-entity-1="ent0002" data-entity-2="ent0003" id="lnk12" data-source-line="45" data-link-type="dependency"><path d="M560,642.2675 C560,743.9575 560,873.3475 560,938.4075" style="stroke:#FF0000;stroke-width:1;" fill="none" id="MATRICULA_ABIERTA_COMP-to-MATRICULAS_ABIERTO_FINAL"/><polygon points="560,943.4075,564,934.4075,560,938.4075,556,934.4075,560,943.4075" fill="#FF0000" style="stroke:#FF0000;stroke-width:1;stroke-linejoin:miter;stroke-miterlimit:10;"/><text x="35" y="755.0372" fill="#000000" font-size="13" lengthAdjust="spacing" textLength="155.7842" font-family="sans-serif">cerrarDetalleMatricula()</text><path d="M206.7842,712.8375 L206.7842,787.8375 L554.7842,787.8375 L554.7842,722.8375 L544.7842,712.8375 L206.7842,712.8375" style="stroke:#181818;stroke-width:0.5;" fill="#FEFFDD"/><path d="M544.7842,712.8375 L544.7842,722.8375 L554.7842,722.8375 L544.7842,712.8375" style="stroke:#181818;stroke-width:0.5;" fill="#FEFFDD"/><text x="222.7842" y="739.9044" fill="#000000" font-size="13" lengthAdjust="spacing" textLength="63.7114" font-weight="700" font-family="sans-serif">CERRAR:</text><text x="222.7842" y="755.0372" fill="#000000" font-size="13" lengthAdjust="spacing" textLength="132.9961" font-weight="700" font-family="sans-serif">Secretaria solicita</text><text x="359.9126" y="755.0372" fill="#000000" font-size="13" lengthAdjust="spacing" textLength="104.1016" font-family="sans-serif">salir del detalle.</text><text x="222.7842" y="770.17" fill="#000000" font-size="13" lengthAdjust="spacing" textLength="120.999" font-weight="700" font-family="sans-serif">Sistema permite</text><text x="347.9155" y="770.17" fill="#000000" font-size="13" lengthAdjust="spacing" textLength="182.4316" font-family="sans-serif">regresar al listado principal.</text></g><!--link MATRICULAS_ABIERTO_FINAL to *end*--><g class="link" data-entity-1="ent0003" data-entity-2="ent0013" id="lnk14" data-source-line="53" data-link-type="dependency"><path d="M560,1020.3875 C560,1053.3575 560,1093.7775 560,1114.7075" style="stroke:#0000FF;stroke-width:1;" fill="none" id="MATRICULAS_ABIERTO_FINAL-to-*end*"/><polygon points="560,1119.7075,564,1110.7075,560,1114.7075,556,1110.7075,560,1119.7075" fill="#0000FF" style="stroke:#0000FF;stroke-width:1;stroke-linejoin:miter;stroke-miterlimit:10;"/></g><?plantuml-src XLJDJjj04BxxAKRc05G4w1MXI6v-AaiXgHBWWX2Qs1EoiDwrrciaMlKf-XGzzDH7o8jrTcq79v0q4WdQtVdvVcQii9AWfrLHIei6Kh8e-IGboD2QrP-ab1W4Xz3fTA0t6G_ZhpVJg1UlVesXFu31x3eUJU0eJbU_bHK90agW9yfogOzTJ50y2vMZmGoKJgcW73wVdxTE3QhdzwTIABAlEO4sTgbR5zymJOLwvETDK_t1C1x7xOwY_cJcUeLe54UpgWkBbk0gkfx6lPjHD7k8liI3wVNamOT68m300iBt3yBjqFeYUkXDhhv1zTa8RHw4kujomxxaxgACRIZB9mr2YKIW3Eu-tKFdxk3H4AdxJdSF51SxKDPWMed1NQJQwLbB6-nXuSCAcuWl86dCqgyINh5FXBF9qN6WD2EMjB2WbHFnEN0eB-VT6IM6dnk1K6Z9c2nUdisxK92a915QiVTAXItJdQv3HM4fGyZ9PCAI3yEv4GP8jlqgELeK6GUIIi5rugceyFTqbfVCXRw0Mr6KACLtJCJgh-B8TPRzMl_m3LLFce6fAV0wDcS-OtqHkXWVTmYnaz8fQiaexG-tLTrAsmeUQ-kOcnkF4nChNaIAQPqDuOXPrV2o2OsKavyWmK8V-qHU7oCUbopGugDoi8Tq5b0R9vJLgIv0yb-AbhyvFPkKpzOPqAknrh8bCxlIJJ8KvTf8bT9hqTv03uNQe6kRzJPrJ6Nmiza9CvxyVZtwRXhOMfu4PvEo-WdVTbwZrGdVCNqPSKdmV2xnbRbkVC8nP0oQ43I4jrg-a0bFEVzDWPdZ0s71A9S8HZ-n8WU6qkCAh50fxqPJCwZF4i69wCGpu8Xs1Vb_P-XwUPu6mGuRCcXEVC_Gkhjt2q-fRtNNYDOMs9pHtc0wZQONJkl_ZYsxpBH7P--q6cAP2iRF-qYAQY1p8rGYSfIRuygIRytcmkt1O2TIfcCkIwejy0y0?></g></svg>