<svg xmlns="http://www.w3.org/2000/svg" xmlns:xlink="http://www.w3.org/1999/xlink" contentStyleType="text/css" data-diagram-type="STATE" height="1013px" preserveAspectRatio="none" style="width:649px;height:1013px;background:#FFFFFF;" version="1.1" viewBox="0 0 649 1013" width="649px" zoomAndPan="magnify"><title>Exportar Dispensas</title><defs/><g><g class="title" data-source-line="1"><text fill="#000000" font-family="sans-serif" font-size="14" font-weight="bold" lengthAdjust="spacing" textLength="153.4053" x="241.0474" y="22.9951">Exportar Dispensas</text></g><rect fill="#F1F1F1" height="40" rx="12.5" ry="12.5" style="stroke:#181818;stroke-width:0.5;" width="157.3623" x="228" y="44.2969"/><text fill="#000000" font-family="sans-serif" font-size="14" lengthAdjust="spacing" textLength="147.3623" x="233" y="69.1436">DISPENSAS_ABIERTO</text><rect fill="#F1F1F1" height="40" rx="12.5" ry="12.5" style="stroke:#181818;stroke-width:0.5;" width="157.3623" x="114" y="967.2969"/><text fill="#000000" font-family="sans-serif" font-size="14" lengthAdjust="spacing" textLength="147.3623" x="119" y="992.1436">DISPENSAS_ABIERTO</text><rect fill="#F1F1F1" height="40" rx="12.5" ry="12.5" style="stroke:#181818;stroke-width:0.5;" width="229.3516" x="306" y="967.2969"/><text fill="#000000" font-family="sans-serif" font-size="14" lengthAdjust="spacing" textLength="219.3516" x="311" y="992.1436">SOLICITUD_DISPENSA_ABIERTA</text><path d="M19.5,194.2969 L593.5,194.2969 A12.5,12.5 0 0 1 606,206.7969 L606,220.5938 L7,220.5938 L7,206.7969 A12.5,12.5 0 0 1 19.5,194.2969" fill="#F1F1F1"/><rect fill="none" height="678.2969" rx="12.5" ry="12.5" style="stroke:#181818;stroke-width:0.5;" width="599" x="7" y="194.2969"/><line style="stroke:#181818;stroke-width:0.5;" x1="7" x2="606" y1="220.5938" y2="220.5938"/><text fill="#000000" font-family="sans-serif" font-size="14" lengthAdjust="spacing" textLength="131.4346" x="240.7827" y="212.292">exportarDispensas</text><rect fill="#F1F1F1" height="40" rx="12.5" ry="12.5" style="stroke:#181818;stroke-width:0.5;" width="50" x="123" y="337.5938"/><text fill="#000000" font-family="sans-serif" font-size="14" lengthAdjust="spacing" textLength="4.4502" x="145.7749" y="362.4404">&#160;</text><g class="entity" data-entity="ValidarFiltros" data-uid="ent0007" id="entity_ValidarFiltros"><polygon fill="#F1F1F1" points="148,478.5938,160,490.5938,148,502.5938,136,490.5938,148,478.5938" style="stroke:#181818;stroke-width:0.5;"/></g><rect fill="#F1F1F1" height="40" rx="12.5" ry="12.5" style="stroke:#181818;stroke-width:0.5;" width="50" x="123" y="588.5938"/><text fill="#000000" font-family="sans-serif" font-size="14" lengthAdjust="spacing" textLength="4.4502" x="145.7749" y="613.4404">&#160;</text><rect fill="#F1F1F1" height="40" rx="12.5" ry="12.5" style="stroke:#181818;stroke-width:0.5;" width="50" x="123" y="714.5938"/><text fill="#000000" font-family="sans-serif" font-size="14" lengthAdjust="spacing" textLength="4.4502" x="145.7749" y="739.4404">&#160;</text><ellipse cx="148" cy="241.5938" fill="#222222" rx="10" ry="10" style="stroke:#222222;stroke-width:1;"/><ellipse cx="148" cy="851.5938" fill="none" rx="11" ry="11" style="stroke:#222222;stroke-width:1;"/><ellipse cx="148" cy="851.5938" fill="#222222" rx="6" ry="6" style="stroke:#222222;stroke-width:1;"/><!--link *start*exportarDispensas to SolicitudFiltros--><g class="link" data-entity-1=".start.exportarDispensas" data-entity-2="SolicitudFiltros" data-source-line="28" data-uid="lnk4" id="link_.start.exportarDispensas_SolicitudFiltros"><path d="M148,251.9238 C148,270.5338 148,306.6138 148,331.3738" fill="none" id="*start*exportarDispensas-to-SolicitudFiltros" style="stroke:#008000;stroke-width:1;"/><polygon fill="#008000" points="148,337.3738,152,328.3738,148,332.3738,144,328.3738,148,337.3738" style="stroke:#008000;stroke-width:1;"/><path d="M153,274.5938 L153,314.5938 L383,314.5938 L383,284.5938 L373,274.5938 L153,274.5938" fill="#F5F5F5" style="stroke:#008000;stroke-width:0.5;"/><path d="M373,274.5938 L373,284.5938 L383,284.5938 L373,274.5938" fill="#F5F5F5" style="stroke:#008000;stroke-width:0.5;"/><text fill="#000000" font-family="sans-serif" font-size="13" font-weight="bold" lengthAdjust="spacing" textLength="193.8511" x="159" y="291.6606">Sistema muestra opciones</text><text fill="#000000" font-family="sans-serif" font-size="13" lengthAdjust="spacing" textLength="209.936" x="159" y="306.7935">de filtro y bot&#243;n de exportaci&#243;n.</text></g><!--link SolicitudFiltros to ValidarFiltros--><g class="link" data-entity-1="SolicitudFiltros" data-entity-2="ValidarFiltros" data-source-line="35" data-uid="lnk5" id="link_SolicitudFiltros_ValidarFiltros"><path d="M122.93,365.7238 C85.16,376.4838 18,395.5938 18,395.5938 C18,395.5938 18,460.5938 18,460.5938 C18,460.5938 102.9839,479.5474 132.7939,486.1974" fill="none" id="SolicitudFiltros-to-ValidarFiltros" style="stroke:#008000;stroke-width:1;"/><polygon fill="#008000" points="138.65,487.5038,130.7368,481.6402,133.77,486.4151,128.995,489.4482,138.65,487.5038" style="stroke:#008000;stroke-width:1;"/><path d="M23,408.0938 L23,448.0938 L252,448.0938 L252,418.0938 L242,408.0938 L23,408.0938" fill="#F5F5F5" style="stroke:#008000;stroke-width:0.5;"/><path d="M242,408.0938 L242,418.0938 L252,418.0938 L242,408.0938" fill="#F5F5F5" style="stroke:#008000;stroke-width:0.5;"/><text fill="#000000" font-family="sans-serif" font-size="13" font-weight="bold" lengthAdjust="spacing" textLength="208.165" x="29" y="425.1606">Usuario selecciona criterios:</text><ellipse cx="34.5" cy="435.8594" fill="#000000" rx="2.5" ry="2.5"/><text fill="#000000" font-family="sans-serif" font-size="13" lengthAdjust="spacing" textLength="196.5869" x="41" y="440.2935">Curso, Asignatura, Nombre, Id</text></g><!--link ValidarFiltros to SolicitudFiltros--><g class="link" data-entity-1="ValidarFiltros" data-entity-2="SolicitudFiltros" data-source-line="42" data-uid="lnk6" id="link_ValidarFiltros_SolicitudFiltros"><path d="M156.92,487.2238 C182.95,480.2938 257,460.5938 257,460.5938 C257,460.5938 257,395.5938 257,395.5938 C257,395.5938 210.8718,379.9318 178.6918,369.0118" fill="none" id="ValidarFiltros-to-SolicitudFiltros" style="stroke:#FF0000;stroke-width:1;"/><polygon fill="#FF0000" points="173.01,367.0838,180.2473,373.7637,177.7448,368.6905,182.818,366.188,173.01,367.0838" style="stroke:#FF0000;stroke-width:1;"/><path d="M262,400.5938 L262,455.5938 L597,455.5938 L597,410.5938 L587,400.5938 L262,400.5938" fill="#F5F5F5" style="stroke:#008000;stroke-width:0.5;"/><path d="M587,400.5938 L587,410.5938 L597,410.5938 L587,400.5938" fill="#F5F5F5" style="stroke:#008000;stroke-width:0.5;"/><text fill="#000000" font-family="sans-serif" font-size="13" font-weight="bold" lengthAdjust="spacing" textLength="160.9956" x="268" y="417.6606">Sistema valida filtros.</text><text fill="#000000" font-family="sans-serif" font-size="13" font-weight="bold" lengthAdjust="spacing" textLength="91.5522" x="268" y="432.7935">Si hay error:</text><text fill="#000000" font-family="sans-serif" font-size="13" lengthAdjust="spacing" textLength="314.7422" x="268" y="447.9263">Sistema informa error y vuelve a solicitar filtros.</text></g><!--link ValidarFiltros to SolicitudFormato--><g class="link" data-entity-1="ValidarFiltros" data-entity-2="SolicitudFormato" data-source-line="50" data-uid="lnk7" id="link_ValidarFiltros_SolicitudFormato"><path d="M148,502.7138 C148,522.4538 148,557.8138 148,582.2838" fill="none" id="ValidarFiltros-to-SolicitudFormato" style="stroke:#008000;stroke-width:1;"/><polygon fill="#008000" points="148,588.2838,152,579.2838,148,583.2838,144,579.2838,148,588.2838" style="stroke:#008000;stroke-width:1;"/><path d="M153,525.5938 L153,565.5938 L557,565.5938 L557,535.5938 L547,525.5938 L153,525.5938" fill="#F5F5F5" style="stroke:#008000;stroke-width:0.5;"/><path d="M547,525.5938 L547,535.5938 L557,535.5938 L547,525.5938" fill="#F5F5F5" style="stroke:#008000;stroke-width:0.5;"/><text fill="#000000" font-family="sans-serif" font-size="13" font-weight="bold" lengthAdjust="spacing" textLength="193.2607" x="159" y="542.6606">Sistema solicita al usuario</text><text fill="#000000" font-family="sans-serif" font-size="13" lengthAdjust="spacing" textLength="383.3477" x="159" y="557.7935">el formato de salida (PDF, CSV, etc.) y nombre del archivo.</text></g><!--link SolicitudFormato to Descarga--><g class="link" data-entity-1="SolicitudFormato" data-entity-2="Descarga" data-source-line="58" data-uid="lnk8" id="link_SolicitudFormato_Descarga"><path d="M148,628.6938 C148,651.9338 148,684.9338 148,708.2638" fill="none" id="SolicitudFormato-to-Descarga" style="stroke:#008000;stroke-width:1;"/><polygon fill="#008000" points="148,714.2638,152,705.2638,148,709.2638,144,705.2638,148,714.2638" style="stroke:#008000;stroke-width:1;"/><path d="M153,651.5938 L153,691.5938 L397,691.5938 L397,661.5938 L387,651.5938 L153,651.5938" fill="#F5F5F5" style="stroke:#008000;stroke-width:0.5;"/><path d="M387,651.5938 L387,661.5938 L397,661.5938 L387,651.5938" fill="#F5F5F5" style="stroke:#008000;stroke-width:0.5;"/><text fill="#000000" font-family="sans-serif" font-size="13" font-weight="bold" lengthAdjust="spacing" textLength="223.9834" x="159" y="668.6606">El usuario solicita la descarga.</text><text fill="#000000" font-family="sans-serif" font-size="13" lengthAdjust="spacing" textLength="191.1343" x="159" y="683.7935">Sistema permite la descarga.</text></g><!--link Descarga to *end*exportarDispensas--><g class="link" data-entity-1="Descarga" data-entity-2=".end.exportarDispensas" data-source-line="66" data-uid="lnk10" id="link_Descarga_.end.exportarDispensas"><path d="M148,754.8438 C148,779.5238 148,815.4138 148,834.5338" fill="none" id="Descarga-to-*end*exportarDispensas" style="stroke:#008000;stroke-width:1;"/><polygon fill="#008000" points="148,840.5338,152,831.5338,148,835.5338,144,831.5338,148,840.5338" style="stroke:#008000;stroke-width:1;"/><path d="M153,777.5938 L153,817.5938 L397,817.5938 L397,787.5938 L387,777.5938 L153,777.5938" fill="#F5F5F5" style="stroke:#008000;stroke-width:0.5;"/><path d="M387,777.5938 L387,787.5938 L397,787.5938 L387,777.5938" fill="#F5F5F5" style="stroke:#008000;stroke-width:0.5;"/><text fill="#000000" font-family="sans-serif" font-size="13" font-weight="bold" lengthAdjust="spacing" textLength="223.793" x="159" y="794.6606">Sistema muestra confirmaci&#243;n</text><text fill="#000000" font-family="sans-serif" font-size="13" lengthAdjust="spacing" textLength="99.9248" x="159" y="809.7935">de la descarga.</text></g><!--link startState to exportarDispensas--><g class="link" data-entity-1="startState" data-entity-2="exportarDispensas" data-source-line="17" data-uid="lnk2" id="link_startState_exportarDispensas"><path d="M306.5,84.4769 C306.5,106.8769 306.5,140.9469 306.5,188.2269" fill="none" id="startState-to-exportarDispensas" style="stroke:#008000;stroke-width:1;"/><polygon fill="#008000" points="306.5,194.2269,310.5,185.2269,306.5,189.2269,302.5,185.2269,306.5,194.2269" style="stroke:#008000;stroke-width:1;"/><path d="M311.5,119.2969 L311.5,159.2969 L458.5,159.2969 L458.5,129.2969 L448.5,119.2969 L311.5,119.2969" fill="#F5F5F5" style="stroke:#008000;stroke-width:0.5;"/><path d="M448.5,119.2969 L448.5,129.2969 L458.5,129.2969 L448.5,119.2969" fill="#F5F5F5" style="stroke:#008000;stroke-width:0.5;"/><text fill="#000000" font-family="sans-serif" font-size="13" font-weight="bold" lengthAdjust="spacing" textLength="113.3755" x="317.5" y="136.3638">Usuario solicita</text><text fill="#000000" font-family="sans-serif" font-size="13" lengthAdjust="spacing" textLength="126.3945" x="317.5" y="151.4966">Exportar Dispensas</text></g><!--link exportarDispensas to endState1--><g class="link" data-entity-1="exportarDispensas" data-entity-2="endState1" data-source-line="74" data-uid="lnk11" id="link_exportarDispensas_endState1"><path d="M221.19,872.5269 C210.97,913.0569 203.8489,941.3095 198.7989,961.3095" fill="none" id="exportarDispensas-to-endState1" style="stroke:#008000;stroke-width:1;"/><polygon fill="#008000" points="197.33,967.1269,203.4116,959.38,198.5541,962.279,195.6551,957.4215,197.33,967.1269" style="stroke:#008000;stroke-width:1;"/></g><!--link exportarDispensas to endState2--><g class="link" data-entity-1="exportarDispensas" data-entity-2="endState2" data-source-line="76" data-uid="lnk12" id="link_exportarDispensas_endState2"><path d="M391.81,872.5269 C402.03,913.0569 409.1511,941.3095 414.2011,961.3095" fill="none" id="exportarDispensas-to-endState2" style="stroke:#008000;stroke-width:1;"/><polygon fill="#008000" points="415.67,967.1269,417.3449,957.4215,414.4459,962.279,409.5884,959.38,415.67,967.1269" style="stroke:#008000;stroke-width:1;"/><path d="M410.5,907.2969 L410.5,932.2969 L642.5,932.2969 L642.5,917.2969 L632.5,907.2969 L410.5,907.2969" fill="#F5F5F5" style="stroke:#008000;stroke-width:0.5;"/><path d="M632.5,907.2969 L632.5,917.2969 L642.5,917.2969 L632.5,907.2969" fill="#F5F5F5" style="stroke:#008000;stroke-width:0.5;"/><text fill="#000000" font-family="sans-serif" font-size="13" font-weight="bold" lengthAdjust="spacing" textLength="211.6372" x="416.5" y="924.3638">consultarSolicitudDispensa()</text></g><!--SRC=[dLLDRzf04BtxLup88Hy2ggGzHGY9095SHI6A8PSeYXPxW2tBhhMx9a5L3ptsz_Gdv8zrTh7DTzBM1uozRsVUUxCpjjmAXEvhghHb6ZhSf2WDCq5WfbocJBCPV0-0hbjbyOh5qx5McKpQIYWDHoyJRZ6QgIbwJ4jhzP8lZJMYNErKEa6zioIuHBj84L8b5kuX-1444vuWu2or2qZGn9gdbYiP1CVGDPOboW2NFEPCm096ND9zBDIG2JGmPCO3K08AKiF6981H66WhQV7Lge12M0JwrJRoVvc1IYUCxhgtKIjwRbs5tVj-hvBZK2OUTNu01bku2u-BUZTXE-mFEi_5Zdn3gn84QwbhjIPWxltAUab-WPBEdAbtgJ5i3ap6D5TWb23fbZK-3Pj-RK_fY0ku6471RJj3Nj7bQhICc2NNN5XDtZa1K5b3F3314wQBzKOZdYWUOxCPUD0ndDSXT1LHbqKq1eAGe-KEZteyU_9ojzFvnHt5kUg86ujKlrc6nce6AgKa4asftbrKt6KYEWv3PTz-I_Sg5nrpUgvxxCgM9UkBEdG5P8MnA31sqNUfxpZaT6oQygwAmMuAEjGMwPsvt91o1krC6rM5bk5ZoMocMPNQPpRKM8KmsIkZLgl1vpfStmo-zg1rq-_UtxRwuKCFJhhKZNfb3_66DfjngU1UVLEdRgUFiLNVskEHnkJfVsirzz6AdFKDVHu64xO0TDmsnHS1k1mfJNSFePhECnHpQjFoxEio-453lXI6NBtzZC8scV7swvNRTqHlo7NvQLGutDvEMQwlTyf7hXJSWPL7RaCyJQjH7fKAPfOUdjnrhglGZXwgW3Qkdv8PqXy6mWXWEfxmkTeoeUIymzP9xD0yPNhCjgKLx_z6qdhJbDtE_AXs8UfxYvgYdj6Htm0U85voSOHfRFpJX8YL777Iw_j-UqmSJavVdM1tJFhnN7m0FW9Sx9tRnCTaWZQLvIXsdvnwUWM5Fm00]--></g></svg>