<svg xmlns="http://www.w3.org/2000/svg" xmlns:xlink="http://www.w3.org/1999/xlink" contentStyleType="text/css" data-diagram-type="STATE" height="996px" preserveAspectRatio="none" style="width:840px;height:996px;background:#FFFFFF;" version="1.1" viewBox="0 0 840 996" width="840px" zoomAndPan="magnify"><title>Editar Usuario</title><defs/><g><text fill="#000000" font-family="sans-serif" font-size="14" font-weight="bold" lengthAdjust="spacing" textLength="95.6895" x="365.4053" y="24.5332">Editar Usuario</text><g id="USUARIO_ABIERTO_INICIAL"><rect fill="#F1F1F1" height="50" rx="12.5" ry="12.5" style="stroke:#181818;stroke-width:0.5;" width="153.0273" x="146" y="125.6094"/><line style="stroke:#181818;stroke-width:0.5;" x1="146" x2="299.0273" y1="153.2188" y2="153.2188"/><text fill="#000000" font-family="sans-serif" font-size="14" lengthAdjust="spacing" textLength="133.0273" x="156" y="145.1426">USUARIO_ABIERTO</text></g><path d="M19.5,355.6094 L425.5,355.6094 A12.5,12.5 0 0 1 438,368.1094 L438,383.2188 L7,383.2188 L7,368.1094 A12.5,12.5 0 0 1 19.5,355.6094" fill="#F1F1F1" style="stroke:#F1F1F1;stroke-width:1;"/><rect fill="none" height="453.6094" rx="12.5" ry="12.5" style="stroke:#181818;stroke-width:0.5;" width="431" x="7" y="355.6094"/><line style="stroke:#181818;stroke-width:0.5;" x1="7" x2="438" y1="383.2188" y2="383.2188"/><text fill="#000000" font-family="sans-serif" font-size="14" lengthAdjust="spacing" textLength="133.0273" x="155.9863" y="375.1426">USUARIO_ABIERTO</text><g id="USUARIO_ABIERTO_COMP.ModificacionDatos"><rect fill="#F1F1F1" height="50" rx="12.5" ry="12.5" style="stroke:#181818;stroke-width:0.5;" width="134.3857" x="19" y="535.2188"/><line style="stroke:#181818;stroke-width:0.5;" x1="19" x2="153.3857" y1="562.8281" y2="562.8281"/><text fill="#000000" font-family="sans-serif" font-size="14" lengthAdjust="spacing" textLength="114.3857" x="29" y="554.752">ModificacionDatos</text></g><g id="USUARIO_ABIERTO_COMP.DecisionGuardar"><rect fill="#F1F1F1" height="50" rx="12.5" ry="12.5" style="stroke:#181818;stroke-width:0.5;" width="125.0479" x="23.5" y="690.2188"/><line style="stroke:#181818;stroke-width:0.5;" x1="23.5" x2="148.5479" y1="717.8281" y2="717.8281"/><text fill="#000000" font-family="sans-serif" font-size="14" lengthAdjust="spacing" textLength="105.0479" x="33.5" y="709.752">DecisionGuardar</text></g><ellipse cx="86" cy="404.2188" fill="#222222" rx="10" ry="10" style="stroke:#222222;stroke-width:1;"/><ellipse cx="86" cy="788.2188" fill="none" rx="11" ry="11" style="stroke:#222222;stroke-width:1;"/><ellipse cx="86" cy="788.2188" fill="#222222" rx="6" ry="6" style="stroke:#222222;stroke-width:1;"/><!--link *start*USUARIO_ABIERTO_COMP to ModificacionDatos--><g class="link" data-entity-1="*start*USUARIO_ABIERTO_COMP" data-entity-2="ModificacionDatos" data-source-line="24" data-uid="lnk6" id="link_*start*USUARIO_ABIERTO_COMP_ModificacionDatos"><path d="M86,414.3888 C86,437.7688 86,494.1788 86,528.9588" fill="none" id="*start*USUARIO_ABIERTO_COMP-to-ModificacionDatos" style="stroke:#008000;stroke-width:1;"/><polygon fill="#008000" points="86,534.9588,90,525.9588,86,529.9588,82,525.9588,86,534.9588" style="stroke:#008000;stroke-width:1;"/><path d="M91,437.2188 L91,512.2188 L399,512.2188 L399,447.2188 L389,437.2188 L91,437.2188" fill="#FEFFDD" style="stroke:#181818;stroke-width:0.5;"/><path d="M389,437.2188 L389,447.2188 L399,447.2188 L389,437.2188" fill="#FEFFDD" style="stroke:#181818;stroke-width:0.5;"/><text fill="#000000" font-family="sans-serif" font-size="13" font-weight="bold" lengthAdjust="spacing" textLength="49.8608" x="97" y="455.7139">Sistema</text><text fill="#000000" font-family="sans-serif" font-size="13" lengthAdjust="spacing" textLength="205.2134" x="150.4727" y="455.7139">permite introducir los nuevos datos.</text><text fill="#000000" font-family="sans-serif" font-size="13" lengthAdjust="spacing" textLength="3.6118" x="97" y="472.0654">&#160;</text><text fill="#000000" font-family="sans-serif" font-size="13" font-weight="bold" lengthAdjust="spacing" textLength="88.8418" x="97" y="488.417">Administrador</text><text fill="#000000" font-family="sans-serif" font-size="13" lengthAdjust="spacing" textLength="195.0952" x="189.4536" y="488.417">modifica la informaci&#243;n requerida:</text><text fill="#000000" font-family="sans-serif" font-size="13" lengthAdjust="spacing" textLength="261.7964" x="97" y="504.7686">&#8226; Credenciales, Datos personales, Roles, etc.</text></g><!--link ModificacionDatos to DecisionGuardar--><g class="link" data-entity-1="ModificacionDatos" data-entity-2="DecisionGuardar" data-source-line="32" data-uid="lnk7" id="link_ModificacionDatos_DecisionGuardar"><path d="M86,585.4588 C86,614.1088 86,655.4888 86,684.0888" fill="none" id="ModificacionDatos-to-DecisionGuardar" style="stroke:#008000;stroke-width:1;"/><polygon fill="#008000" points="86,690.0888,90,681.0888,86,685.0888,82,681.0888,86,690.0888" style="stroke:#008000;stroke-width:1;"/><path d="M91,608.2188 L91,667.2188 L429,667.2188 L429,618.2188 L419,608.2188 L91,608.2188" fill="#FEFFDD" style="stroke:#181818;stroke-width:0.5;"/><path d="M419,608.2188 L419,618.2188 L429,618.2188 L419,608.2188" fill="#FEFFDD" style="stroke:#181818;stroke-width:0.5;"/><text fill="#000000" font-family="sans-serif" font-size="13" font-weight="bold" lengthAdjust="spacing" textLength="49.8608" x="97" y="626.7139">Sistema</text><text fill="#000000" font-family="sans-serif" font-size="13" lengthAdjust="spacing" textLength="263.7261" x="150.4727" y="626.7139">muestra los cambios realizados para revisi&#243;n.</text><text fill="#000000" font-family="sans-serif" font-size="13" lengthAdjust="spacing" textLength="3.6118" x="97" y="643.0654">&#160;</text><text fill="#000000" font-family="sans-serif" font-size="13" font-weight="bold" lengthAdjust="spacing" textLength="88.8418" x="97" y="659.417">Administrador</text><text fill="#000000" font-family="sans-serif" font-size="13" lengthAdjust="spacing" textLength="166.1943" x="189.4536" y="659.417">solicita finalizar la operaci&#243;n.</text></g><!--link DecisionGuardar to *end*USUARIO_ABIERTO_COMP--><g class="link" data-entity-1="DecisionGuardar" data-entity-2="*end*USUARIO_ABIERTO_COMP" data-source-line="39" data-uid="lnk9" id="link_DecisionGuardar_*end*USUARIO_ABIERTO_COMP"><path d="M86,740.2588 C86,752.8088 86,761.4988 86,771.0688" fill="none" id="DecisionGuardar-to-*end*USUARIO_ABIERTO_COMP" style="stroke:#008000;stroke-width:1;"/><polygon fill="#008000" points="86,777.0688,90,768.0688,86,772.0688,82,768.0688,86,777.0688" style="stroke:#008000;stroke-width:1;"/></g><g id="USUARIOS_ABIERTO_FINAL"><rect fill="#F1F1F1" height="50" rx="12.5" ry="12.5" style="stroke:#181818;stroke-width:0.5;" width="162.3652" x="141.5" y="940.6094"/><line style="stroke:#181818;stroke-width:0.5;" x1="141.5" x2="303.8652" y1="968.2188" y2="968.2188"/><text fill="#000000" font-family="sans-serif" font-size="14" lengthAdjust="spacing" textLength="142.3652" x="151.5" y="960.1426">USUARIOS_ABIERTO</text></g><ellipse cx="222.5" cy="54.6094" fill="#222222" rx="10" ry="10" style="stroke:#222222;stroke-width:1;"/><!--link *start* to USUARIO_ABIERTO_INICIAL--><g class="link" data-entity-1="*start*" data-entity-2="USUARIO_ABIERTO_INICIAL" data-source-line="8" data-uid="lnk3" id="link_*start*_USUARIO_ABIERTO_INICIAL"><path d="M222.5,64.6194 C222.5,78.4994 222.5,99.5794 222.5,119.4494" fill="none" id="*start*-to-USUARIO_ABIERTO_INICIAL" style="stroke:#008000;stroke-width:1;"/><polygon fill="#008000" points="222.5,125.4494,226.5,116.4494,222.5,120.4494,218.5,116.4494,222.5,125.4494" style="stroke:#008000;stroke-width:1;"/></g><!--link USUARIO_ABIERTO_INICIAL to USUARIO_ABIERTO_COMP--><g class="link" data-entity-1="USUARIO_ABIERTO_INICIAL" data-entity-2="USUARIO_ABIERTO_COMP" data-source-line="10" data-uid="lnk4" id="link_USUARIO_ABIERTO_INICIAL_USUARIO_ABIERTO_COMP"><path d="M222.5,175.6494 C222.5,211.5094 222.5,276.6294 222.5,349.4594" fill="none" id="USUARIO_ABIERTO_INICIAL-to-USUARIO_ABIERTO_COMP" style="stroke:#008000;stroke-width:1;"/><polygon fill="#008000" points="222.5,355.4594,226.5,346.4594,222.5,350.4594,218.5,346.4594,222.5,355.4594" style="stroke:#008000;stroke-width:1;"/><text fill="#000000" font-family="sans-serif" font-size="13" lengthAdjust="spacing" textLength="85.9727" x="351.4263" y="220.1045">editarUsuario()</text><path d="M227.5,228.9609 L227.5,319.9609 L560.5,319.9609 L560.5,238.9609 L550.5,228.9609 L227.5,228.9609" fill="#FEFFDD" style="stroke:#181818;stroke-width:0.5;"/><path d="M550.5,228.9609 L550.5,238.9609 L560.5,238.9609 L550.5,228.9609" fill="#FEFFDD" style="stroke:#181818;stroke-width:0.5;"/><text fill="#000000" font-family="sans-serif" font-size="13" font-weight="bold" lengthAdjust="spacing" textLength="88.8418" x="233.5" y="247.4561">Administrador</text><text fill="#000000" font-family="sans-serif" font-size="13" lengthAdjust="spacing" textLength="220.3716" x="325.9536" y="247.4561">se encuentra en USUARIO_ABIERTO</text><text fill="#000000" font-family="sans-serif" font-size="13" lengthAdjust="spacing" textLength="174.1289" x="233.5" y="263.8076">y solicita editar la informaci&#243;n.</text><text fill="#000000" font-family="sans-serif" font-size="13" lengthAdjust="spacing" textLength="3.6118" x="233.5" y="280.1592">&#160;</text><text fill="#000000" font-family="sans-serif" font-size="13" font-weight="bold" lengthAdjust="spacing" textLength="49.8608" x="233.5" y="296.5107">Sistema</text><text fill="#000000" font-family="sans-serif" font-size="13" lengthAdjust="spacing" textLength="233.397" x="286.9727" y="296.5107">habilita los campos para su modificaci&#243;n</text><text fill="#000000" font-family="sans-serif" font-size="13" lengthAdjust="spacing" textLength="278.897" x="233.5" y="312.8623">y mantiene el contexto en USUARIO_ABIERTO.</text></g><!--link USUARIO_ABIERTO_COMP to USUARIOS_ABIERTO_FINAL--><g class="link" data-entity-1="USUARIO_ABIERTO_COMP" data-entity-2="USUARIOS_ABIERTO_FINAL" data-source-line="42" data-uid="lnk10" id="link_USUARIO_ABIERTO_COMP_USUARIOS_ABIERTO_FINAL"><path d="M37,809.7394 C22.02,828.0094 12.5,839.6094 12.5,839.6094 C12.5,839.6094 12.5,910.6094 12.5,910.6094 C12.5,910.6094 76.3989,927.0458 135.4989,942.2358" fill="none" id="USUARIO_ABIERTO_COMP-to-USUARIOS_ABIERTO_FINAL" style="stroke:#008000;stroke-width:1;"/><polygon fill="#008000" points="141.31,943.7294,133.589,937.6149,136.4674,942.4847,131.5976,945.3631,141.31,943.7294" style="stroke:#008000;stroke-width:1;"/><text fill="#000000" font-family="sans-serif" font-size="13" lengthAdjust="spacing" textLength="98.2617" x="151.1921" y="854.1045">guardarUsuario()</text><path d="M17.5,862.9609 L17.5,904.9609 L382.5,904.9609 L382.5,872.9609 L372.5,862.9609 L17.5,862.9609" fill="#FEFFDD" style="stroke:#181818;stroke-width:0.5;"/><path d="M372.5,862.9609 L372.5,872.9609 L382.5,872.9609 L372.5,862.9609" fill="#FEFFDD" style="stroke:#181818;stroke-width:0.5;"/><text fill="#000000" font-family="sans-serif" font-size="13" font-weight="bold" lengthAdjust="spacing" textLength="49.8608" x="23.5" y="881.4561">Sistema</text><text fill="#000000" font-family="sans-serif" font-size="13" lengthAdjust="spacing" textLength="160.418" x="76.9727" y="881.4561">valida y guarda los cambios</text><text fill="#000000" font-family="sans-serif" font-size="13" lengthAdjust="spacing" textLength="344.646" x="23.5" y="897.8076">y muestra nuevamente el listado en USUARIOS_ABIERTO.</text></g><!--link USUARIO_ABIERTO_COMP to USUARIOS_ABIERTO_FINAL--><g class="link" data-entity-1="USUARIO_ABIERTO_COMP" data-entity-2="USUARIOS_ABIERTO_FINAL" data-source-line="48" data-uid="lnk11" id="link_USUARIO_ABIERTO_COMP_USUARIOS_ABIERTO_FINAL"><path d="M371.78,809.7394 C383.84,828.0094 391.5,839.6094 391.5,839.6094 C391.5,839.6094 391.5,910.6094 391.5,910.6094 C391.5,910.6094 348.8156,924.2542 303.8156,938.6242" fill="none" id="USUARIO_ABIERTO_COMP-to-USUARIOS_ABIERTO_FINAL-1" style="stroke:#FF0000;stroke-width:1;"/><polygon fill="#FF0000" points="298.1,940.4494,307.8903,941.522,302.863,938.9284,305.4567,933.9011,298.1,940.4494" style="stroke:#FF0000;stroke-width:1;"/><text fill="#000000" font-family="sans-serif" font-size="13" lengthAdjust="spacing" textLength="87.4009" x="571.7471" y="854.1045">cerrarUsuario()</text><path d="M396.5,862.9609 L396.5,904.9609 L833.5,904.9609 L833.5,872.9609 L823.5,862.9609 L396.5,862.9609" fill="#FEFFDD" style="stroke:#181818;stroke-width:0.5;"/><path d="M823.5,862.9609 L823.5,872.9609 L833.5,872.9609 L823.5,862.9609" fill="#FEFFDD" style="stroke:#181818;stroke-width:0.5;"/><text fill="#000000" font-family="sans-serif" font-size="13" font-weight="bold" lengthAdjust="spacing" textLength="49.8608" x="402.5" y="881.4561">Sistema</text><text fill="#000000" font-family="sans-serif" font-size="13" lengthAdjust="spacing" textLength="222.5552" x="455.9727" y="881.4561">descarta las modificaciones realizadas</text><text fill="#000000" font-family="sans-serif" font-size="13" lengthAdjust="spacing" textLength="416.895" x="402.5" y="897.8076">y muestra nuevamente el listado en USUARIOS_ABIERTO sin cambios.</text></g><!--SRC=[dLFRZjCm47ttLuoM5q1iUQzMbKftGP7OBMhfqsgrSktfCjh4BhPJKH0Ity8ly0dy2L_2sEabJPEo8Y-EdPpZEMVc10evmfMc81tCV2aTMU4VoIobamNaP32ibmXBcw_ZHWWVP42OJMV3IJQ-7xx9hYOVn_VPJJRAXky1f8UpniUp3ineVFq1ulDlp7G7UflTn6lgcEaU96vVti7vxRC7XsZkpWTTTGhH9U0KE1NS1qnkRSnw_a8OouLQ4yrw51VpmL0NPCW79xLr5w_d0_08Q5I9Xi_uhKairk1jJeffD-IGIo2piAwGYdx_CZqHYQTCYeLCb9_adF88oAq79OibBx5du4iehAO5gGhAv8KqWT1m4JaeQm9-2RQbZ9v0eo6g4QSwrjOj-2P4x6G5kzxTRysb3DRNlbsY8i_dxzWzBLq5QtQjdU30vtZGi6I9hY3-XTXcgqj5BfbZIbpneYDFJso1nqtQkjRq7Xn-Bj6Hblq4_lFZ9umSQkueoHpzAqWbnkkzDTN9nAO5W-ebpDxOk3kITo2-wT1Jf1SbHYdROPWJhmvbJbzPtcOm7AwOjngcJXDsSxWWa-1f52rhsmxYiPn6mGTYkBFY-t7QqY2rHAsPypuyLAJTQQlRiEAIjOJr1bMt8yPWOr8S25bm65CWSiQp_5eUfcs1w5B0Wt2oVeNEFRLyZLv95pFD6IjgGuBxRih_KWAUpDQ9cgg_]--></g></svg>