<svg xmlns="http://www.w3.org/2000/svg" xmlns:xlink="http://www.w3.org/1999/xlink" contentStyleType="text/css" data-diagram-type="STATE" height="390px" preserveAspectRatio="none" style="width:812px;height:390px;background:#FFFFFF;" version="1.1" viewBox="0 0 812 390" width="812px" zoomAndPan="magnify"><title>Estados de Asistencia</title><defs/><g><g class="title" data-source-line="1"><text fill="#000000" font-family="sans-serif" font-size="14" font-weight="bold" lengthAdjust="spacing" textLength="172.2725" x="313.1925" y="22.9951">Estados de Asistencia</text></g><ellipse cx="424.99" cy="53.2969" fill="#222222" rx="10" ry="10" style="stroke:#222222;stroke-width:1;"/><g id="Pendiente"><rect fill="#F1F1F1" height="50" rx="12.5" ry="12.5" style="stroke:#181818;stroke-width:0.5;" width="90.2939" x="379.84" y="124.2969"/><line style="stroke:#181818;stroke-width:0.5;" x1="379.84" x2="470.1339" y1="150.5938" y2="150.5938"/><text fill="#000000" font-family="sans-serif" font-size="14" lengthAdjust="spacing" textLength="70.2939" x="389.84" y="142.292">Pendiente</text></g><g id="TomandoAsistencia"><rect fill="#F1F1F1" height="50" rx="12.5" ry="12.5" style="stroke:#181818;stroke-width:0.5;" width="156.8555" x="43.56" y="251.2969"/><line style="stroke:#181818;stroke-width:0.5;" x1="43.56" x2="200.4155" y1="277.5938" y2="277.5938"/><text fill="#000000" font-family="sans-serif" font-size="14" lengthAdjust="spacing" textLength="136.8555" x="53.56" y="269.292">TomandoAsistencia</text></g><g id="Presente"><rect fill="#F1F1F1" height="50" rx="12.5" ry="12.5" style="stroke:#181818;stroke-width:0.5;" width="81.6943" x="404.14" y="251.2969"/><line style="stroke:#181818;stroke-width:0.5;" x1="404.14" x2="485.8343" y1="277.5938" y2="277.5938"/><text fill="#000000" font-family="sans-serif" font-size="14" lengthAdjust="spacing" textLength="61.6943" x="414.14" y="269.292">Presente</text></g><g id="Ausente"><rect fill="#F1F1F1" height="50" rx="12.5" ry="12.5" style="stroke:#181818;stroke-width:0.5;" width="77.333" x="541.32" y="251.2969"/><line style="stroke:#181818;stroke-width:0.5;" x1="541.32" x2="618.653" y1="277.5938" y2="277.5938"/><text fill="#000000" font-family="sans-serif" font-size="14" lengthAdjust="spacing" textLength="57.333" x="551.32" y="269.292">Ausente</text></g><g id="Justificada"><rect fill="#F1F1F1" height="50" rx="12.5" ry="12.5" style="stroke:#181818;stroke-width:0.5;" width="92.2354" x="668.87" y="251.2969"/><line style="stroke:#181818;stroke-width:0.5;" x1="668.87" x2="761.1054" y1="277.5938" y2="277.5938"/><text fill="#000000" font-family="sans-serif" font-size="14" lengthAdjust="spacing" textLength="72.2354" x="678.87" y="269.292">Justificada</text></g><ellipse cx="579.99" cy="373.2969" fill="none" rx="11" ry="11" style="stroke:#222222;stroke-width:1;"/><ellipse cx="579.99" cy="373.2969" fill="#222222" rx="6" ry="6" style="stroke:#222222;stroke-width:1;"/><!--link *start* to Pendiente--><g class="link" data-entity-1=".start." data-entity-2="Pendiente" data-source-line="3" data-uid="lnk4" id="link_.start._Pendiente"><path d="M424.99,63.6569 C424.99,77.5869 424.99,98.2469 424.99,117.9469" fill="none" id="*start*-to-Pendiente" style="stroke:#181818;stroke-width:1;"/><polygon fill="#181818" points="424.99,123.9469,428.99,114.9469,424.99,118.9469,420.99,114.9469,424.99,123.9469" style="stroke:#181818;stroke-width:1;"/></g><!--link Pendiente to TomandoAsistencia--><g class="link" data-entity-1="Pendiente" data-entity-2="TomandoAsistencia" data-source-line="5" data-uid="lnk6" id="link_Pendiente_TomandoAsistencia"><path d="M379.66,153.0569 C279.29,159.6269 45.29,177.6669 21.99,204.2969 C6,222.5669 18.6999,236.0112 43.6699,248.2212" fill="none" id="Pendiente-to-TomandoAsistencia" style="stroke:#181818;stroke-width:1;"/><polygon fill="#181818" points="49.06,250.8569,42.732,243.3099,44.5683,248.6605,39.2177,250.4967,49.06,250.8569" style="stroke:#181818;stroke-width:1;"/><text fill="#000000" font-family="sans-serif" font-size="13" lengthAdjust="spacing" textLength="152.312" x="22.99" y="217.3638">iniciarTomaAsistencia()</text></g><!--link TomandoAsistencia to Pendiente--><g class="link" data-entity-1="TomandoAsistencia" data-entity-2="Pendiente" data-source-line="6" data-uid="lnk7" id="link_TomandoAsistencia_Pendiente"><path d="M159.7,250.9469 C183.94,236.0469 216.49,217.3969 246.99,204.2969 C290.61,185.5669 337.009,172.041 373.569,162.641" fill="none" id="TomandoAsistencia-to-Pendiente" style="stroke:#181818;stroke-width:1;"/><polygon fill="#181818" points="379.38,161.1469,369.6674,159.514,374.5375,162.3919,371.6595,167.262,379.38,161.1469" style="stroke:#181818;stroke-width:1;"/><text fill="#000000" font-family="sans-serif" font-size="13" lengthAdjust="spacing" textLength="164.5313" x="247.99" y="217.3638">finalizarTomaAsistencia()</text></g><!--link Pendiente to Presente--><g class="link" data-entity-1="Pendiente" data-entity-2="Presente" data-source-line="8" data-uid="lnk9" id="link_Pendiente_Presente"><path d="M421.08,174.5169 C419.57,188.3469 418.85,205.9469 421.99,221.2969 C424.04,231.3769 425.579,236.4538 429.689,245.5038" fill="none" id="Pendiente-to-Presente" style="stroke:#181818;stroke-width:1;"/><polygon fill="#181818" points="432.17,250.9669,432.0905,241.1183,430.1025,246.4144,424.8065,244.4263,432.17,250.9669" style="stroke:#181818;stroke-width:1;"/><text fill="#000000" font-family="sans-serif" font-size="13" lengthAdjust="spacing" textLength="113.8643" x="422.99" y="217.3638">marcarPresente()</text></g><!--link Pendiente to Ausente--><g class="link" data-entity-1="Pendiente" data-entity-2="Ausente" data-source-line="9" data-uid="lnk11" id="link_Pendiente_Ausente"><path d="M470.51,163.8669 C493.7,172.5469 521.11,185.7069 540.99,204.2969 C554.75,217.1669 562.4296,230.5007 568.8696,245.5507" fill="none" id="Pendiente-to-Ausente" style="stroke:#181818;stroke-width:1;"/><polygon fill="#181818" points="571.23,251.0669,571.3668,241.219,569.263,246.47,564.0119,244.3662,571.23,251.0669" style="stroke:#181818;stroke-width:1;"/><text fill="#000000" font-family="sans-serif" font-size="13" lengthAdjust="spacing" textLength="109.8145" x="556.99" y="217.3638">marcarAusente()</text></g><!--link Pendiente to Justificada--><g class="link" data-entity-1="Pendiente" data-entity-2="Justificada" data-source-line="10" data-uid="lnk13" id="link_Pendiente_Justificada"><path d="M470.55,155.6169 C533.52,163.7069 643,180.7169 674.99,204.2969 C690.59,215.7969 698.7229,229.7555 704.9829,245.4155" fill="none" id="Pendiente-to-Justificada" style="stroke:#181818;stroke-width:1;"/><polygon fill="#181818" points="707.21,250.9869,707.5836,241.1451,705.3541,246.3441,700.1551,244.1146,707.21,250.9869" style="stroke:#181818;stroke-width:1;"/><text fill="#000000" font-family="sans-serif" font-size="13" lengthAdjust="spacing" textLength="113.6675" x="690.99" y="217.3638">aplicarDispensa()</text></g><!--link Presente to *end*--><g class="link" data-entity-1="Presente" data-entity-2=".end." data-source-line="12" data-uid="lnk15" id="link_Presente_.end."><path d="M479.75,301.7569 C510.38,323.3169 547.9525,349.7549 566.1925,362.5849" fill="none" id="Presente-to-*end*" style="stroke:#181818;stroke-width:1;"/><polygon fill="#181818" points="571.1,366.0369,566.04,357.5872,567.0104,363.1602,561.4374,364.1306,571.1,366.0369" style="stroke:#181818;stroke-width:1;"/></g><!--link Ausente to *end*--><g class="link" data-entity-1="Ausente" data-entity-2=".end." data-source-line="13" data-uid="lnk16" id="link_Ausente_.end."><path d="M579.99,301.7569 C579.99,321.3369 579.99,341.7869 579.99,356.0969" fill="none" id="Ausente-to-*end*" style="stroke:#181818;stroke-width:1;"/><polygon fill="#181818" points="579.99,362.0969,583.99,353.0969,579.99,357.0969,575.99,353.0969,579.99,362.0969" style="stroke:#181818;stroke-width:1;"/></g><!--link Justificada to *end*--><g class="link" data-entity-1="Justificada" data-entity-2=".end." data-source-line="14" data-uid="lnk17" id="link_Justificada_.end."><path d="M680.22,301.7569 C649.6,323.3169 612.0167,349.7536 593.7867,362.5836" fill="none" id="Justificada-to-*end*" style="stroke:#181818;stroke-width:1;"/><polygon fill="#181818" points="588.88,366.0369,598.5421,364.1281,592.9689,363.1592,593.9378,357.5859,588.88,366.0369" style="stroke:#181818;stroke-width:1;"/></g><!--SRC=[RP0n3i8m34NtdC8Z8FK234YLO67gm8OOhCQLBALE5QTBJqy23QMKxTj-_zj9vEW8BXhHUWLBK2jh96aPZRaV7b1L9sX8B9D4CkOZNuERxr6iNpnm11PE8kJHqj_jpPPTHITdnuAEfp_UdxLD89qzFOOMGsaaT4tMungSwmrt7JLonotQ_0GSN9BXp3gGwFk0iZBJwLzCIIxrTyBSUm80]--></g></svg>