<svg xmlns="http://www.w3.org/2000/svg" xmlns:xlink="http://www.w3.org/1999/xlink" contentStyleType="text/css" data-diagram-type="STATE" height="637px" preserveAspectRatio="none" style="width:745px;height:637px;background:#FFFFFF;" version="1.1" viewBox="0 0 745 637" width="745px" zoomAndPan="magnify"><title>Diagrama de estados - Lista de Alumnos (vista del Profesor)</title><defs/><g><g class="title" data-source-line="1"><text fill="#000000" font-family="sans-serif" font-size="14" font-weight="bold" lengthAdjust="spacing" textLength="437.5137" x="143.7932" y="23.5352">Diagrama de estados - Lista de Alumnos (vista del Profesor)</text></g><path d="M19.5,44.4883 L719.6,44.4883 A12.5,12.5 0 0 1 732.1,56.9883 L732.1,70.9766 L7,70.9766 L7,56.9883 A12.5,12.5 0 0 1 19.5,44.4883" fill="#F1F1F1"/><rect fill="none" height="586.9783" rx="12.5" ry="12.5" style="stroke:#181818;stroke-width:0.5;" width="725.1" x="7" y="44.4883"/><line style="stroke:#181818;stroke-width:0.5;" x1="7" x2="732.1" y1="70.9766" y2="70.9766"/><text fill="#000000" font-family="sans-serif" font-size="14" lengthAdjust="spacing" textLength="100.9121" x="319.0939" y="63.0234">ListaAlumnado</text><path d="M31.5,241.9766 L710.6,241.9766 A12.5,12.5 0 0 1 723.1,254.4766 L723.1,268.4648 L19,268.4648 L19,254.4766 A12.5,12.5 0 0 1 31.5,241.9766" fill="#F1F1F1"/><rect fill="none" height="201.4883" rx="12.5" ry="12.5" style="stroke:#181818;stroke-width:0.5;" width="704.1" x="19" y="241.9766"/><line style="stroke:#181818;stroke-width:0.5;" x1="19" x2="723.1" y1="268.4648" y2="268.4648"/><text fill="#000000" font-family="sans-serif" font-size="14" lengthAdjust="spacing" textLength="41.0908" x="350.5046" y="260.5117">Activa</text><g id="ListaAlumnado.Activa.ListaVigente"><rect fill="#F1F1F1" height="50" rx="12.5" ry="12.5" style="stroke:#181818;stroke-width:0.5;" width="103.0703" x="340.62" y="280.4648"/><line style="stroke:#181818;stroke-width:0.5;" x1="340.62" x2="443.6903" y1="306.9531" y2="306.9531"/><text fill="#000000" font-family="sans-serif" font-size="14" lengthAdjust="spacing" textLength="83.0703" x="350.62" y="299">ListaVigente</text></g><g id="ListaAlumnado.Activa.ListaProvisional"><rect fill="#F1F1F1" height="50" rx="12.5" ry="12.5" style="stroke:#181818;stroke-width:0.5;" width="125.2256" x="69.54" y="383.4648"/><line style="stroke:#181818;stroke-width:0.5;" x1="69.54" x2="194.7656" y1="409.9531" y2="409.9531"/><text fill="#000000" font-family="sans-serif" font-size="14" lengthAdjust="spacing" textLength="105.2256" x="79.54" y="402">ListaProvisional</text></g><g id="ListaAlumnado.Activa.EnConsulta"><rect fill="#F1F1F1" height="50" rx="12.5" ry="12.5" style="stroke:#181818;stroke-width:0.5;" width="96.0908" x="592.11" y="383.4648"/><line style="stroke:#181818;stroke-width:0.5;" x1="592.11" x2="688.2008" y1="409.9531" y2="409.9531"/><text fill="#000000" font-family="sans-serif" font-size="14" lengthAdjust="spacing" textLength="76.0908" x="602.11" y="402">EnConsulta</text></g><!--link ListaVigente to ListaProvisional--><g class="link" data-entity-1="ListaVigente" data-entity-2="ListaProvisional" data-source-line="9" data-uid="lnk8" id="link_ListaVigente_ListaProvisional"><path d="M340.33,308.9848 C248.14,314.0148 63.46,326.6948 44.15,348.4648 C30,364.4348 41.2655,375.5893 63.8055,385.6993" fill="none" id="ListaVigente-to-ListaProvisional" style="stroke:#181818;stroke-width:1;"/><polygon fill="#181818" points="69.28,388.1548,62.7052,380.8219,64.7179,386.1086,59.4312,388.1212,69.28,388.1548" style="stroke:#181818;stroke-width:1;"/><text fill="#000000" font-family="sans-serif" font-size="13" lengthAdjust="spacing" textLength="153.6196" x="45.15" y="362.0332">Nuevo alumno/dispensa</text></g><!--link ListaProvisional to ListaVigente--><g class="link" data-entity-1="ListaProvisional" data-entity-2="ListaVigente" data-source-line="10" data-uid="lnk9" id="link_ListaProvisional_ListaVigente"><path d="M173.64,382.9948 C182.26,377.4948 191.14,371.4848 199.15,365.4648 C208.21,358.6548 208.12,353.7348 218.15,348.4648 C256.4,328.3848 298.4804,318.6515 334.3804,313.1015" fill="none" id="ListaProvisional-to-ListaVigente" style="stroke:#181818;stroke-width:1;"/><polygon fill="#181818" points="340.31,312.1848,330.8045,309.6068,335.3687,312.9487,332.0268,317.5129,340.31,312.1848" style="stroke:#181818;stroke-width:1;"/><text fill="#000000" font-family="sans-serif" font-size="13" lengthAdjust="spacing" textLength="318.3032" x="219.15" y="362.0332">Actualizaci&#243;n aprobada por ordenaci&#243;n acad&#233;mica</text></g><!--link ListaVigente to EnConsulta--><g class="link" data-entity-1="ListaVigente" data-entity-2="EnConsulta" data-source-line="12" data-uid="lnk11" id="link_ListaVigente_EnConsulta"><path d="M444.18,316.1448 C473.85,322.8448 511.18,333.3148 542.15,348.4648 C553.57,354.0448 554.48,358.5648 565.15,365.4648 C574.43,371.4548 579.3904,374.5358 589.1804,380.0858" fill="none" id="ListaVigente-to-EnConsulta" style="stroke:#181818;stroke-width:1;"/><polygon fill="#181818" points="594.4,383.0448,588.5433,375.1266,590.0503,380.579,584.5979,382.0861,594.4,383.0448" style="stroke:#181818;stroke-width:1;"/><text fill="#000000" font-family="sans-serif" font-size="13" lengthAdjust="spacing" textLength="136.3921" x="566.15" y="362.0332">Consulta del profesor</text></g><!--link EnConsulta to ListaVigente--><g class="link" data-entity-1="EnConsulta" data-entity-2="ListaVigente" data-source-line="13" data-uid="lnk12" id="link_EnConsulta_ListaVigente"><path d="M688.43,384.1748 C703.71,373.7448 714.1,360.9848 703.15,348.4648 C670.12,310.6748 529.54,305.5188 449.97,305.5988" fill="none" id="EnConsulta-to-ListaVigente" style="stroke:#181818;stroke-width:1;"/><polygon fill="#181818" points="443.97,305.6048,452.974,309.5958,448.97,305.5998,452.966,301.5958,443.97,305.6048" style="stroke:#181818;stroke-width:1;"/></g><ellipse cx="371.05" cy="91.9766" fill="#222222" rx="10" ry="10" style="stroke:#222222;stroke-width:1;"/><g id="ListaAlumnado.Iniciada"><rect fill="#F1F1F1" height="50" rx="12.5" ry="12.5" style="stroke:#181818;stroke-width:0.5;" width="72.2607" x="334.92" y="138.9766"/><line style="stroke:#181818;stroke-width:0.5;" x1="334.92" x2="407.1807" y1="165.4648" y2="165.4648"/><text fill="#000000" font-family="sans-serif" font-size="14" lengthAdjust="spacing" textLength="52.2607" x="344.92" y="157.5117">Iniciada</text></g><g id="ListaAlumnado.Cerrada"><rect fill="#F1F1F1" height="50" rx="12.5" ry="12.5" style="stroke:#181818;stroke-width:0.5;" width="73.2178" x="334.44" y="496.4666"/><line style="stroke:#181818;stroke-width:0.5;" x1="334.44" x2="407.6578" y1="522.9548" y2="522.9548"/><text fill="#000000" font-family="sans-serif" font-size="14" lengthAdjust="spacing" textLength="53.2178" x="344.44" y="515.0017">Cerrada</text></g><ellipse cx="371.05" cy="610.4666" fill="none" rx="11" ry="11" style="stroke:#222222;stroke-width:1;"/><ellipse cx="371.05" cy="610.4666" fill="#222222" rx="6" ry="6" style="stroke:#222222;stroke-width:1;"/><!--link *start*ListaAlumnado to Iniciada--><g class="link" data-entity-1=".start.ListaAlumnado" data-entity-2="Iniciada" data-source-line="4" data-uid="lnk4" id="link_.start.ListaAlumnado_Iniciada"><path d="M371.05,102.4166 C371.05,111.6766 371.05,120.1666 371.05,132.6566" fill="none" id="*start*ListaAlumnado-to-Iniciada" style="stroke:#181818;stroke-width:1;"/><polygon fill="#181818" points="371.05,138.6566,375.05,129.6566,371.05,133.6566,367.05,129.6566,371.05,138.6566" style="stroke:#181818;stroke-width:1;"/></g><!--link Iniciada to Activa--><g class="link" data-entity-1="Iniciada" data-entity-2="Activa" data-source-line="6" data-uid="lnk5" id="link_Iniciada_Activa"><path d="M371.05,189.1866 C371.05,203.2666 371.05,216.0766 371.05,235.6666" fill="none" id="Iniciada-to-Activa" style="stroke:#181818;stroke-width:1;"/><polygon fill="#181818" points="371.05,241.6666,375.05,232.6666,371.05,236.6666,367.05,232.6666,371.05,241.6666" style="stroke:#181818;stroke-width:1;"/><text fill="#000000" font-family="sans-serif" font-size="13" lengthAdjust="spacing" textLength="155.1431" x="372.05" y="220.5449">Inicio del per&#237;odo lectivo</text></g><!--link Activa to Cerrada--><g class="link" data-entity-1="Activa" data-entity-2="Cerrada" data-source-line="17" data-uid="lnk14" id="link_Activa_Cerrada"><path d="M371.05,443.7166 C371.05,463.2466 371.05,475.9966 371.05,490.0866" fill="none" id="Activa-to-Cerrada" style="stroke:#181818;stroke-width:1;"/><polygon fill="#181818" points="371.05,496.0866,375.05,487.0866,371.05,491.0866,367.05,487.0866,371.05,496.0866" style="stroke:#181818;stroke-width:1;"/><text fill="#000000" font-family="sans-serif" font-size="13" lengthAdjust="spacing" textLength="139.9658" x="372.05" y="475.0349">Fin del per&#237;odo lectivo</text></g><!--link Cerrada to *end*ListaAlumnado--><g class="link" data-entity-1="Cerrada" data-entity-2=".end.ListaAlumnado" data-source-line="18" data-uid="lnk16" id="link_Cerrada_.end.ListaAlumnado"><path d="M371.05,546.6966 C371.05,563.9966 371.05,580.3866 371.05,593.2166" fill="none" id="Cerrada-to-*end*ListaAlumnado" style="stroke:#181818;stroke-width:1;"/><polygon fill="#181818" points="371.05,599.2166,375.05,590.2166,371.05,594.2166,367.05,590.2166,371.05,599.2166" style="stroke:#181818;stroke-width:1;"/><text fill="#000000" font-family="sans-serif" font-size="13" lengthAdjust="spacing" textLength="62.042" x="372.05" y="578.0349">Archivada</text></g><!--SRC=[RL4nJWCn4EpzYYq1wKH_1L8KG4AA41KDebZi9QpayvvitnL4UH055K-uZx5sxaA4ucerCpkUiJDdJt3Bk8tO8JW2IXcT96XWmpeMQEM7BYXqCSw8XwSexvGaNXgZKAQ3k0fr6tRcvUeLckO67W9RHeV6B5E5LpRpYD0UUAcUFSNfMtJRKs5biPwrEmDwwZtFlAMWJ76gWCRHR2m1lNe-3ZGAO4rzxJZr51B-RP-AZmwBPLkk6z3p9rgUVW9W7-MjnEubWaH7OI4ikkchOwlTpYQx2si9QV2vz3oEjUdyUdNlHFO_ZJ5xO-RwXLjJZ2LA2_SSph_P8YdoyWVQ9zeFDT0lsFy2]--></g></svg>