<svg xmlns="http://www.w3.org/2000/svg" xmlns:xlink="http://www.w3.org/1999/xlink" contentStyleType="text/css" data-diagram-type="CLASS" height="312px" preserveAspectRatio="none" style="width:431px;height:312px;background:#FFFFFF;" version="1.1" viewBox="0 0 431 312" width="431px" zoomAndPan="magnify"><defs/><g><!--class Alumno--><g class="entity" data-entity="Alumno" data-source-line="1" data-uid="ent0002" id="entity_Alumno"><rect fill="#F1F1F1" height="48" rx="2.5" ry="2.5" style="stroke:#181818;stroke-width:0.5;" width="85.416" x="7" y="7"/><ellipse cx="22" cy="23" fill="#ADD1B2" rx="11" ry="11" style="stroke:#181818;stroke-width:1;"/><path d="M24.9688,28.6406 Q24.3906,28.9375 23.75,29.0781 Q23.1094,29.2344 22.4063,29.2344 Q19.9063,29.2344 18.5781,27.5938 Q17.2656,25.9375 17.2656,22.8125 Q17.2656,19.6875 18.5781,18.0313 Q19.9063,16.375 22.4063,16.375 Q23.1094,16.375 23.75,16.5313 Q24.4063,16.6875 24.9688,16.9844 L24.9688,19.7031 Q24.3438,19.125 23.75,18.8594 Q23.1563,18.5781 22.5313,18.5781 Q21.1875,18.5781 20.5,19.6563 Q19.8125,20.7188 19.8125,22.8125 Q19.8125,24.9063 20.5,25.9844 Q21.1875,27.0469 22.5313,27.0469 Q23.1563,27.0469 23.75,26.7813 Q24.3438,26.5 24.9688,25.9219 L24.9688,28.6406 Z " fill="#000000"/><text fill="#000000" font-family="sans-serif" font-size="14" lengthAdjust="spacing" textLength="53.416" x="36" y="27.8467">Alumno</text><line style="stroke:#181818;stroke-width:0.5;" x1="8" x2="91.416" y1="39" y2="39"/><line style="stroke:#181818;stroke-width:0.5;" x1="8" x2="91.416" y1="47" y2="47"/></g><!--class Profesor--><g class="entity" data-entity="Profesor" data-source-line="3" data-uid="ent0003" id="entity_Profesor"><rect fill="#F1F1F1" height="48" rx="2.5" ry="2.5" style="stroke:#181818;stroke-width:0.5;" width="89.9209" x="300.5" y="132"/><ellipse cx="315.5" cy="148" fill="#ADD1B2" rx="11" ry="11" style="stroke:#181818;stroke-width:1;"/><path d="M318.4688,153.6406 Q317.8906,153.9375 317.25,154.0781 Q316.6094,154.2344 315.9063,154.2344 Q313.4063,154.2344 312.0781,152.5938 Q310.7656,150.9375 310.7656,147.8125 Q310.7656,144.6875 312.0781,143.0313 Q313.4063,141.375 315.9063,141.375 Q316.6094,141.375 317.25,141.5313 Q317.9063,141.6875 318.4688,141.9844 L318.4688,144.7031 Q317.8438,144.125 317.25,143.8594 Q316.6563,143.5781 316.0313,143.5781 Q314.6875,143.5781 314,144.6563 Q313.3125,145.7188 313.3125,147.8125 Q313.3125,149.9063 314,150.9844 Q314.6875,152.0469 316.0313,152.0469 Q316.6563,152.0469 317.25,151.7813 Q317.8438,151.5 318.4688,150.9219 L318.4688,153.6406 Z " fill="#000000"/><text fill="#000000" font-family="sans-serif" font-size="14" lengthAdjust="spacing" textLength="57.9209" x="329.5" y="152.8467">Profesor</text><line style="stroke:#181818;stroke-width:0.5;" x1="301.5" x2="389.4209" y1="164" y2="164"/><line style="stroke:#181818;stroke-width:0.5;" x1="301.5" x2="389.4209" y1="172" y2="172"/></g><!--class DirectorDeGrado--><g class="entity" data-entity="DirectorDeGrado" data-source-line="5" data-uid="ent0004" id="entity_DirectorDeGrado"><rect fill="#F1F1F1" height="48" rx="2.5" ry="2.5" style="stroke:#181818;stroke-width:0.5;" width="150.5762" x="134" y="7"/><ellipse cx="149" cy="23" fill="#ADD1B2" rx="11" ry="11" style="stroke:#181818;stroke-width:1;"/><path d="M151.9688,28.6406 Q151.3906,28.9375 150.75,29.0781 Q150.1094,29.2344 149.4063,29.2344 Q146.9063,29.2344 145.5781,27.5938 Q144.2656,25.9375 144.2656,22.8125 Q144.2656,19.6875 145.5781,18.0313 Q146.9063,16.375 149.4063,16.375 Q150.1094,16.375 150.75,16.5313 Q151.4063,16.6875 151.9688,16.9844 L151.9688,19.7031 Q151.3438,19.125 150.75,18.8594 Q150.1563,18.5781 149.5313,18.5781 Q148.1875,18.5781 147.5,19.6563 Q146.8125,20.7188 146.8125,22.8125 Q146.8125,24.9063 147.5,25.9844 Q148.1875,27.0469 149.5313,27.0469 Q150.1563,27.0469 150.75,26.7813 Q151.3438,26.5 151.9688,25.9219 L151.9688,28.6406 Z " fill="#000000"/><text fill="#000000" font-family="sans-serif" font-size="14" lengthAdjust="spacing" textLength="118.5762" x="163" y="27.8467">DirectorDeGrado</text><line style="stroke:#181818;stroke-width:0.5;" x1="135" x2="283.5762" y1="39" y2="39"/><line style="stroke:#181818;stroke-width:0.5;" x1="135" x2="283.5762" y1="47" y2="47"/></g><!--class Secretar?a--><g class="entity" data-entity="Secretaría" data-source-line="7" data-uid="ent0005" id="entity_Secretaría"><rect fill="#F1F1F1" height="48" rx="2.5" ry="2.5" style="stroke:#181818;stroke-width:0.5;" width="103.8594" x="320.5" y="7"/><ellipse cx="335.5" cy="23" fill="#ADD1B2" rx="11" ry="11" style="stroke:#181818;stroke-width:1;"/><path d="M338.4688,28.6406 Q337.8906,28.9375 337.25,29.0781 Q336.6094,29.2344 335.9063,29.2344 Q333.4063,29.2344 332.0781,27.5938 Q330.7656,25.9375 330.7656,22.8125 Q330.7656,19.6875 332.0781,18.0313 Q333.4063,16.375 335.9063,16.375 Q336.6094,16.375 337.25,16.5313 Q337.9063,16.6875 338.4688,16.9844 L338.4688,19.7031 Q337.8438,19.125 337.25,18.8594 Q336.6563,18.5781 336.0313,18.5781 Q334.6875,18.5781 334,19.6563 Q333.3125,20.7188 333.3125,22.8125 Q333.3125,24.9063 334,25.9844 Q334.6875,27.0469 336.0313,27.0469 Q336.6563,27.0469 337.25,26.7813 Q337.8438,26.5 338.4688,25.9219 L338.4688,28.6406 Z " fill="#000000"/><text fill="#000000" font-family="sans-serif" font-size="14" lengthAdjust="spacing" textLength="71.8594" x="349.5" y="27.8467">Secretaría</text><line style="stroke:#181818;stroke-width:0.5;" x1="321.5" x2="423.3594" y1="39" y2="39"/><line style="stroke:#181818;stroke-width:0.5;" x1="321.5" x2="423.3594" y1="47" y2="47"/></g><!--class Asignatura--><g class="entity" data-entity="Asignatura" data-source-line="9" data-uid="ent0006" id="entity_Asignatura"><rect fill="#F1F1F1" height="48" rx="2.5" ry="2.5" style="stroke:#181818;stroke-width:0.5;" width="107.7969" x="163.5" y="257"/><ellipse cx="178.5" cy="273" fill="#ADD1B2" rx="11" ry="11" style="stroke:#181818;stroke-width:1;"/><path d="M181.4688,278.6406 Q180.8906,278.9375 180.25,279.0781 Q179.6094,279.2344 178.9063,279.2344 Q176.4063,279.2344 175.0781,277.5938 Q173.7656,275.9375 173.7656,272.8125 Q173.7656,269.6875 175.0781,268.0313 Q176.4063,266.375 178.9063,266.375 Q179.6094,266.375 180.25,266.5313 Q180.9063,266.6875 181.4688,266.9844 L181.4688,269.7031 Q180.8438,269.125 180.25,268.8594 Q179.6563,268.5781 179.0313,268.5781 Q177.6875,268.5781 177,269.6563 Q176.3125,270.7188 176.3125,272.8125 Q176.3125,274.9063 177,275.9844 Q177.6875,277.0469 179.0313,277.0469 Q179.6563,277.0469 180.25,276.7813 Q180.8438,276.5 181.4688,275.9219 L181.4688,278.6406 Z " fill="#000000"/><text fill="#000000" font-family="sans-serif" font-size="14" lengthAdjust="spacing" textLength="75.7969" x="192.5" y="277.8467">Asignatura</text><line style="stroke:#181818;stroke-width:0.5;" x1="164.5" x2="270.2969" y1="289" y2="289"/><line style="stroke:#181818;stroke-width:0.5;" x1="164.5" x2="270.2969" y1="297" y2="297"/></g><!--class Dispensa--><g class="entity" data-entity="Dispensa" data-source-line="11" data-uid="ent0007" id="entity_Dispensa"><rect fill="#F1F1F1" height="48" rx="2.5" ry="2.5" style="stroke:#181818;stroke-width:0.5;" width="96.21" x="169.5" y="132"/><ellipse cx="184.5" cy="148" fill="#ADD1B2" rx="11" ry="11" style="stroke:#181818;stroke-width:1;"/><path d="M187.4688,153.6406 Q186.8906,153.9375 186.25,154.0781 Q185.6094,154.2344 184.9063,154.2344 Q182.4063,154.2344 181.0781,152.5938 Q179.7656,150.9375 179.7656,147.8125 Q179.7656,144.6875 181.0781,143.0313 Q182.4063,141.375 184.9063,141.375 Q185.6094,141.375 186.25,141.5313 Q186.9063,141.6875 187.4688,141.9844 L187.4688,144.7031 Q186.8438,144.125 186.25,143.8594 Q185.6563,143.5781 185.0313,143.5781 Q183.6875,143.5781 183,144.6563 Q182.3125,145.7188 182.3125,147.8125 Q182.3125,149.9063 183,150.9844 Q183.6875,152.0469 185.0313,152.0469 Q185.6563,152.0469 186.25,151.7813 Q186.8438,151.5 187.4688,150.9219 L187.4688,153.6406 Z " fill="#000000"/><text fill="#000000" font-family="sans-serif" font-size="14" lengthAdjust="spacing" textLength="64.21" x="198.5" y="152.8467">Dispensa</text><line style="stroke:#181818;stroke-width:0.5;" x1="170.5" x2="264.71" y1="164" y2="164"/><line style="stroke:#181818;stroke-width:0.5;" x1="170.5" x2="264.71" y1="172" y2="172"/></g><!--link Alumno to Dispensa--><g class="link" data-entity-1="Alumno" data-entity-2="Dispensa" data-source-line="13" data-uid="lnk8" id="link_Alumno_Dispensa"><path codeLine="13" d="M81.1,55.14 C111.14,77.13 151.2091,106.4652 181.1991,128.4252" fill="none" id="Alumno-to-Dispensa" style="stroke:#181818;stroke-width:1;"/><polygon fill="#181818" points="186.04,131.97,181.1418,123.4256,182.0059,129.016,176.4154,129.8802,186.04,131.97" style="stroke:#181818;stroke-width:1;"/><text fill="#000000" font-family="sans-serif" font-size="13" lengthAdjust="spacing" textLength="32.9443" x="145.5" y="98.0669">tiene</text></g><!--link Dispensa to Asignatura--><g class="link" data-entity-1="Dispensa" data-entity-2="Asignatura" data-source-line="14" data-uid="lnk9" id="link_Dispensa_Asignatura"><path codeLine="14" d="M217.5,180.14 C217.5,202.13 217.5,229.01 217.5,250.97" fill="none" id="Dispensa-to-Asignatura" style="stroke:#181818;stroke-width:1;"/><polygon fill="#181818" points="217.5,256.97,221.5,247.97,217.5,251.97,213.5,247.97,217.5,256.97" style="stroke:#181818;stroke-width:1;"/><text fill="#000000" font-family="sans-serif" font-size="13" lengthAdjust="spacing" textLength="50.6543" x="218.5" y="223.0669">aplica a</text></g><!--link Alumno to Asignatura--><g class="link" data-entity-1="Alumno" data-entity-2="Asignatura" data-source-line="15" data-uid="lnk10" id="link_Alumno_Asignatura"><path codeLine="15" d="M43.31,55.1 C36.44,85.85 29.05,140.89 51.5,180 C75.53,221.87 119.1904,246.0391 157.8404,261.1191" fill="none" id="Alumno-to-Asignatura" style="stroke:#181818;stroke-width:1;"/><polygon fill="#181818" points="163.43,263.3,156.4995,256.3023,158.772,261.4826,153.5917,263.7551,163.43,263.3" style="stroke:#181818;stroke-width:1;"/><text fill="#000000" font-family="sans-serif" font-size="13" lengthAdjust="spacing" textLength="98.2236" x="52.5" y="160.5669">matriculado en</text></g><!--link Profesor to Asignatura--><g class="link" data-entity-1="Profesor" data-entity-2="Asignatura" data-source-line="16" data-uid="lnk11" id="link_Profesor_Asignatura"><path codeLine="16" d="M323.88,180.13 C310.73,193.99 293.44,211.8 277.5,227 C266.94,237.07 259.4679,243.8517 248.9979,253.0017" fill="none" id="Profesor-to-Asignatura" style="stroke:#181818;stroke-width:1;"/><polygon fill="#181818" points="244.48,256.95,253.889,254.0395,248.2449,253.6598,248.6246,248.0157,244.48,256.95" style="stroke:#181818;stroke-width:1;"/><text fill="#000000" font-family="sans-serif" font-size="13" lengthAdjust="spacing" textLength="99.5439" x="296.5" y="223.0669">responsable de</text></g><!--link DirectorDeGrado to Dispensa--><g class="link" data-entity-1="DirectorDeGrado" data-entity-2="Dispensa" data-source-line="17" data-uid="lnk12" id="link_DirectorDeGrado_Dispensa"><path codeLine="17" d="M211,55.14 C212.44,77.13 214.1801,104.0227 215.6101,125.9827" fill="none" id="DirectorDeGrado-to-Dispensa" style="stroke:#181818;stroke-width:1;"/><polygon fill="#181818" points="216,131.97,219.4067,122.7291,215.6751,126.9806,211.4236,123.2489,216,131.97" style="stroke:#181818;stroke-width:1;"/><text fill="#000000" font-family="sans-serif" font-size="13" lengthAdjust="spacing" textLength="65.1016" x="215.5" y="98.0669">revisor de</text></g><!--link Secretar?a to Dispensa--><g class="link" data-entity-1="Secretaría" data-entity-2="Dispensa" data-source-line="18" data-uid="lnk13" id="link_Secretaría_Dispensa"><path codeLine="18" d="M345.96,55.15 C329.85,69.01 308.74,86.83 289.5,102 C276.7,112.09 267.1382,119.2852 254.5882,128.4352" fill="none" id="Secretaría-to-Dispensa" style="stroke:#181818;stroke-width:1;"/><polygon fill="#181818" points="249.74,131.97,259.3689,129.9,253.7802,129.0244,254.6558,123.4357,249.74,131.97" style="stroke:#181818;stroke-width:1;"/><text fill="#000000" font-family="sans-serif" font-size="13" lengthAdjust="spacing" textLength="55.8911" x="311.5" y="98.0669">gestiona</text></g><!--SRC=[POzD2eD038NtSufSm0kuA0X2juMU81rJ2OmJISPkIe_KK_HYhGewOvVvydW_Fg0PD64QeZnVpldblgZSoKHXHoqh-IJQqbcna-np9Q-KK3zlp6XZt4TCas9XOYD5Mz4Q2bLrsdaDYIaIk8tCxyoh1Xm3UmI4tA1G39YK_HJccXJTDkPFg6IZ_49kWQ1RGikDXsfA3vvzEdBvveEg9qii4Ry0]--></g><script xmlns=""/></svg>