<svg xmlns="http://www.w3.org/2000/svg" xmlns:xlink="http://www.w3.org/1999/xlink" contentStyleType="text/css" data-diagram-type="STATE" height="547px" preserveAspectRatio="none" style="width:471px;height:547px;background:#FFFFFF;" version="1.1" viewBox="0 0 471 547" width="471px" zoomAndPan="magnify"><title>Diagrama de estados: Ciclo de vida de una Dispensa</title><defs/><g><g class="title" data-source-line="1"><text fill="#000000" font-family="sans-serif" font-size="14" font-weight="bold" lengthAdjust="spacing" textLength="413.9365" x="21.7954" y="22.9951">Diagrama de estados: Ciclo de vida de una Dispensa</text></g><g id="Solicitada"><rect fill="#F1F1F1" height="50" rx="12.5" ry="12.5" style="stroke:#181818;stroke-width:0.5;" width="88.3525" x="212.82" y="140.2969"/><line style="stroke:#181818;stroke-width:0.5;" x1="212.82" x2="301.1725" y1="166.5938" y2="166.5938"/><text fill="#000000" font-family="sans-serif" font-size="14" lengthAdjust="spacing" textLength="68.3525" x="222.82" y="158.292">Solicitada</text></g><g id="EnRevision"><rect fill="#F1F1F1" height="50" rx="12.5" ry="12.5" style="stroke:#181818;stroke-width:0.5;" width="184.1719" x="164.91" y="267.2969"/><line style="stroke:#181818;stroke-width:0.5;" x1="164.91" x2="349.0819" y1="293.5938" y2="293.5938"/><text fill="#000000" font-family="sans-serif" font-size="14" lengthAdjust="spacing" textLength="164.1719" x="174.91" y="285.292">En revisi&#243;n del Director</text></g><g id="Aprobada"><rect fill="#F1F1F1" height="64.2344" rx="12.5" ry="12.5" style="stroke:#181818;stroke-width:0.5;" width="195.9922" x="7" y="394.2969"/><line style="stroke:#181818;stroke-width:0.5;" x1="7" x2="202.9922" y1="420.5938" y2="420.5938"/><text fill="#000000" font-family="sans-serif" font-size="14" lengthAdjust="spacing" textLength="67.7168" x="71.1377" y="412.292">Aprobada</text><text fill="#000000" font-family="sans-serif" font-size="12" lengthAdjust="spacing" textLength="175.9922" x="12" y="436.7324">Secretar&#237;a informa al Alumno</text><text fill="#000000" font-family="sans-serif" font-size="12" lengthAdjust="spacing" textLength="166.7285" x="12" y="450.7012">Director informa al Profesor</text></g><g id="Rechazada"><rect fill="#F1F1F1" height="64.2344" rx="12.5" ry="12.5" style="stroke:#181818;stroke-width:0.5;" width="195.9922" x="238" y="394.2969"/><line style="stroke:#181818;stroke-width:0.5;" x1="238" x2="433.9922" y1="420.5938" y2="420.5938"/><text fill="#000000" font-family="sans-serif" font-size="14" lengthAdjust="spacing" textLength="76.8838" x="297.5542" y="412.292">Rechazada</text><text fill="#000000" font-family="sans-serif" font-size="12" lengthAdjust="spacing" textLength="175.9922" x="243" y="436.7324">Secretar&#237;a informa al Alumno</text><text fill="#000000" font-family="sans-serif" font-size="12" lengthAdjust="spacing" textLength="166.7285" x="243" y="450.7012">Director informa al Profesor</text></g><ellipse cx="257" cy="53.2969" fill="#222222" rx="10" ry="10" style="stroke:#222222;stroke-width:1;"/><ellipse cx="220" cy="530.5269" fill="none" rx="11" ry="11" style="stroke:#222222;stroke-width:1;"/><ellipse cx="220" cy="530.5269" fill="#222222" rx="6" ry="6" style="stroke:#222222;stroke-width:1;"/><!--link *start* to Solicitada--><g class="link" data-entity-1=".start." data-entity-2="Solicitada" data-source-line="3" data-uid="lnk3" id="link_.start._Solicitada"><path d="M257,63.6669 C257,80.3969 257,109.8869 257,133.9169" fill="none" id="*start*-to-Solicitada" style="stroke:#181818;stroke-width:1;"/><polygon fill="#181818" points="257,139.9169,261,130.9169,257,134.9169,253,130.9169,257,139.9169" style="stroke:#181818;stroke-width:1;"/><text fill="#000000" font-family="sans-serif" font-size="13" lengthAdjust="spacing" textLength="99.5059" x="258" y="106.3638">Alumno solicita</text></g><!--link Solicitada to EnRevision--><g class="link" data-entity-1="Solicitada" data-entity-2="EnRevision" data-source-line="6" data-uid="lnk4" id="link_Solicitada_EnRevision"><path d="M257,190.6869 C257,212.7169 257,238.9469 257,260.9569" fill="none" id="Solicitada-to-EnRevision" style="stroke:#181818;stroke-width:1;"/><polygon fill="#181818" points="257,266.9569,261,257.9569,257,261.9569,253,257.9569,257,266.9569" style="stroke:#181818;stroke-width:1;"/><text fill="#000000" font-family="sans-serif" font-size="13" lengthAdjust="spacing" textLength="178.7183" x="258" y="233.3638">Secretar&#237;a env&#237;a al Director</text></g><!--link EnRevision to Aprobada--><g class="link" data-entity-1="EnRevision" data-entity-2="Aprobada" data-source-line="9" data-uid="lnk5" id="link_EnRevision_Aprobada"><path d="M171.18,317.7569 C155.91,325.2469 141.3,334.8969 130,347.2969 C118.29,360.1269 113.3129,372.607 109.9929,388.287" fill="none" id="EnRevision-to-Aprobada" style="stroke:#181818;stroke-width:1;"/><polygon fill="#181818" points="108.75,394.1569,114.5275,386.1806,109.7857,389.2653,106.701,384.5235,108.75,394.1569" style="stroke:#181818;stroke-width:1;"/><text fill="#000000" font-family="sans-serif" font-size="13" lengthAdjust="spacing" textLength="110.6587" x="131" y="360.3638">Director aprueba</text></g><!--link EnRevision to Rechazada--><g class="link" data-entity-1="EnRevision" data-entity-2="Rechazada" data-source-line="10" data-uid="lnk6" id="link_EnRevision_Rechazada"><path d="M250.3,317.5469 C247.69,331.8769 246.8,349.9569 254,364.2969 C259.81,375.8769 264.3389,382.0242 274.4689,390.3242" fill="none" id="EnRevision-to-Rechazada" style="stroke:#181818;stroke-width:1;"/><polygon fill="#181818" points="279.11,394.1269,274.6835,385.3288,275.2424,390.958,269.6133,391.5169,279.11,394.1269" style="stroke:#181818;stroke-width:1;"/><text fill="#000000" font-family="sans-serif" font-size="13" lengthAdjust="spacing" textLength="108.126" x="255" y="360.3638">Director rechaza</text></g><!--link Rechazada to EnRevision--><g class="link" data-entity-1="Rechazada" data-entity-2="EnRevision" data-source-line="16" data-uid="lnk7" id="link_Rechazada_EnRevision"><path d="M362.33,393.8069 C371.29,379.0969 377.01,361.7069 368,347.2969 C360.21,334.8469 353.8197,328.2251 341.0597,320.7651" fill="none" id="Rechazada-to-EnRevision" style="stroke:#181818;stroke-width:1;"/><polygon fill="#181818" points="335.88,317.7369,341.6307,325.7324,340.1964,320.2604,345.6684,318.8261,335.88,317.7369" style="stroke:#181818;stroke-width:1;"/><text fill="#000000" font-family="sans-serif" font-size="13" lengthAdjust="spacing" textLength="89.5273" x="374" y="360.3638">Alumno apela</text></g><!--link Aprobada to *end*--><g class="link" data-entity-1="Aprobada" data-entity-2=".end." data-source-line="18" data-uid="lnk9" id="link_Aprobada_.end."><path d="M140.44,458.8769 C165.78,481.3869 193.3735,505.883 207.8335,518.723" fill="none" id="Aprobada-to-*end*" style="stroke:#181818;stroke-width:1;"/><polygon fill="#181818" points="212.32,522.7069,208.2462,513.7401,208.5812,519.387,202.9343,519.7221,212.32,522.7069" style="stroke:#181818;stroke-width:1;"/></g><!--link Rechazada to *end*--><g class="link" data-entity-1="Rechazada" data-entity-2=".end." data-source-line="19" data-uid="lnk10" id="link_Rechazada_.end."><path d="M300.25,458.8769 C274.68,481.3869 246.8228,505.9014 232.2428,518.7414" fill="none" id="Rechazada-to-*end*" style="stroke:#181818;stroke-width:1;"/><polygon fill="#181818" points="227.74,522.7069,237.1378,519.7606,231.4923,519.4023,231.8506,513.7568,227.74,522.7069" style="stroke:#181818;stroke-width:1;"/></g><!--SRC=[VP4nRiCm34LtdOB84g10Bf2XWD5cBv8nwC38T2j0fWnAzj3Rz02PUWHVh98T9O9hT3ByzJxr-HLCi0Il1Zy4MuIQW7p0slazl1XjNL86KqydFMCaVKViKQdpqpliTizmSjPe4pq8UwXitx83VzEKYiC25OmgyEG-y946uutZw3wH5WeeunM1U4WVjF5A8HsSv6651Jri3Wmo_Oy_75C- -8qgo7HNrOcxp3ap0zX9JnTSeaVId_YrO6KMSuuyJcNXRb8F-vyTRmrXHpOwxv4I5njTE9EYjb1f7Sta0VlWsl4x61qthuc3J0zadS_F1erXjEHLiMnPg-76IJlrEYTHQwqKr9kuXdngl-pa_v6hxQtC_0K0]--></g></svg>