<svg xmlns="http://www.w3.org/2000/svg" xmlns:xlink="http://www.w3.org/1999/xlink" contentStyleType="text/css" data-diagram-type="CLASS" height="474px" preserveAspectRatio="none" style="width:399px;height:474px;background:#FFFFFF;" version="1.1" viewBox="0 0 399 474" width="399px" zoomAndPan="magnify"><title>Diagrama de clases - Listas del alumnado</title><defs/><g><g class="title" data-source-line="1"><text fill="#000000" font-family="sans-serif" font-size="14" font-weight="bold" lengthAdjust="spacing" textLength="328.248" x="28.8364" y="22.9951">Diagrama de clases - Listas del alumnado</text></g><!--class Alumno--><g class="entity" data-entity="Alumno" data-source-line="3" data-uid="ent0002" id="entity_Alumno"><rect fill="#F1F1F1" height="48" rx="2.5" ry="2.5" style="stroke:#181818;stroke-width:0.5;" width="85.416" x="156.5" y="44.2969"/><ellipse cx="171.5" cy="60.2969" fill="#ADD1B2" rx="11" ry="11" style="stroke:#181818;stroke-width:1;"/><path d="M174.4688,65.9375 Q173.8906,66.2344 173.25,66.375 Q172.6094,66.5313 171.9063,66.5313 Q169.4063,66.5313 168.0781,64.8906 Q166.7656,63.2344 166.7656,60.1094 Q166.7656,56.9844 168.0781,55.3281 Q169.4063,53.6719 171.9063,53.6719 Q172.6094,53.6719 173.25,53.8281 Q173.9063,53.9844 174.4688,54.2813 L174.4688,57 Q173.8438,56.4219 173.25,56.1563 Q172.6563,55.875 172.0313,55.875 Q170.6875,55.875 170,56.9531 Q169.3125,58.0156 169.3125,60.1094 Q169.3125,62.2031 170,63.2813 Q170.6875,64.3438 172.0313,64.3438 Q172.6563,64.3438 173.25,64.0781 Q173.8438,63.7969 174.4688,63.2188 L174.4688,65.9375 Z " fill="#000000"/><text fill="#000000" font-family="sans-serif" font-size="14" lengthAdjust="spacing" textLength="53.416" x="185.5" y="65.1436">Alumno</text><line style="stroke:#181818;stroke-width:0.5;" x1="157.5" x2="240.916" y1="76.2969" y2="76.2969"/><line style="stroke:#181818;stroke-width:0.5;" x1="157.5" x2="240.916" y1="84.2969" y2="84.2969"/></g><!--class Profesor--><g class="entity" data-entity="Profesor" data-source-line="4" data-uid="ent0003" id="entity_Profesor"><rect fill="#F1F1F1" height="48" rx="2.5" ry="2.5" style="stroke:#181818;stroke-width:0.5;" width="89.9209" x="303" y="294.2969"/><ellipse cx="318" cy="310.2969" fill="#ADD1B2" rx="11" ry="11" style="stroke:#181818;stroke-width:1;"/><path d="M320.9688,315.9375 Q320.3906,316.2344 319.75,316.375 Q319.1094,316.5313 318.4063,316.5313 Q315.9063,316.5313 314.5781,314.8906 Q313.2656,313.2344 313.2656,310.1094 Q313.2656,306.9844 314.5781,305.3281 Q315.9063,303.6719 318.4063,303.6719 Q319.1094,303.6719 319.75,303.8281 Q320.4063,303.9844 320.9688,304.2813 L320.9688,307 Q320.3438,306.4219 319.75,306.1563 Q319.1563,305.875 318.5313,305.875 Q317.1875,305.875 316.5,306.9531 Q315.8125,308.0156 315.8125,310.1094 Q315.8125,312.2031 316.5,313.2813 Q317.1875,314.3438 318.5313,314.3438 Q319.1563,314.3438 319.75,314.0781 Q320.3438,313.7969 320.9688,313.2188 L320.9688,315.9375 Z " fill="#000000"/><text fill="#000000" font-family="sans-serif" font-size="14" lengthAdjust="spacing" textLength="57.9209" x="332" y="315.1436">Profesor</text><line style="stroke:#181818;stroke-width:0.5;" x1="304" x2="391.9209" y1="326.2969" y2="326.2969"/><line style="stroke:#181818;stroke-width:0.5;" x1="304" x2="391.9209" y1="334.2969" y2="334.2969"/></g><!--class ListaDeAlumnos--><g class="entity" data-entity="ListaDeAlumnos" data-source-line="5" data-uid="ent0004" id="entity_ListaDeAlumnos"><rect fill="#F1F1F1" height="48" rx="2.5" ry="2.5" style="stroke:#181818;stroke-width:0.5;" width="145.1553" x="177.5" y="419.2969"/><ellipse cx="192.5" cy="435.2969" fill="#ADD1B2" rx="11" ry="11" style="stroke:#181818;stroke-width:1;"/><path d="M195.4688,440.9375 Q194.8906,441.2344 194.25,441.375 Q193.6094,441.5313 192.9063,441.5313 Q190.4063,441.5313 189.0781,439.8906 Q187.7656,438.2344 187.7656,435.1094 Q187.7656,431.9844 189.0781,430.3281 Q190.4063,428.6719 192.9063,428.6719 Q193.6094,428.6719 194.25,428.8281 Q194.9063,428.9844 195.4688,429.2813 L195.4688,432 Q194.8438,431.4219 194.25,431.1563 Q193.6563,430.875 193.0313,430.875 Q191.6875,430.875 191,431.9531 Q190.3125,433.0156 190.3125,435.1094 Q190.3125,437.2031 191,438.2813 Q191.6875,439.3438 193.0313,439.3438 Q193.6563,439.3438 194.25,439.0781 Q194.8438,438.7969 195.4688,438.2188 L195.4688,440.9375 Z " fill="#000000"/><text fill="#000000" font-family="sans-serif" font-size="14" lengthAdjust="spacing" textLength="113.1553" x="206.5" y="440.1436">ListaDeAlumnos</text><line style="stroke:#181818;stroke-width:0.5;" x1="178.5" x2="321.6553" y1="451.2969" y2="451.2969"/><line style="stroke:#181818;stroke-width:0.5;" x1="178.5" x2="321.6553" y1="459.2969" y2="459.2969"/></g><!--class OrdenacionAcademica--><g class="entity" data-entity="OrdenacionAcademica" data-source-line="6" data-uid="ent0005" id="entity_OrdenacionAcademica"><rect fill="#F1F1F1" height="48" rx="2.5" ry="2.5" style="stroke:#181818;stroke-width:0.5;" width="189.9102" x="7" y="294.2969"/><ellipse cx="22" cy="310.2969" fill="#ADD1B2" rx="11" ry="11" style="stroke:#181818;stroke-width:1;"/><path d="M24.9688,315.9375 Q24.3906,316.2344 23.75,316.375 Q23.1094,316.5313 22.4063,316.5313 Q19.9063,316.5313 18.5781,314.8906 Q17.2656,313.2344 17.2656,310.1094 Q17.2656,306.9844 18.5781,305.3281 Q19.9063,303.6719 22.4063,303.6719 Q23.1094,303.6719 23.75,303.8281 Q24.4063,303.9844 24.9688,304.2813 L24.9688,307 Q24.3438,306.4219 23.75,306.1563 Q23.1563,305.875 22.5313,305.875 Q21.1875,305.875 20.5,306.9531 Q19.8125,308.0156 19.8125,310.1094 Q19.8125,312.2031 20.5,313.2813 Q21.1875,314.3438 22.5313,314.3438 Q23.1563,314.3438 23.75,314.0781 Q24.3438,313.7969 24.9688,313.2188 L24.9688,315.9375 Z " fill="#000000"/><text fill="#000000" font-family="sans-serif" font-size="14" lengthAdjust="spacing" textLength="157.9102" x="36" y="315.1436">OrdenacionAcademica</text><line style="stroke:#181818;stroke-width:0.5;" x1="8" x2="195.9102" y1="326.2969" y2="326.2969"/><line style="stroke:#181818;stroke-width:0.5;" x1="8" x2="195.9102" y1="334.2969" y2="334.2969"/></g><!--class Matricula--><g class="entity" data-entity="Matricula" data-source-line="7" data-uid="ent0006" id="entity_Matricula"><rect fill="#F1F1F1" height="48" rx="2.5" ry="2.5" style="stroke:#181818;stroke-width:0.5;" width="96.832" x="81.5" y="169.2969"/><ellipse cx="96.5" cy="185.2969" fill="#ADD1B2" rx="11" ry="11" style="stroke:#181818;stroke-width:1;"/><path d="M99.4688,190.9375 Q98.8906,191.2344 98.25,191.375 Q97.6094,191.5313 96.9063,191.5313 Q94.4063,191.5313 93.0781,189.8906 Q91.7656,188.2344 91.7656,185.1094 Q91.7656,181.9844 93.0781,180.3281 Q94.4063,178.6719 96.9063,178.6719 Q97.6094,178.6719 98.25,178.8281 Q98.9063,178.9844 99.4688,179.2813 L99.4688,182 Q98.8438,181.4219 98.25,181.1563 Q97.6563,180.875 97.0313,180.875 Q95.6875,180.875 95,181.9531 Q94.3125,183.0156 94.3125,185.1094 Q94.3125,187.2031 95,188.2813 Q95.6875,189.3438 97.0313,189.3438 Q97.6563,189.3438 98.25,189.0781 Q98.8438,188.7969 99.4688,188.2188 L99.4688,190.9375 Z " fill="#000000"/><text fill="#000000" font-family="sans-serif" font-size="14" lengthAdjust="spacing" textLength="64.832" x="110.5" y="190.1436">Matricula</text><line style="stroke:#181818;stroke-width:0.5;" x1="82.5" x2="177.332" y1="201.2969" y2="201.2969"/><line style="stroke:#181818;stroke-width:0.5;" x1="82.5" x2="177.332" y1="209.2969" y2="209.2969"/></g><!--link Alumno to Matricula--><g class="link" data-entity-1="Alumno" data-entity-2="Matricula" data-source-line="9" data-uid="lnk7" id="link_Alumno_Matricula"><path codeLine="9" d="M186.02,92.4369 C173.69,114.4269 158.1757,142.0741 145.8557,164.0341" fill="none" id="Alumno-to-Matricula" style="stroke:#181818;stroke-width:1;"/><polygon fill="#181818" points="142.92,169.2669,150.812,163.3749,145.3664,164.9062,143.835,159.4606,142.92,169.2669" style="stroke:#181818;stroke-width:1;"/><text fill="#000000" font-family="sans-serif" font-size="13" lengthAdjust="spacing" textLength="43.3228" x="170" y="135.3638">realiza</text></g><!--link Matricula to OrdenacionAcademica--><g class="link" data-entity-1="Matricula" data-entity-2="OrdenacionAcademica" data-source-line="10" data-uid="lnk8" id="link_Matricula_OrdenacionAcademica"><path codeLine="10" d="M118.54,217.5169 C114.55,226.5969 110.46,237.2269 108,247.2969 C104.27,262.5869 103.014,274.2418 102.454,288.0018" fill="none" id="Matricula-to-OrdenacionAcademica" style="stroke:#181818;stroke-width:1;"/><polygon fill="#181818" points="102.21,293.9969,106.5727,285.167,102.4133,289.001,98.5793,284.8417,102.21,293.9969" style="stroke:#181818;stroke-width:1;"/><text fill="#000000" font-family="sans-serif" font-size="13" lengthAdjust="spacing" textLength="97.792" x="109" y="260.3638">gestionada por</text></g><!--link OrdenacionAcademica to ListaDeAlumnos--><g class="link" data-entity-1="OrdenacionAcademica" data-entity-2="ListaDeAlumnos" data-source-line="11" data-uid="lnk9" id="link_OrdenacionAcademica_ListaDeAlumnos"><path codeLine="11" d="M119.48,342.2969 C131.14,356.7769 147.35,375.2969 164,389.2969 C177.16,400.3569 187.6887,407.6405 202.0387,416.2105" fill="none" id="OrdenacionAcademica-to-ListaDeAlumnos" style="stroke:#181818;stroke-width:1;"/><polygon fill="#181818" points="207.19,419.2869,201.514,411.2381,202.8973,416.7232,197.4121,418.1064,207.19,419.2869" style="stroke:#181818;stroke-width:1;"/><text fill="#000000" font-family="sans-serif" font-size="13" lengthAdjust="spacing" textLength="58.4302" x="165" y="385.3638">actualiza</text></g><!--link ListaDeAlumnos to Alumno--><g class="link" data-entity-1="ListaDeAlumnos" data-entity-2="Alumno" data-source-line="12" data-uid="lnk10" id="link_ListaDeAlumnos_Alumno"><path codeLine="12" d="M250.5,418.9769 C251.09,365.5769 249.49,230.6769 222,122.2969 C219.44,112.1869 217.669,106.9971 213.489,97.9171" fill="none" id="ListaDeAlumnos-to-Alumno" style="stroke:#181818;stroke-width:1;"/><polygon fill="#181818" points="210.98,92.4669,211.1101,102.3149,213.0708,97.0087,218.377,98.9695,210.98,92.4669" style="stroke:#181818;stroke-width:1;"/><text fill="#000000" font-family="sans-serif" font-size="13" lengthAdjust="spacing" textLength="46.541" x="246" y="260.3638">incluye</text></g><!--link Profesor to ListaDeAlumnos--><g class="link" data-entity-1="Profesor" data-entity-2="ListaDeAlumnos" data-source-line="13" data-uid="lnk11" id="link_Profesor_ListaDeAlumnos"><path codeLine="13" d="M329.57,342.4369 C312.05,364.4269 289.578,392.6135 272.088,414.5735" fill="none" id="Profesor-to-ListaDeAlumnos" style="stroke:#181818;stroke-width:1;"/><polygon fill="#181818" points="268.35,419.2669,277.0859,414.7189,271.465,415.3558,270.8281,409.7349,268.35,419.2669" style="stroke:#181818;stroke-width:1;"/><text fill="#000000" font-family="sans-serif" font-size="13" lengthAdjust="spacing" textLength="55.0278" x="305" y="385.3638">consulta</text></g><!--SRC=[ROz12i8m44NtESLSe1V8GYXqgUWLFibO0caYcMIXujrjscAaTFdV__Dd9hlicGQ7CM42MIRZ8IpKqTb9Xip84toP0cnKghf2VTMHtfzDtrAyiyJKo38yy1gKng_9Se1nCVG6bYTdqCmBSdAc-0MfRKdNdVuCJOdXtGkgiPeuwjKqikGPmO8UCQcZK1tU7Qi99fTroywgwUqkJIuONvwiVjyVTfaOfFYCBm00]--></g></svg>