<svg xmlns="http://www.w3.org/2000/svg" xmlns:xlink="http://www.w3.org/1999/xlink" version="1.1" data-diagram-type="SALT" style="width:668px;height:193px;background:#FFFFFF;" width="668px" height="193px" viewBox="0 0 668 193" zoomAndPan="magnify" preserveAspectRatio="none" contentStyleType="text/css"><?plantuml 1.2026.7beta5?><defs/><g font-family="sans-serif" lengthAdjust="spacing"><text x="6" y="17.139" fill="#000" font-size="12" textLength="152.291" font-weight="700">Portal de la Secretaría</text><text x="479.168" y="17.139" fill="#000" font-size="12" textLength="182.256">Consultar Detalle de Matrícula</text><line x1="6" y1="24.469" x2="478.168" y2="24.469" style="stroke:#AAA;stroke-width:1;"/><line x1="6" y1="26.469" x2="478.168" y2="26.469" style="stroke:#AAA;stroke-width:1;"/><text x="7" y="42.107" fill="#000" font-size="12" textLength="87.076" font-weight="700">ID Matrícula:</text><text x="96.076" y="42.107" fill="#000" font-size="12" textLength="87.996">MAT-2026-980</text><text x="7" y="58.076" fill="#000" font-size="12" textLength="56.033" font-weight="700">Alumno:</text><text x="96.076" y="58.076" fill="#000" font-size="12" textLength="95.361">Carlos Mendoza</text><line x1="6" y1="67.406" x2="478.168" y2="67.406" style="stroke:#AAA;stroke-width:1;"/><text x="6" y="83.045" fill="#000" font-size="12" textLength="150.867" font-weight="700">Materias Matriculadas</text><text x="7" y="100.014" fill="#000" font-size="12">#</text><text x="19.055" y="100.014" fill="#000" font-size="12" textLength="64.969">Asignatura</text><text x="183.008" y="100.014" fill="#000" font-size="12" textLength="48.27">Paralelo</text><text x="233.277" y="100.014" fill="#000" font-size="12" textLength="40.852">Estado</text><text x="7" y="115.982" fill="#000" font-size="12">1</text><text x="19.055" y="115.982" fill="#000" font-size="12" textLength="146.982">Ingeniería de Software II</text><text x="183.008" y="115.982" fill="#000" font-size="12">A</text><text x="253.277" y="115.982" fill="#000" font-size="12" textLength="222.891">Aprobada () Reprobada (X) Cursando</text><ellipse cx="240.277" cy="111.828" rx="5" ry="5" fill="none" style="stroke:#000;stroke-width:1.5;"/><text x="7" y="131.951" fill="#000" font-size="12">2</text><text x="19.055" y="131.951" fill="#000" font-size="12" textLength="161.953">Bases de Datos Avanzadas</text><text x="183.008" y="131.951" fill="#000" font-size="12">B</text><text x="253.277" y="131.951" fill="#000" font-size="12" textLength="222.891">Aprobada () Reprobada (X) Cursando</text><ellipse cx="240.277" cy="127.797" rx="5" ry="5" fill="none" style="stroke:#000;stroke-width:1.5;"/><text x="7" y="147.92" fill="#000" font-size="12">3</text><text x="19.055" y="147.92" fill="#000" font-size="12" textLength="123.867">Sistemas Operativos</text><text x="183.008" y="147.92" fill="#000" font-size="12">A</text><text x="253.277" y="147.92" fill="#000" font-size="12" textLength="222.891">Aprobada () Reprobada (X) Cursando</text><ellipse cx="240.277" cy="143.766" rx="5" ry="5" fill="none" style="stroke:#000;stroke-width:1.5;"/><line x1="6" y1="157.25" x2="478.168" y2="157.25" style="stroke:#AAA;stroke-width:1;"/><rect x="9.5" y="165.25" width="172" height="17.969" fill="#EEE" style="stroke:#000;stroke-width:2.5;" rx="5" ry="5"/><text x="50.143" y="178.389" fill="#000" font-size="12" textLength="90.715">Cerrar Detalles</text><line x1="5" y1="5" x2="478.168" y2="5" style="stroke:#000;stroke-width:1;"/><line x1="478.168" y1="5" x2="662.424" y2="5" style="stroke:#000;stroke-width:1;"/><line x1="5" y1="187.719" x2="478.168" y2="187.719" style="stroke:#000;stroke-width:1;"/><line x1="478.168" y1="187.719" x2="662.424" y2="187.719" style="stroke:#000;stroke-width:1;"/><line x1="5" y1="5" x2="5" y2="20.969" style="stroke:#000;stroke-width:1;"/><line x1="662.424" y1="28.969" x2="662.424" y2="62.906" style="stroke:#000;stroke-width:1;"/><line x1="662.424" y1="5" x2="662.424" y2="20.969" style="stroke:#000;stroke-width:1;"/><line x1="5" y1="160.75" x2="5" y2="187.719" style="stroke:#000;stroke-width:1;"/><line x1="5" y1="86.875" x2="5" y2="152.75" style="stroke:#000;stroke-width:1;"/><line x1="662.424" y1="160.75" x2="662.424" y2="187.719" style="stroke:#000;stroke-width:1;"/><line x1="5" y1="62.906" x2="5" y2="70.906" style="stroke:#000;stroke-width:1;"/><line x1="662.424" y1="86.875" x2="662.424" y2="152.75" style="stroke:#000;stroke-width:1;"/><line x1="5" y1="20.969" x2="5" y2="28.969" style="stroke:#000;stroke-width:1;"/><line x1="662.424" y1="62.906" x2="662.424" y2="70.906" style="stroke:#000;stroke-width:1;"/><line x1="662.424" y1="20.969" x2="662.424" y2="28.969" style="stroke:#000;stroke-width:1;"/><line x1="5" y1="152.75" x2="5" y2="160.75" style="stroke:#000;stroke-width:1;"/><line x1="5" y1="70.906" x2="5" y2="86.875" style="stroke:#000;stroke-width:1;"/><line x1="662.424" y1="152.75" x2="662.424" y2="160.75" style="stroke:#000;stroke-width:1;"/><line x1="5" y1="28.969" x2="5" y2="62.906" style="stroke:#000;stroke-width:1;"/><line x1="662.424" y1="70.906" x2="662.424" y2="86.875" style="stroke:#000;stroke-width:1;"/><?plantuml-src bP7FJW8n4CRl-nHDl4ZC4i3uDs9O5mzx81BnO68y3En8DYajcUbY0l98FeKlvjT5qIk7QJgTRtxzEXre80bADYIRayIOc-djs4iWQqesbio4PyAGV7sI-J2vTrfRf6Q8GsivgaOKK9xLbj3VxsFP81fKCVnNlGPWb3sblKxlFBswxFoACbild8_LdCHwDIDsfLz7sXQHfZjR0B5Kf0snYi2IT7_P4TephUQEGYtHwfY4B5kFxJtUMFf6raLQk3cxYfidmVx4luLt4ZP54Hc8uvR9bkAdk23k7tcVFBTCNekI-y7reBuZPOsW8GMOprRarj5QB1q4EuLwKcdW1PeVbYmKgfNN0qtjHxQRomiYPv6_BrESl3R2RJB0f9k_Jxhj-2tjYob4Pzy0?></g></svg>